<?xml version="1.0" encoding="utf-8"?>
<!-- Generator: Adobe Illustrator 26.0.1, SVG Export Plug-In . SVG Version: 6.00 Build 0)  -->
<svg version="1.1" id="Layer_1" xmlns="http://www.w3.org/2000/svg" xmlns:xlink="http://www.w3.org/1999/xlink" x="0px" y="0px"
	 viewBox="0 0 298 68" style="enable-background:new 0 0 298 68;" xml:space="preserve">
<style type="text/css">
	.st0{fill-rule:evenodd;clip-rule:evenodd;fill:#041A52;}
	.st1{fill-rule:evenodd;clip-rule:evenodd;fill:#F0F2F2;}
	.st2{fill:#041A52;}
</style>
<g id="Layer_1_00000103226255598176893840000012289293456438451635_">
	<g id="ribbon">
		<path id="Shape" class="st0" d="M146.3,63.6c0.4,0.5,0.3,1.1,0.8,1.7c-0.3,0.4,0,1.1,0.3,1.3c0,0.7-0.2,0.9,0.1,1.4
			c-0.5-0.1-0.2-0.4-0.5,0c-0.7,0-0.2-0.6-0.3-0.9c-0.1-0.9-0.3-2.2-0.7-3.1C145.9,63.7,146.3,63.8,146.3,63.6z M151.6,65.3
			c0,0.5,0,0.6,0.4,0.6c0,0.3,0,0.5-0.3,0.6c0,0.1,0.3,0.1,0.5,0.1c-0.2,0.7,0.5,1.1-0.5,1.1c0.1-1-0.6-1.3-0.3-1.9
			C151.2,65.9,150.9,65.2,151.6,65.3z M142.1,51.4c0.1,2.6,0.1,5.4,0.4,7.9c0.1,0.9-0.3,1.8-0.1,2.5c0,0.2,0.3,0.3,0.3,0.5
			c0.1,1.3,0,2.3,0,3c0,0.5,0.4,1-0.1,1.4c-1-0.2-0.4-1.1-0.4-1.6c0-1-0.2-1.8-0.1-2.6c0-0.2,0.3-0.3,0.3-0.5c0-0.3-0.2-0.8-0.3-1.1
			c-0.2-1.7-0.1-2.8-0.1-4.7c0-1.5-0.4-3.3,0-5C142,51.3,142.1,51.4,142.1,51.4z M146.8,0c0.4,0.1,0,0.8,0,1c-0.1,0.5,0,0.9,0,1.6
			c0,1.1-0.4,2.2-0.4,3.4c0,2.4-0.1,5-0.1,7.6c0,0.2-0.2,0.3-0.3,0.4c-0.1,0.7,0.1,2,0,2.9c0,0.2-0.3,0.4-0.3,0.6s0.2,0.2,0.3,0.4
			c0.1,0.6-0.3,1.5-0.3,2c0,0.2,0.2,0.3,0.3,0.5c0.1,0.4-0.3,1-0.3,1.3s0.3,0.6,0.3,0.9c0,0.4-0.3,0.8-0.3,1.1c0,0.4,0.4,0.7,0.1,1
			c0.4,0,0.3-0.4,0.7-0.4v-0.5c0-0.5,0-1-0.2-1.6c0.2-0.1,0.1-0.5,0.4-0.6c-0.2-1.7,0-3.5,0.3-5.1c0.1-0.4-0.1-0.8,0-1.2
			c0-0.2,0.3-0.4,0.3-0.5c0.1-1-0.2-2.1,0-3c0.1-0.3,0.4-0.5,0.4-0.8c0-0.4-0.2-0.8-0.1-1.2c0.1-0.4,0.4-0.7,0-1.2
			c0.3-0.2,0.2-0.7,0.5-0.8c-0.4-0.5-0.6-1.1,0-1.6c0-0.2-0.6-0.8,0.1-1c0,0.1,0.1,0.1,0.1,0c0.6,0.4-0.2,1.3,0.1,1.7
			c-0.1,0.3-0.3,0-0.5,0.2c0.6,1,0,2.1-0.1,3.2c0,0.2,0.2,0.5,0.1,0.6c0,0.2-0.3,0.4-0.3,0.5c0,0.4,0.2,0.8,0.1,1.2
			c-0.1,1.7-0.5,3.4-0.7,5.2c0,0.2,0.2,0.2,0.1,0.4l-0.1,0.9c-0.1,1.6-0.2,3.3,0.1,4.9c0,0.4-0.3,0.6-0.3,1c0.7-0.1,0.4-0.7,0.4-1
			c0.8-2.9,1-5.3,1.2-8.2c0.1-1.7,0.8-3.9,0.7-6.2c-0.1-0.4,0.3-0.4,0.4-0.6c-0.4-1,0.2-2.1,0.1-3.4V5.3c0-0.2,0.1-0.3,0.4-0.3
			c-0.6-0.7-0.1-2.3,0.3-2.7c-0.4-0.6-0.4-1.3-0.3-1.9c0.6,0,1.2,0.1,1.5,0.5c0,0.6-0.5,1.1-1,1.1c-0.1,0.5,0.4-0.1,0.4,0.2
			c0.1,0.9-0.7,0.5-0.7,1.2c0,0.2,0.4-0.1,0.5,0.1c-0.3,0.4-0.2,1.3-0.7,1.6c-0.2,0.3,0.4,0.1,0.3,0.4c-0.6,2.4-0.6,5.1-0.9,7.5
			c-0.1,0.4-0.3,0.7-0.3,1c0,0.2,0.2,0.5,0.1,0.7c-0.1,0.6-0.6,1.2-0.7,1.8c-0.2,0.8,0,1.7-0.1,2.6c0,0.3-0.3,0.5-0.4,0.7
			c0,0.2,0.1,0.4,0.1,0.6c0,1.4-0.7,3.2-0.1,4.7c0.9-0.9,0.7-2.2,1-3.2c0.6-2.6,1.3-5.6,1.9-8.5c0.1-0.5-0.2-1,0.4-1.3l-0.3,2
			l-0.2,1.2c-0.2,1.4-0.4,2.7-0.7,3.9l-0.1,0.4l-0.1,0.3c-0.1,0.3-0.2,0.7-0.2,1.2c-0.1,0.5-0.2,1-0.3,1.6c0,0.2-0.2,0.2-0.3,0.4
			c0,0.2,0.2,0.3,0.1,0.5c-0.1,0.7-0.6,1.5,0,2.1c0.6,0,0.1-0.8,0.3-0.8c0.3-0.9,0.7-1.5,0.7-2.7c0.2,0,0.3,0.1,0.4,0.1h0.1
			l-0.1,0.1c-0.1,0.1-0.1,0.2-0.2,0.3c0.2,0.7-0.5,1.8-0.3,2.6c0.1,0.3,0.3,0.7,0.8,0.6c0.1,0.4,0,0.5,0,1c1.1-0.2,0.8-1.6,1.6-2.1
			c-0.2-0.3-0.8,0.2-1.1-0.1c-0.3,0.2-0.4,1.1-0.7,0.9c-0.6-0.3,0.1-1.1-0.4-1.6h0.4c0.3,0,0.6,0,0.7-0.2c0.1-0.5-0.2-0.1-0.3-0.3
			c1.1-2.5,1.6-5.4,2.9-7.8c0.1-0.2-0.2-0.2-0.1-0.5c1-1.9,1.2-4.2,2.3-6c-0.1-0.7,0.2-0.7,0.1,0c-0.2,1.1-1,2.2-1.2,3.4
			c-0.1,0.7,0,1.3-0.5,1.8c-0.2,1.7-1,3.2-1.5,4.7c-0.5,1.3-0.7,2.7-1.2,3.9c0.4,0.1,0.2,0.6,0.3,1c0.2-0.2,0.5-0.4,0.7-0.6
			c0.8-0.9,1-2.4,1.6-3.6c0.1-0.2,0.5-0.4,0.5-0.6c0.1-0.2-0.1-0.5,0-0.7c0-0.1,0.4-0.6,0.5-0.9c0.5-1.1,1.3-2.5,1.8-3.6l0.2-0.6
			c0.1-0.3,0.2-0.5,0.5-0.8c0-0.1-0.1-0.3,0-0.3h0.3c0.2-0.4-0.1-1,0.7-1c-0.2,1.1-1.1,1.7-1.2,2.9c-1.1,1-1.4,2.4-2,3.8l-0.5,1.1
			c-0.6,1.3-1.2,2.8-1.7,4.2l0.1,0.2c0.1,0.2,0.2,0.3,0.4,0.4c1.2-0.5,0.8-2.3,2-2.8c-0.1-0.6,0.5-1.1,0.8-1.7
			c0.3-0.5,0.4-1.2,0.7-1.8c0.2-0.4,0.6-0.6,0.8-1s0.2-0.9,0.4-1.3c0.1-0.2,0.3-0.1,0.4-0.3c0.5-0.7,0.3-1.7,1.2-2.2
			c-0.1-0.5,0.4-0.6,0.4-1c0.2,1.2-0.7,2-1.2,3.2c-0.3,0.7-0.7,1.4-1.1,2.2l-0.8,1.4c-0.3,0.5-0.5,0.9-0.8,1.5
			c-0.4,0.6-0.6,1.3-1,2.1c-0.1,0.3-0.5,0.4-0.7,0.7c-0.4,0.6-0.5,1.3-0.8,1.9c-0.3,0.5-1.1,1-0.8,1.8c1.7-0.9,1.9-2.9,3.3-4
			c-0.1-0.7,0.7-0.8,0.5-1.6c1.9-1.9,3.4-5.2,5-6.9c0.3-0.3,0.4,0,0.1-0.5c0.9-0.6,0.9-1.7,1.9-2.2c0.6-0.6,0.5-1.8,1.5-2.1
			l-0.2,0.6c-0.2,0.7-0.5,1.4-1.2,1.8c-0.4,1.2-1.3,2.1-2.2,2.9c0,0.3,0.3,0.3,0,0.5c-0.6,0.7-0.9,1.7-1.8,2.2c0,0.8-0.8,1.3-1.2,2
			c-0.4,0.6-0.8,1.3-1.2,2l-0.7,0.9c-0.2,0.3-0.5,0.6-0.7,0.9c-0.6,0.9-1,1.9-1.8,2.6v0.6c-0.7,0.1-0.4,0.9-1.1,0.9
			c0.2,0.5-0.3,0.6-0.3,1c0.8-0.1,0.9-0.8,1.2-1.2c0.2,0,0.3-0.1,0.5-0.1c0.5-0.9,1.4-1.6,2.1-2.5l0.3-0.3c0.3-0.5,0.8-1,1.2-1.4
			l0.6-0.7l0.3-0.3l0.8-1c0.6-0.8,1.3-1.6,2.1-2.3c0.6-1.5,1.9-2.4,2.9-3.5c0.5,0.5-0.3,1.2-0.8,1.9c-0.4,0.5-0.7,1.2-1.5,1.4
			c-0.1,0.5-0.7,0.9-1.1,1.3c-0.4,0.4-0.7,1.2-1.2,1.8c-0.1,0.1-0.2,0-0.3,0.1c-0.1,0.2-0.3,0.4-0.7,0.5c-1.1,1.8-2.3,3.5-3.9,4.9
			c0.1,0.7-0.9,0.6-0.7,1.3c-0.3,0.2-0.7,0.3-0.8,0.6c1,0.2,1.4-1,2.3-1.2c0.2-0.5,0.8-0.9,1.2-1.3s0.7-1.1,1.5-1
			c-0.1,1.1-1.5,1.2-1.8,2.2l-0.4,0.2l-0.4,0.3l-0.3,0.2c-0.7,0.5-1.2,1-1,1.6c5.6-3.4,9.5-8.2,15-11.8c-0.4,0.4-0.9,0.8-1.2,1.3
			c-1.7,0.8-2.6,2.2-3.9,3.3c-0.8,0.7-1.8,1.3-2.4,2.2c-0.2,0.1-0.3,0.2-0.5,0.2c-0.4,0.5-1.1,0.8-1.6,1.2c-1.7,1.3-3.3,3-5.4,4.1
			c0.6,0.7,1.6-0.4,2.3-0.6c0.9-0.6,1.6-1.2,2.7-1.7c1.3-1.4,3.5-2,4.8-3.4c1.3-0.5,2.2-1.3,3.3-2.1c1-0.7,2.3-1.3,3.1-2.2
			c2.7-1.4,4.6-3.4,7.5-4.7c0.7-0.4,1.2-1,2.2-1.1c-0.3,0.6-0.9,0.7-1.6,1.1c-2.2,1.4-4.3,2.9-6.7,4.3c-1.9,1.1-3.5,2.5-5.4,3.7
			l-1.5,1c-1.5,1-3.1,2-4.4,3.1h-0.4c-0.6,0.7-1.7,0.9-2.2,1.7c-1.3,0.2-1.8,1-2.9,1.3c0.9,0.1,1.8-0.7,2.9-0.9
			c0.2-0.1,0.4-0.2,0.5-0.4c1.8-0.6,3.3-1.5,4.9-2.4c1.5-0.8,3.2-1.6,4.8-2.4c3.1-1.6,6-3.5,9.4-5c-0.8,1.1-2.8,1.3-3.7,2.3
			c-1,0.2-1.8,0.7-2.3,1.2c-1.6,0.6-2.9,1.5-4.4,2.3l-3,1.6c-0.3,0.2-0.7,0.2-1.1,0.4c-1.7,0.8-3.2,2-5.2,2.8c-1,0.4-2.1,0.8-3,1.4
			c1.9,0,3.3-1.4,5.3-1.7l5.9-2.6c0.6-0.3,1.1-0.5,1.7-0.7c1.9-0.8,3.6-1.4,5.6-2.2c2.6-1,5-2.4,7.7-3.2c0.3-0.3,0.7-0.4,1.1-0.6
			c0.7,0.2,1.2,0.2,1.9,0c-0.5,0.7-2.3,0.4-2.9,1.1c-4.9,1.6-9.2,3.6-13.6,5.6c-0.4-0.1-0.5,0.1-0.8,0.1c-1.8,1.1-4.5,1.5-6,2.8
			c1,0.3,2.1-0.5,3.1-0.8c4.4-1.5,8.7-2.9,13.3-4.4c0.6-0.2,1.3-0.6,1.9-0.8c1-0.3,2.1-0.5,3.1-0.8c1.7-0.6,2.6-1.2,4.8-1
			c-8,2-15,4.8-22.4,7.2c-0.9,0.8-2.8,0.8-3.7,1.7c-0.1,0-0.1-0.2-0.3-0.2c-0.2,0.4-0.7,0.6-1.2,0.8c0.6,0.1,1.7-0.3,2-0.7
			c1.9-0.1,3.3-1.1,4.9-1.1c1.3-1,3.6-1.2,5.3-1.8c0.2-0.1,0.3-0.3,0.4-0.3h0.7c0.7-0.4,1.6-0.7,2.6-0.9c-0.3,1-2.1,1.2-3.4,1.5H173
			c-1.4,0.4-2.8,0.8-4.1,1.1c-0.2,0.1-0.3,0.3-0.4,0.4c-1.9,0-2.6,1-4.2,1.2c-0.3,0.5-1.6,0.3-1.8,0.9c0.6,0.4,1.1-0.5,1.9-0.1
			c2.8-1.1,6.3-2.2,9-2.8l0.3-0.1c0.3-0.1,0.6-0.3,1.1-0.3l0.3-0.2c0.4-0.2,0.9-0.4,1.2,0c-0.8,0.6-2.1,0.6-3.1,0.9
			c-0.5,0.1-0.9,0.5-1.5,0.6c-0.4,0.1-0.9,0.1-1.4,0.2c-0.8,0.2-1.6,0.6-2.4,0.8c-0.9,0.3-1.8,0.4-2.6,0.7c-1.5,0.5-2.7,1.3-4.2,1.4
			c0.1,0.4,1.2,0,1.4,0.4c0.5-0.5,1.4-0.6,2-1c0.3,0,0.5,0,0.5,0.2c4.9-1.4,10-2.6,15.5-3.6c0.3-0.1,0.3-0.3,0.5-0.4
			c1.4-0.1,2.4-0.6,3.9-0.6c-0.1,0.7-1.1,0.5-1.6,0.6c-2.3,0.5-4.8,1.2-7.2,1.9c-1.6,0-2.7,0.6-4.1,0.9c-0.7,0.2-1.6,0.2-2.2,0.3
			c-0.5,0.1-0.8,0.4-1.2,0.5c-0.2,0.1-0.5-0.1-0.7,0c-0.9,0.3-1.7,0.8-2.9,0.7c-1.6,1-4.6,0.9-6.5,1.7c-1.2-0.2-2.4,0.3-3.4,0.5
			c0.6,0.2,2.6,0,3.3-0.4c2.1,0.2,5.1-0.7,7.5-0.9c0.3,0,0.6,0,0.8,0c0.5-0.1,0.8-0.2,1.5-0.3h0.2c1.5-0.1,3.3-0.5,4.8-0.8
			c0.3-0.1,0.5-0.3,0.8-0.3c0.9-0.2,1.8-0.1,2.7-0.3c2.3-0.4,4.6-1,6.8-1.2c-0.6,0.7-2.4,0.3-2.9,0.9c-1.1-0.2-1.9,0.4-2.7,0.5
			c-0.4,0.1-0.7-0.1-1.1,0c-0.7,0.1-1.4,0.3-2,0.4c-1.8,0.4-3.6,0.6-5.6,0.9c-4.9,0.8-9.4,2-14.4,2c0,0.2,0,0.4,0.1,0.5h0.3h0.4
			c0.6,0,1.3,0,1.9-0.4c1,0.2,2.3,0.1,3.8-0.1l5.1-0.5l1.4-0.1l1.2-0.1c1-0.1,2-0.2,2.9-0.2c0.3,0,0.8,0,1.1,0
			c3.5-0.4,7.7-0.8,11.6-1c0.4-0.2,1.7-0.7,2.2-0.2c1.3-0.5,2.5,0,3.8-0.6c0.6,0,0.6,0.4,0.5,0.8c-1.6-0.1-3.5,0.2-5.3,0.2
			c-2.8,0.1-6.2,0.4-9.5,0.7l-1.5,0.1c-1.3,0.1-2.5,0.3-4.2,0.4h-0.4c-2.8,0.1-5,0.6-8,0.8c-1.4,0.1-2.5,0.7-3.7,0.2
			c-0.2,0.3-0.1,0.5,0.1,0.7c3.6-0.4,6,0,10.1-0.2c-3,0.5-7.3,0.3-9.4,0.7c-0.9-0.3-1.2,0.1-1.9-0.2c-0.1,0.4,0.6,0.1,0.5,0.4
			c1.3-0.3,1.2,0.4,2.3,0c-0.1,0.4,0.6,0.2,1.2,0.2c1.6,0,3.4,0.3,5.3,0.3c1,0,2-0.1,3,0l1.5,0.1c1.2,0.1,2.5,0.1,3.6,0.1
			c-1,0.4-2.3,0.2-3.4,0.1c-1.9-0.1-4.5-0.1-6.7-0.2h-1.3c-0.8,0-1.5,0-2.1,0.2c-2.2-0.3-4.4,0-6.3-0.4c0.1,0.7,1.9,0.4,2,0.7
			c0.5,0.1,0.5-0.2,1-0.1c0,0.2,0.6,0.1,0.5,0.4c0.8-0.1,1.6-0.1,2.4,0c0.2,0,0.3,0.2,0.5,0.2c0.7,0.1,1.5-0.1,2.2,0
			c0.5,0.1,0.8,0.2,1.4,0.2h0.2c1.8,0,3.9,0.5,5.8,0.6c0.3,0,0.6,0,1,0c1.4,0.1,2.7,0.3,4.1,0.4c0.8,0.1,1.6-0.1,2.3,0
			c1.1,0.1,2.4,0.3,3.5,0.4c2.2,0.2,4.3,0.4,6.1,0.8c-0.4,0.4-1.2,0-1.9-0.1l-1.1-0.1c-0.5-0.1-1.1-0.1-1.7-0.2c-0.5,0-0.9,0-1.4,0
			l-1.2-0.1l-2.6-0.2l-6.4-0.6c-2.2-0.2-4.5-0.3-7.7-0.5c-0.3,0-0.4-0.2-0.7-0.2c-1-0.1-2.4,0.2-3.3-0.3c-1.5,0.1-3.1-0.1-3.9-0.2
			c0.6,0.8,3.1,0.5,3.1,1.3c0.5-0.4,1-0.3,1.9-0.1c0.2,0.1,0.2,0.2,0.3,0.2c1,0.3,2.2,0.3,3.1,0.4c0.8,0.1,2,0.5,3.1,0.6l2.1,0.3
			c1,0.1,1.9,0.3,2.8,0.6c3.5,0.3,6.7,1.3,9.7,1.3c0.1,0.2,0.6,0,0.4,0.4c0.8-0.1,2,0,3,0.3c0.4-0.1,0.2,0.2,0.3,0.4
			c0.9-0.7,1,0.7,0.6,0.5c-2-0.5-3.3-0.6-5.6-1.1c-0.3-0.1-0.4-0.3-0.7-0.3c-2.2-0.4-4.9-0.4-6.9-1c-0.2-0.1-0.6-0.2-0.7-0.4
			c-0.7,0.3-1.3-0.1-2-0.2c-3-0.6-7.1-1-10.6-1.6c-0.5-0.1-1.1-0.1-1.8-0.2c-0.3-0.1-0.4-0.2-0.7-0.3c-0.2-0.1-0.4,0.1-0.5,0
			l-0.1-0.2c-0.3-0.1-0.6,0.1-0.8,0c-0.7-0.2-1.3-0.8-2-0.4c0.2,0.2,0.9,0.4,1.5,0.6c1.6,0.5,4,0.9,5.4,1.7c1,0,1.4,0.4,2.3,0.4
			c0.4-0.1,0.3,0.2,0.4,0.3c4.1,0.5,8,1.9,12.1,2.8c-0.7,0.3-1.3-0.2-1.9-0.3c-1.7-0.4-3.6-0.6-5.3-1c-0.4-0.1-0.6-0.3-1-0.4
			c-0.4-0.1-0.8,0-1.2-0.1c-1.1-0.2-2.1-0.8-3.3-0.7c-0.6-0.5-1.5-0.3-2.3-0.5c-0.6-0.1-1.2-0.5-1.8-0.6c-1.4-0.4-2.7-0.6-4.1-1.1
			c-0.1,0-0.3,0-0.4-0.1c-0.5-0.2-1.7-0.3-2-0.9c0.4,0.2,0.7,0,1.2,0c-0.5-0.4-0.5-0.3-1.4-0.2c-0.1,0.4,0.1,0.3-0.5,0.4
			c0.2,0.7,0.6,0.6,1.4,0.7c0.4,0.1,0.8,0.4,1.1,0.5s0.8,0.1,1.1,0.2c0.3,0.1,0.5,0.3,0.8,0.4c0.5,0.2,1.1,0.1,1.4,0.5
			c0.8,0,1.4,0.2,1.6,0.6l1.6,0.4c1.9,0.5,3.6,0.9,5.2,1.8c0.7,0,1.6,0.4,2.4,0.6l0.8,0.2c0.6,0.2,1.1,0.3,1.5,0.6
			c1.5,0,2.1,0.7,3.5,0.8c0,0.2,0.2,0.2,0.1,0.4c0.3,0,0.4-0.2,0.8-0.1c1.7,0.6,3.4,0.7,4.6,1.7c1.7-0.1,3.2,0.7,4.6,1.1
			c-0.1,0.5-2,0.6-2,0.2c-1.9-0.6-4.1-1-5.7-1.9c-0.5,0.2-0.1-0.3-0.4-0.3c-0.3-0.1-0.3,0.1-0.5,0.1c-0.4-0.1-0.5-0.4-0.8-0.5
			c-2.6-0.3-4.1-1.3-6.4-2l-2.1-0.6c-1.1-0.3-2.3-0.7-3.4-1.1c-0.1,0-0.4,0-0.4,0c-0.8-0.7-3.4-1-4.6-1.4c-0.1-0.2-0.5-0.3-0.5-0.5
			c-2,0.1-3.2-1.4-5.4-1.4c-0.3-0.5-1.4-0.5-1.6-1c-0.4,0.2-0.2,0.7,0,0.9c0.2,0-0.1-0.1,0-0.3c0.6,0,0.8,0.4,1.5,0.4
			c0.1,0.4,0.8,0.7,0.9,0.7l0.3,0.1l0.2,0.1c0.2,0.1,0.4,0.2,0.8,0.4c0.2,0.1,0.4,0.4,0.5,0.4c0.5,0.2,1,0,1.1,0.5
			c0.2-0.2,0.3,0.1,0.8,0c0.2,0.4,0.8,0.4,1.2,0.5c1.1,0.4,2.3,1,3.5,1.5c1.6,0.7,3.3,1.2,4.5,2.2c-0.8-0.3-1.8-0.5-2.3-1
			c-2.5-0.5-3.8-1.8-6.3-2.3c-1.2-0.8-3.1-1.1-4.2-2c-0.8,0.2-1.1-0.8-2-0.4c2,0.9,3.4,2.1,5.6,2.8c0.8,0.8,2.3,1.1,3.1,2
			c2,0.8,3.9,1.8,5.8,2.8l0.8,0.4c0.3,0.2,0.8,0.4,1.1,0.7c0.9,0.1,1.2,0.8,2.2,0.8c0.4,0.7,1.7,0.8,2.2,1.4h0.2
			c0.5,0.1,0.9,0.2,0.9,0.6c-4.1-1.9-7.5-4.2-12-5.8c-0.5-0.7-1.8-0.7-2.2-1.4c-1.8-0.3-2.6-1.4-4.4-1.8c-0.3-0.4-1-0.7-1.6-1
			c-0.5-0.3-1.1-0.8-1.6-0.7c0.1,0.7,1.2,0.6,1.4,1.2c0.6-0.1,0.4,0.4,1,0.3c0.1,0.1,0.2,0.3,0.1,0.5c0.9,0.1,1,0.7,1.9,0.8
			c3,2.3,6.9,4,9.8,6.4c0.9,0.1,1.2,0.7,2.2,0.8c0.5,0.4,0.9,1,1.6,1.3c0.5,0.2,0.8,0.3,1.2,0.6l0.2,0.1c0.7,0.5,2.1,0.9,2.4,1.9
			c-1.7-0.4-2.3-1.6-3.9-2.1c-0.1-0.1-0.1-0.2-0.1-0.4c-1.2-0.4-1.8-1.2-3-1.6c-0.5-0.7-1.7-0.9-2-1.7c-3.4-1.4-5.5-3.6-9-5
			c-0.1-0.3-0.6-0.3-0.5-0.6c-1.3-0.4-2.5-1.5-3.8-2.2c-0.1,0.1-0.2,0.1-0.4,0.1c-0.4,0.3-0.1,1-0.7,1.3c0.2,0.1,0.3-0.2,0.3-0.2
			c0.4,0.1,1.5,1.2,1.9,1.6l0.1,0.1c0.4,0.3,0.7,0.8,1.2,0.8c0,0.4,0.5,0.4,0.5,0.8c1.4,0.7,2,2,3.5,2.6c0,0.3,0.3,0.3,0.3,0.6
			c2.9,1.8,4.9,4.2,7.9,6c-0.2,0.3,0.4,0.4,0,0.5c0.3,0.2,0.7,0.3,1,0.5c0.4,0.9,1.7,1,2,1.9c0.9,0.3,1.4,0.8,1.8,1.4
			c-1.3,0-2-0.6-2.2-1.4c-0.2-0.1-0.4-0.1-0.7-0.1c-0.4-0.6-0.9-1.1-1.6-1.3c-0.3-0.4-0.7-0.8-1.2-1.2c-0.3-0.2-0.7-0.4-1-0.6
			c-0.4-0.4-0.7-1.1-1.5-1.2c-1.2-1.3-2.5-2.4-4.1-3.4c-0.4-0.8-1.2-1.3-2-1.7c-0.5-0.8-1.7-1.7-2.7-2.3c0-0.4-0.4-0.5-0.5-0.7
			c-1.1-0.5-1.6-1.4-2.7-1.9l-0.1-0.1l-0.1-0.1c-0.2-0.3-0.6-0.5-1-0.3c0.4,0.7,1.2,1.1,1.4,2.1c-1.1-0.6-1.3-1.8-2.7-2.2v-0.2
			l-0.1-0.2c-0.2-0.6-0.5-1.2-1.4-1c0.2,0.5,0.9,0.8,1,1.5c1.5,1.3,2.4,3,3.9,4.2c-0.1,0.3,0.2,0.3,0.1,0.6c0.6,0.3,1.1,1.1,1.6,1.8
			c0.5,0.5,0.7,1.1,1.1,1.6c0.3,0.4,0.7,0.6,1,0.9c0.3,0.4,0.5,0.8,0.8,1.2s0.5,0.8,0.8,1.1c0.2,0.2,0.5,0.2,0.7,0.4
			c0.3,0.3,0.2,0.8,0.8,0.9c0.9,1.9,2.9,3,3.8,4.9l0.5,0.4c0.4,0.3,0.8,0.7,0.8,1.4c-0.7,0-0.9-0.3-1-0.8c-1-1.2-2.3-2.3-3-3.7
			c-1.1-0.5-1.3-1.6-2.3-2.2c-0.9-1.7-2.2-3.1-3.3-4.5l-0.3-0.4c-0.3-0.5-0.7-0.9-1.2-1.2c0-1.1-1.6-1.5-1.5-2.4
			c-0.8-0.3-1-1.1-1.6-1.6c0.1-0.3-0.1-0.5-0.1-0.7s-0.6,0-0.7-0.2c-0.2-0.6-0.7-1-1.4-1.2l-0.1-0.2c-0.2-0.5-0.5-1.2-1.2-1
			c0,0.8,1,1.7,1.6,2.3V47c1.7,1.9,2.8,4.2,4.1,6.4c-0.6-0.4-0.9-1-1.2-1.6c-0.4-0.5-0.7-1-1.1-1.6c-0.7-1-1.3-2.2-2.2-3.1
			c-0.3-0.2,0.2-0.3-0.1-0.5c-0.8-0.6-1.2-1.4-1.8-2.2c-0.2,0-0.2,0.1-0.4,0.1c0.3,1.1,1.5,2.4,1.8,3.9c-1-0.3-0.5-1.5-1.4-1.7v-0.2
			c0-0.5-0.1-0.9-0.7-0.9c-0.1-0.5-0.1-1.1-1-1l0.2,0.4c0.1,0.2,0.1,0.4,0.3,0.8c0.3,0.9,0.9,1.7,1.4,2.8c0.3,0.7,0.4,1.2,0.5,2
			c0.1,0.4,0.5,0.9,0.7,1.3c0.2,0.5,0.1,1,0.3,1.5c0.1,0.3,0.4,0.5,0.5,0.7c0.2,0.5,0.3,1.1,0.5,1.7l0.2,0.4
			c0.1,0.3,0.2,0.6,0.1,0.9c-0.6-0.9-1.3-2.2-1.2-3.2c-0.3-0.2-0.3-0.6-0.7-0.8c0.1-0.5-0.1-0.7-0.4-0.9c-0.2-1-0.6-2.2-1.1-3.2
			c-0.3-0.7-0.8-1.5-0.8-2.2c-0.1-0.1-0.2-0.2-0.4-0.2c0-0.2,0-0.4,0.1-0.5c-0.6-0.3,0-0.9-0.7-1.1c-0.6,0.6,0.3,1.2-0.1,2
			c-0.9-0.6-0.1-1.2-0.5-2.2c-0.7,0.1-0.4,0.8-0.4,1.4c0,0.7-0.2,1.5-0.1,2.3c-1.1-0.6,0-2.3-0.3-3.1c-1.2,0.5-0.4,2.1-1.2,2.7v0.6
			c0,0.6-0.1,1.1-0.3,1.7c-0.6,1.8-0.7,4.3-1.2,6.3c-0.1-3,1.1-6.7,1.2-10.1c0.1-0.3,0.3-0.5,0.7-0.5c-0.5-0.5,0.1-1.2-0.3-1.8
			c-0.6,0.2-0.2,1.1-1,1.1c-0.2-0.7,0.6-1,0.1-1.6c-0.8,1.1-1.2,3.2-2.2,3.8c-0.8,0,0.3-0.6-0.1-0.6c0.1-0.4,0.4-0.4,0.1-0.7
			c1-0.6,0.9-2,1.6-3c-0.9,0.3-1.2,1-1.4,1.9c-0.6,0.3-0.5,1.2-1.2,1.6v0.5c-1.6,1.7-2.3,4-3.8,5.8c-0.4,1.6-1.6,2.9-2.3,4.2
			c-0.1,0.2,0.1,0.4,0,0.5c-0.2,0.4-0.8,1.1-1.1,1.7c-0.1,0.2-0.1,0.6-0.3,1c-0.4,0.8-1.2,1.5-1.2,2.4c-0.2,0.1-0.3,0.3-0.5,0.4
			c0,0.9-1,1.1-0.8,2.1c-0.6,0.4-0.7,1.1-1.6,1.1c-0.1-0.3,0.5-0.9,0.9-1.1c0.2-1.1,0.5-1.7,1.1-2.6c0.2-0.2,0.5-0.5,0.7-0.7
			c0.2-0.3,0.1-0.7,0.3-1c0.2-0.3,0.6-0.6,0.8-0.9c0.6-0.9,0.8-2,1.6-2.8c0.3-1.2,0.8-2.2,1.6-3c1.6-3.2,3.5-6.5,5-9.4
			c-1.1-0.3-0.8,0.9-1.6,1.1c-0.8,2.2-2.6,3.7-3.9,5.6c-0.3,0.8-0.8,1.4-1.4,1.9V54c-1.1,0.9-1.4,2.3-2.6,3.1v-0.6l0.2-0.1
			c0.3-0.2,0.5-0.5,0.5-0.9c1.2-0.8,1.5-2.3,2.6-3.2c0.5-1.8,2.5-3.4,3.3-5.5c0.5-0.7,1.4-1.2,1.5-2.3c-0.5,0-0.6,0.6-1,0.9
			c-0.1,0.1-0.4,0-0.5,0.1l0,0c0,0.1,0.1,0.3,0,0.3c-0.2,0-0.3-0.4-0.7-0.2c0.2-0.9,1.5-0.9,1.4-2.1c-1.5,1.2-2.7,2.7-4.1,4.1
			c-0.4,0.4-0.6,1-1.2,1c-1.4,2-3.6,3.4-5,5.4c-0.3,0-0.3,0.4-0.7,0.3c-1.5,2-3.2,3.8-5,5.6c-0.2-0.6,0.6-1,1-1.4l0.7-0.8
			c1-1.1,2-2.3,3.2-3.2c-0.1-0.3,0.4-0.2,0.3-0.6c0.5-0.1,0.6-0.6,1.1-0.7v-0.4c2.1-1.5,3.2-3.7,5.4-5.2c0.6-1.3,1.6-2.3,2.7-3.2
			c0.2-0.7,0.7-1.2,1.4-1.6c0.4-0.7,0.8-1.3,1.6-1.7c-0.9-0.6-1.1,1-2,1c0,0.4-0.4,0.5-0.5,0.8c-1.1,0.4-1.4,1.5-2.4,2
			c-1.9,2.3-4.6,4-6.7,6.2c-0.4,0.1-0.6,0.4-1.1,0.5c0.1,0.3-0.1,0.4-0.1,0.6c-0.4-0.1-0.3,0.3-0.7,0.2c0.1,0.3-0.2,0.3-0.1,0.5
			c-0.3,0-0.3,0.4-0.7,0.3c-1.3,1.6-3.2,2.7-4.4,4.4c-1.2,0.7-2.2,1.6-3,2.7c-0.7,0.1-0.6,0.7-1.4,0.7c0.1-0.2,0-0.5,0.1-0.7
			c0.1-0.1,0.3-0.1,0.4-0.2c0.1-0.1,0-0.3,0.1-0.4c0.3-0.2,0.3,0,0.5-0.3c0.4-0.6,0.9-1,1.8-1.3c0.8-1.3,2-2.3,3.4-3.1
			c0.4-1,1.7-1.6,2.4-2.4c0.2-0.2,0.3-0.6,0.5-0.8c0.3-0.3,0.8-0.5,1.1-0.8l0.2-0.2c0.2-0.2,0.5-0.3,0.7-0.5s0.2-0.5,0.4-0.6
			c0.1-0.1,0.4,0,0.4,0c0.6-0.5,1.2-1.4,2-1.8c0.1-0.9,1.3-1,1.5-1.9c1.1-0.4,1.4-1.4,2.4-1.9c0.2-0.2,0-0.1,0-0.4
			c0.6,0,0.7-0.5,1.2-0.6v-0.6c0.7-0.2,1-0.8,1.5-1.2c0.3-0.4,1.2-0.9,0.5-1.3c-1.2,1.3-2.8,2.2-3.9,3.5c-0.3,0.1-0.4,0.3-0.8,0.3
			c-1.3,1.4-3.2,2.3-4.8,3.5c-0.4,0.3-0.8,0.7-1.2,1c-0.4,0.3-0.9,0.6-1.2,0.9c0.1-0.7,1.3-1.4,2.2-1.9c0.1-0.5,0.7-0.5,0.8-1
			c1.4-0.7,2.2-1.9,3.7-2.6c0-0.5,0.5-0.5,0.5-0.9c1.2-0.3,1.4-1.4,2.6-1.7c0.2-0.5,0.6-0.9,0.9-1.2c-0.2-0.1-0.6-0.4-0.8-0.2
			c-0.3,0.1-0.1,0.6-0.3,0.8l-0.4,0.2c-0.7,0.4-1.4,0.7-1.9,1.3c-0.5,0-0.7,0.3-1.1,0.4c-1.2,1.1-3,1.8-4.2,3
			c-0.7,0.1-0.8,0.5-1.4,0.6c1.8-1.7,4.2-2.8,5.7-4.7c1.3-0.5,2.2-1,2.6-1.8c-0.7,0.1-1.3,0.3-1.5,0.8c-1.4,0.1-2.3,1-3.3,1.7
			c-0.7,0.5-1.4,0.8-1.9,1.3c-0.8,0.2-1.5,0.4-1.8,1c-0.7,0.1-0.9,0.5-1.5,0.6c-0.2,0.1-0.3,0.4-0.4,0.5c-4.6,2.2-8.4,5.1-12.8,7.5
			c-0.4,0.1-0.4,0.5-0.8,0.7c-0.2,0.1-0.5,0.1-0.7,0.2c-0.1,0.1,0,0.3-0.1,0.4c-0.1,0.1-0.6,0.2-0.8,0.3l-0.1,0.1l-0.3,0.2
			c-0.5,0.4-1.1,0.7-1.7,0c0.4-0.1,0.5-0.4,1.2-0.3c2-1.1,3.6-2.4,5.7-3.4c1.4-1.1,2.8-2.1,4.6-2.8c0.1-0.1,0.2-0.3,0.1-0.5
			c2.4-0.7,3.6-2.2,5.8-3c0.1-0.2,0.1-0.1,0.3-0.4c1.2-0.6,2.4-1.4,3.7-2.1c1.2-0.7,2.3-1.5,3.4-2.2c0.6-0.3,1.2-0.5,1.7-0.9
			l0.2-0.2c0.2-0.2,0.9-0.4,0.5-0.8c-0.4,0.3-1,0.6-2,0.9c-0.3,0-0.1,0.4-0.3,0.4c-1.3,0.2-2.2,1.3-3.4,1.2c0.6-1,2.4-1.2,3.1-2.2
			c-1.1,0-1.8,1.1-2.7,0.6c-0.2,0.1,0,0.2-0.3,0.4c-2.7,0.8-4.8,2.1-7.5,2.9c0-0.4,0.4-0.5,1-0.5c1.4-1,3.3-1.5,5-2.2l1-0.4
			c0.3-0.1,0.6-0.3,0.8-0.5c0.7,0,1.1-0.3,1.6-0.4c0.1-0.5,1.6-0.8,2.2-1.2c-0.4-0.2-1,0.3-1.2,0c-0.3,0-0.1,0.3-0.3,0.4
			c-0.5-0.2-0.8,0.2-1.2,0.3c-1.3,0.4-2.8,0.7-4.1,1.1c-0.5-0.4,0.6-0.6,1.1-0.6l0.5-0.2l0.3-0.2c0.5-0.3,1.1-0.5,1.7-0.4
			c0.9-0.5,2-0.7,2.9-1c-0.1-0.5-0.7-0.2-1,0c-1.5,0.2-2.5,0.1-3.3,0.6c-1.1-0.2-2,0.6-3,0.4c0.3-0.3,0.7-0.5,1.5-0.5
			c0.9-0.5,2.3-0.6,3.3-1.1c0.5,0.1,0.8-0.2,1.1,0c0.3-0.2,0.5-0.4,0.8-0.5c-4.7,0.3-8,1.2-12.8,1.9c0.6-0.7,2.5-0.4,3.3-0.9
			c0.7,0.2,1.4-0.2,1.9-0.4c0.1,0.1,0.3,0.1,0.5,0.1l0.4-0.1c0.3-0.1,0.5-0.2,0.7-0.3c2.2,0,3.9-0.7,6-1c-4,0-7.9,0.8-12.6,1
			c0.6-0.5,1.6-0.3,2.4-0.4c2.5-0.3,5.1-0.8,6.9-0.8c0.7-0.9,2.8,0,3.9-0.6c-0.8-0.2-2.3-0.1-3.1,0c0.6-0.3-0.2-0.5-0.7-0.6
			c0.1,0.3-0.1,0.3-0.4,0.6h-1h-2.1c-2.6,0-5.4,0.1-7.3,0.5c-2.5,0-5.7,0.2-9.5,0.4c-1.4,0.1-2.5,0.6-3.3-0.1
			c1.5-0.3,3.1-0.2,4.9-0.3c1.9-0.1,4-0.2,6-0.3l3.1-0.2l1-0.1l2.1-0.1c0.9-0.1,1.9-0.1,3-0.2h0.8c0.7,0,1.4-0.2,1.7-0.7
			c-4.6-0.5-10.8-0.4-15.5-0.5c-0.8,0-1.7-0.2-2.4-0.2c-1.5,0-3,0.2-4.5,0.2c-0.8,0-2.4-0.2-3.5-0.2c-1,0-1.9,0.5-2.4-0.3
			c-0.1-0.5,0.8-0.3,1-0.6c0.4,0.1,0.6,0.2,0.8,0.4L99,32c1.3-0.1,2.7-0.1,3.9,0.3c0.9-0.3,2.9-0.1,4.2-0.1c0.3,0,0.5,0.2,0.8,0.2
			c0.7,0,1.5-0.2,2.2-0.2c0.4,0,0.8,0.3,1.2,0.3c0.4,0,1.1-0.1,1.5-0.1c2.4,0.1,5.1,0.3,7.6,0.3c0.5,0,0.9-0.2,1.4-0.2
			c1.1,0,2.2,0.2,3.1,0.2s1.7-0.5,2.4,0c0.9-0.3,0.7-1.4,2-1.3c0-0.4-1,0.1-1.1-0.4c-0.9,0.5-2.1-0.1-2.7-0.4c-1.5,0-3-0.3-4.9-0.5
			c-4.1-0.5-8.2-1.4-12.2-2c-0.7-0.1-1.5-0.1-2.2-0.2c-0.5-0.1-1-0.3-1.5-0.4c-1-0.1-2.1-0.1-3-0.2c-0.3,0-0.4-0.3-0.7-0.3
			c-0.6-0.1-1.4,0-1.8-0.5c2.4,0,4.7,0.6,7.1,0.9c0.6,0.1,1.4,0,2,0.1c0.5,0.1,0.8,0.4,1.4,0.5c0.2,0.1,0.6,0,0.8,0l1.1,0.2l1,0.2
			c1,0.2,2,0.4,2.8,0.6c0.9,0.1,2,0.1,2.9,0.2c0.3,0,0.5,0.2,0.8,0.3c0.5,0.1,1.3,0,1.9,0.1s1,0.3,1.5,0.3c1,0.1,1.9,0,2.6,0.4
			c1-0.1,2.3,0,3.4,0.1c-0.2-0.4-1.4-0.1-1.2-0.8c-0.5,0.2-1.1,0.1-1.5,0c-0.5-0.1-0.8-0.4-1.4-0.5c-0.3-0.1-0.7,0-1,0
			c-0.5-0.1-1.1-0.3-1.6-0.4c-0.6-0.1-1.3-0.2-1.8-0.3c-0.3-0.1-0.5-0.3-0.8-0.4c-0.7-0.3-1.8-0.3-2.6-0.5c-0.6-0.2-1.2-0.6-2.2-0.6
			c1.2-0.2,3,0.8,4.5,0.7c1.5,0.7,3.9,0.7,5.4,1.3c1.3-0.2,1.5,0.5,2.7,0.4c0.2,0.2,0.6,0.4,0.7,0.7c0.5,0-0.2-0.6,0.1-0.5
			c0.7-0.3,0.9,0.3,1.5,0.2c0.5,0,0.3-0.4,0.7-0.5c-0.1-0.3-0.4,0.1-0.8,0c-0.9-0.3-2-0.5-2.7-0.9h-0.8c-1.1-0.8-3.3-0.8-4.5-1.6
			c-1.4-0.2-2.5-0.7-3.8-1.1l-0.5-0.2c-1.4-0.4-3.6-1.3-5.2-1.7c-0.3-0.1-0.7,0-1-0.1c-0.9-0.3-1.6-0.7-2.4-1
			c-0.5-0.2-1.3-0.1-1.5-0.6c1.5,0.3,3,0.8,4.5,1.2c1.1,0.3,2,0.7,3.1,1L117,25c1.4,0.4,2.8,0.9,4.1,1.4c2.1,0.2,3.7,0.8,5.2,1.4
			c1.6,0,2.9,1,4.5,1c0-0.4-0.8-0.1-0.5-0.6c0.3-0.1,0.6,0.1,0.7,0.1c0.3-0.1-0.5-0.5,0.4-0.2c0.2,0.1,0.2,0.3,0.5,0.1l-0.3-0.2
			c-0.8-0.7-1.9-1.6-3.4-1.8c-0.2-0.6-1.2-0.5-1.4-1c-1.2-0.3-2.2-0.8-3.1-1.4c-1.4-0.3-2.1-1.1-3.4-1.3c-4.1-2.5-8.7-4.5-13.6-6.4
			c-0.1-0.1-0.1-0.2-0.1-0.4l-0.3-0.1l-0.5-0.1c-0.5-0.2-1-0.4-1.2-0.8c1.1-0.1,1.6,0.4,2,0.8c2.4,0.7,4.1,1.8,6.3,2.9l0.5,0.3
			c0.7,0.3,1.4,0.8,2.3,0.9c1,0.7,2.2,1.3,3.7,1.7c0.9,1,2.8,1.3,3.8,2.3c2.4,0.8,4.2,2,6.7,2.8c0.1,0.2,0.2,0.3,0.3,0.4
			c1.1,0.2,1.7,0.7,2.7,0.9c0.1,0.2-0.1,0.3-0.1,0.4c0.4,0.1,0.5-0.1,0.8-0.1c-0.6-0.8-2.2-0.9-2.4-2c-0.9-0.2-1.1-0.8-2.2-0.9
			c-0.2-0.3-0.6-0.4-0.7-0.7c-1.2-0.4-2.1-0.9-2.9-1.7c-0.9-0.1-1.1-0.7-1.9-0.8c-1.8-1.5-4.1-2.7-6.3-3.9c-0.4-0.2-0.8-0.6-1.2-0.8
			c-0.9-0.5-1.8-0.8-2.4-1.7c0.9,0.3,1.8,0.8,2.6,1.2c0.8,0.5,1.4,1,2.2,1.4c0.4,0.2,1,0.3,1.4,0.5c0.2,0.1,0.3,0.4,0.5,0.5
			c1.3,0.8,2.8,1.5,3.9,2.5h0.5c0.2,0.4,0.8,0.5,1,0.9c1.6,0.5,2.6,1.5,4.1,2.1c0.1,0.2,0.4,0.3,0.4,0.6c0.4-0.1,0.5,0.1,0.8,0.1
			c0,0.4,1.1,0.4,1.5,1h0.7c0.1,0.7,1.3,0.5,1.6,1c-0.4-0.9-1.6-1.1-2-2c-0.8-0.1-1.9-0.8-2.3-1.6c-3.7-1.9-6.3-4.7-9.9-6.6
			c0.1-0.3-0.6-0.2-0.4-0.6c-0.4,0.1-0.5-0.1-0.8-0.1c-2.2-1.8-5-3.1-7.1-5c-1.1-0.6-2.7-0.9-3.3-1.9c0.5-0.2,1-0.5,1.8-0.5
			c0.7,1.7,2.7,2.4,3.9,3.6c0.4,0,0.4,0.2,0.8,0.2c3.2,2.8,7.4,4.7,10.6,7.6c1.1,0.1,2.1,1.1,2.7,1.9c0.1,0.1,0.4,0,0.7,0.2
			c0.5,0.6,1.1,1,1.9,1.4c0.2,0.1,0.5,0.1,0.7,0.2c0.1,0.1,0.2,0.4,0.3,0.4c0.2,0.1,0.6,0.1,0.8,0.2c0.5,0.3,0.6,0.8,1.2,0.7
			c-0.2,0.1-0.2,0.4,0,0.5c0.2-0.1,0.7,0,1.1,0.3c-0.8-1.3-2.4-2-3.5-3c-0.2-0.2-0.3-0.6-0.5-0.8c-0.1-0.1-0.4-0.1-0.5-0.2
			c-0.3-0.3-0.4-0.6-1.1-0.7c-0.7-1.2-2.2-1.8-3.1-2.9c-2.6-1.6-4.4-3.7-6.8-5.4c-0.1-0.2-0.4-0.2-0.1-0.4c-0.4,0.1-0.3-0.3-0.7-0.2
			c-0.9-1.2-2.3-2-3.4-3c-0.2-0.3-1.1-0.6-0.8-0.9c0.6-0.1,0.8,0.5,1.2,0.9c1.8,1.6,4.1,3.2,6.1,4.8c0.8,0.6,1.3,1.4,2.3,1.8
			c1.3,1.6,3.6,2.5,4.8,4.2c1.1,0.6,2,1.4,2.7,2.3c1.1,0.2,1.2,1.2,2.3,1.4c0,0.1,0,0.3-0.1,0.3c0.9,0,1.4,1.1,2.4,1.3
			c0.3-0.1-0.4-0.2-0.5-0.4l0,0c-0.3-0.8-0.8-1.5-1.6-1.9c-0.6-1.2-1.8-2.2-2.9-3.2c-3.3-3.4-6.5-7.2-10.3-10.2
			c-0.1-0.6-0.9-0.8-1.1-1.3c-0.3-0.4-1-0.3-1-0.9c0.4,0.3,1,0.4,1.5,0.4c1,1.4,2.1,2.8,3.4,4c0.6,0.6,1.4,1.3,2.2,2.1
			c0.9,0.9,1.7,1.8,2.6,2.7l0.6,0.5c0.6,0.6,1.2,1.4,2.2,1.9c0.4,1.1,1.6,1.5,2,2.6c1.1,0.3,1.2,1.4,2.3,1.7V24c0.9,0.2,1,1.5,2,1.3
			c0.1-0.4-0.6-0.2-0.7-0.5c-2.8-4-6-7.7-9-11.6c-0.2-0.2-0.6-0.3-0.8-0.5c-0.1-0.7-0.7-1.1-1-1.7c-1.2-1.1-2.2-2.5-3.4-3.7
			l-0.4-0.4l-0.2-0.2c-0.4-0.4-0.7-0.9-0.6-1.4c1,0.3,1.2,1.1,1.6,1.8c0.6,0.9,1.6,1.8,2.3,2.8l0.5,0.6c0.6,0.7,1.2,1.5,1.9,2.1
			c-0.2,0.4,0.3,0.4,0.3,0.7c0.3,0.2,0.5,0.5,0.8,0.6l0.2,0.4c0.2,0.4,0.4,0.8,0.9,0.9c0.7,1.4,2,2.3,2.6,3.7
			c1.6,1.3,2.2,3.1,3.9,4.1c0.2,0.2,0,0.7,0.5,0.6s-0.1-0.7-0.5-0.7c0.1-0.4-0.2-0.5-0.1-0.9l-0.3-0.4c-0.4-0.4-0.6-0.7-0.6-1.3
			c-0.1-0.1-0.3-0.2-0.4-0.2c-0.9-1.9-1.9-3.7-3-5.4c-0.7-1.1-1.6-2.1-2.2-3.3c0.8,0.2,1,0.9,1.4,1.4c0.9,1.3,1.6,2.5,2.4,3.8
			c0.3,0.5,0.8,1.1,1,1.9c0.2,0.2,0.3,0.5,0.7,0.5c0.2,1.3,1.2,2,1.6,3.1c0.6,0.4,0.7,1.1,1.4,1.3c-0.4-1.2-0.4-1.9-1.2-2.7
			c0-0.2-0.1-0.4,0.1-0.4c-0.9-1.1-1.8-2.8-2-4c-0.1-0.1-0.2-0.2-0.4-0.2c-0.5-1.9-2-3.2-2-5c1,0.4,1.1,1.4,1.5,2.3
			c0.2,0.4,0.7,0.8,0.8,1.1c0.3,0.6,0.2,1.2,0.6,1.8l0.1,0.2c0.3,0.4,0.7,1.1,0.9,1.8c0.2,0.4,0.6,0.9,0.5,1.6
			c1.1,1.1,1.6,2.6,2.3,4c0.6-0.5-0.6-0.9-0.3-1.9c-0.2-0.5-0.7-0.7-0.4-1.2c-0.9-1.6-1.4-2.9-1.9-4.7c0.3,0,0.4-0.1,0.5-0.1
			c0-0.1-0.3-0.1-0.5-0.1c-0.6-1.5-1.1-2.9-1.5-4.7c1.2,0.2,0.8,1.7,1.5,2.4c-0.1,0.1,0.2,0.5-0.1,0.5c0.7,0.7,0.6,2,1.4,2.7
			c0,0.2-0.1,0.3-0.3,0.4c0.5,0.2,0.6,0.9,1,1.2c0,1.3,0.9,2.8,1.4,4.1c0.1,0.3-0.2,0.4-0.3,0.6c0.1,0.1,0.6-0.1,0.8,0.2
			c0.5-0.9-1-1.9-0.3-2.8c-0.6-1.4-0.8-2.7-1.1-4.1c0.1-0.3-0.4-0.3-0.4-0.5c0-0.9-0.1-1.7-0.4-2.6c0-0.2-0.4-0.5-0.4-0.6
			c-0.2-0.6,0-1.2-0.1-1.9c-0.3-1.3-1.1-2.6-0.8-3.9c0.8,0.3,0.5,1,0.5,1.4c0.1,0.6,0.4,1.3,0.5,2c0.1,0.5,0,1,0.1,1.4
			c0.3,1,0.9,1.9,1.1,2.9c0.1,0.6,0.1,1.2,0.3,2c0.1,0.2,0.2,0.1,0.3,0.3c0.5,1.1,0.3,2.6,1.1,3.5c-0.3,0.8,0.5,1.4,0.1,2
			c0.4,0.1,0.2,0.5,0.7,0.5c-0.2,0.3,0.2,1-0.1,1.3c0.1,0.2,0.5,0.1,0.4,0.4c0.3-0.1,0.7-0.1,0.5-0.5c0.4,0,0.5,0.3,0.8,0.3
			c0.3-0.5-0.2-1-0.1-1.6c0-0.1,0.3-0.3,0.3-0.4c0-0.3-0.3-0.4-0.3-0.6c0-0.8,0.2-1.7,0.1-2.5c0-0.5-0.2-0.9-0.1-1.4
			c0-0.1-0.3-0.6,0.1-0.5c-0.6-0.9-0.3-2-0.4-3.1c-0.2-2.2-0.2-5.9-0.5-7.8c-0.2-1.4,0-3.3-0.1-4.9c0-0.6-0.5-1.3,0.1-1.8
			c0.7,0.7,0.2,2.6,0.3,3.8c0,0.3,0.1,0.5,0.1,0.8c0,1.8,0.3,3.4,0.3,5c0,0.4,0.4,0.5,0.4,0.8c0.1,0.2-0.3,0.1-0.3,0.3
			c0.4,1.5,0.2,3,0.3,4.5c0.1,0.8,0.6,1.6,0.5,2.3c0,0.6-0.5,1.4,0.1,2.2c0,0.3,0,0.4-0.4,0.4c0.1,0.2,0.5,0.2,0.5,0.4v0.1l0.1-0.2
			c0.4-1,0.5-2.6,0.3-3.6c-0.1-0.5,0.1-0.9,0.1-1.6c0.3-2,0-3.7,0.3-6.2c0.1-0.6,0.2-0.9,0.1-1.7c0-0.3,0.2-0.7-0.1-0.9
			c0.6-1.3,0.1-2.8,0.4-4.1c0-0.1,0.3-0.4,0.3-0.5C146.5,1.2,145.9,0.4,146.8,0z M122,65.1c0,0.4-0.2,0.6-0.7,0.6
			C121.5,65.5,121.4,65.1,122,65.1z M133.8,45.8c0,0.2,0.1,0.2,0.1,0.3c-0.3,0.6-1,1-1.2,1.7c-0.7,0.5-0.9,1.4-1.8,1.8
			c-0.1,0.6-0.7,0.5-0.5,1.1c-1.3,0.9-2,2.3-2.9,3.6c-0.9,0.3-1,1.3-1.9,1.7c-0.6,1.3-1.8,2.2-2.7,3.3c-0.9,1.1-1.6,2.2-2.7,3.2
			c0.1,0.3-0.1,0.4-0.1,0.6c-1.1,0.7-1.6,1.9-2.6,2.7c0.3-1.2,2.4-2.6,3-4.2c1.5-1.3,2.4-2.9,3.7-4.3c0.6-0.7,1.3-1.4,1.9-2.1
			c0.6-0.7,1-1.5,1.9-2.1c0.2-0.8,0.8-1.4,1.5-1.9c0.1-0.7,0.5-1.1,1.1-1.4c0.6-1.5,2-2.4,2.9-3.7C133.5,45.8,133.6,45.7,133.8,45.8
			z M147.7,50.2c0.7,0.5,0.8,1.3,1.2,2.1l1.3,2.5c0.3,0.6,0.6,1.1,0.9,1.7c0.4,0.7,0.9,1.3,1.2,2c0.1,0.1-0.1,0.3-0.1,0.3
			s0.1,0.1,0.1,0.2l0.6,0.8c0.1,0.2,0.3,0.4,0.5,0.5c-0.2,0.6,0.4,1.4,1,1.8c-0.1,1.3,1.5,2.4,1.5,3.6c-0.7-0.2-0.5-1.2-1.2-1.4
			c-0.5-1.7-1.6-3.2-2.4-4.9c0-0.1,0-0.2,0-0.3C150.7,56.1,148.9,53.2,147.7,50.2z M135,62.9c-0.2,1-0.9,1.6-1.2,2.5
			c-0.6-0.3,0.1-1.2,0.3-1.6c-0.1-0.5,0-0.8,0.3-1C134.7,62.8,134.9,62.8,135,62.9z M138.6,58.6c0.7,0.7,0.1,1.6,0.1,2.3
			c0,0.2-0.1,0.4-0.4,0.5c0.3,0.3,0.2,0.6-0.1,0.8c0,0.2,0.4,0.1,0.3,0.4c-0.6,0.8,0,2.4-1.4,2.6C137.6,62.8,137.8,60.8,138.6,58.6z
			 M151.2,64c0.2,0.5,0.3,0.9,0.1,1.2c-0.7,0-0.6-1-0.5-1.2C150.8,64,151.2,64,151.2,64z M123.5,63.1c-0.4,0.7-0.9,1.2-1.4,1.9
			c-0.5-0.4,0.9-1.1,0.8-1.9H123.5z M117.9,60.4c0.1,0.1,0.2,0.1,0.4,0.1c-0.5,0.8-1.2,1.5-2,2.1c0.2,0.6-0.7,1.1-1,1.7
			c-0.4-0.2-0.7,0.1-1.1-0.1c0.8-0.7,1.7-1.3,2.2-2.3l0.3-0.2C117.2,61.4,117.7,61,117.9,60.4z M149.6,60.9c1,0,0.5,1.1,1.1,1.4
			c-0.2,0.4-0.1,0.4-0.3,0.7c0.1,0.2,0.2,0,0.4,0c0,0.5,0.4,0.6-0.1,0.9C150.1,63.2,149.8,62.1,149.6,60.9z M158.1,63.8
			c-0.4,0-0.3-0.4-0.5-0.5C157.8,63,158.2,63.5,158.1,63.8z M153.1,48.8c0.8,0.9,1.9,1.9,3,3l1.6,1.7l0.7,0.7c0.5,0.6,1,1.1,1.4,1.6
			c0.1,0.2,0.5,0.3,0.7,0.4c0.2,0.3,0.4,0.6,0.7,0.9l0.2,0.1c0.6,0.5,1.4,1.4,1.9,2.1c0.3,0.4,0.7,0.7,1.1,1.1
			c0.5,0.5,0.9,1.1,1.5,1.7c0.6,0.6,1.8,0.9,1.8,1.8c-1.2-0.2-1.7-1-2-1.9c0.1-0.3-0.6,0.1-0.5-0.2c-0.6-0.8-1.3-1.5-2.2-2.1
			c-0.3-0.8-0.8-1.4-1.6-1.8c-0.6-1-1.5-1.9-2.4-2.8c-1-1-2.1-2.3-3.3-3.4c-0.1-0.1-0.4-0.2-0.5-0.3c-0.3-0.9-1.4-1.2-1.6-2.2
			c-0.8-0.5-1.6-1.1-1.9-2C151.9,46.8,152.6,48.2,153.1,48.8z M130.1,62.7c0.6,0.1-0.1,0.6-0.1,0.8C129.7,63.4,130.2,63,130.1,62.7z
			 M142.9,47c0.9,1.6,1.1,3.9,1.5,5.9c0.1,0.3,0.1,0.1,0.1,0.5s0.2,0.7,0.4,1.1c0.2,0.7,0.1,1.6,0.3,2.4c0.1,0.3,0.2,0.5,0.3,0.7
			c0.2,0.7,0.2,1.6,0.3,2.5c0,0.3,0.3,0.5,0.4,0.8c0.1,0.3-0.2,0.5-0.1,0.7c0.1,0.6,0.8,1.1,0.3,1.8c-0.7-0.5-0.4-1.3-0.5-1.9
			l-0.7-3c-0.1-0.5,0-1-0.1-1.4c-0.1-0.3-0.3-0.7-0.4-1c-0.1-0.8-0.1-1.5-0.3-2.3c-0.4-1.9-0.9-3.6-1.4-5.5
			C142.8,47.9,142.7,47.4,142.9,47z M170.6,61.8c0.8,0,1.4,0.2,1.4,0.8c-0.2,0-0.4,0.1-0.4,0.2C171.1,62.6,170.8,62.3,170.6,61.8z
			 M139,48.6c-1.9,4.3-2.5,9.6-4.4,14c-0.7-0.8,0.3-1.7,0.5-2.5c0.1-0.4,0-0.8,0.1-1.1c0.1-0.5,0.5-1,0.7-1.8
			c0.4-1.2,0.5-2.6,1.2-3.9c0-0.2-0.2-0.3-0.1-0.6c0.7-1.1,0.9-2.5,1.4-3.7c0-0.2,0.1-0.2,0.1-0.3h0.5V48.6z M156.9,61.8
			c0.3,0,0.2,0.3,0.4,0.3C157.4,62.8,157,62,156.9,61.8z M127.5,57.1c-0.5,1.5-1.8,2.5-2.6,3.7c0,0,0.2,0.2,0.1,0.2
			c-0.4,0.2-0.7,0.9-1.2,1.2c-0.3-0.3,0.2-0.8,0.5-0.9c0.1-0.4,0.3-0.9,0.5-1.2c0.1-0.2,0.4-0.2,0.5-0.3c0.3-0.3,0.4-0.9,0.7-1.3
			l0.2-0.3c0.3-0.4,0.6-0.7,1-0.9L127.5,57.1z M130.9,61.2c0.4,0.3-0.3,0.6-0.3,1C130.2,61.9,131,61.6,130.9,61.2z M156.6,61.3
			c0.2,0,0.3,0.1,0.3,0.3C156.7,61.5,156.6,61.5,156.6,61.3z M174.2,60.2c0.4,0.4,1.6,0.7,1.4,1.2l-0.6-0.3l-0.2-0.1
			C174.4,60.8,174,60.6,174.2,60.2z M151.7,53.6c1.6,1.6,2.3,3.8,3.8,5.4c0,0.8,0.7,1.1,0.8,1.8c-0.9-0.6-1.1-1.7-1.6-2.5
			c-0.5-0.7-1-1.5-1.5-2.2c-0.2-0.3-0.2-0.6-0.7-0.7C152.6,54.6,151.9,54.3,151.7,53.6z M148.6,57.3c0.5,0.9,0.3,1.4,0.9,2.1
			c0,0.2,0,0.4-0.3,0.4l0.1,0.1l0.1,0.1c0.2,0.2,0.4,0.4,0.2,0.6c-1.1-0.7-1-2.2-1.5-3.3C148.1,57.3,148.6,57.3,148.6,57.3z
			 M134.5,53.8c-0.1,1.3-0.8,2.3-1.4,3.3c-0.5,1-0.9,2.2-1.6,3.3c-0.3-0.6,0.7-1,0.5-1.9C133.1,57.2,133.6,55.3,134.5,53.8z
			 M173.4,59.4c0,0.2-0.2,0.3,0,0.3c-0.2,0.2-0.5-0.3-0.7-0.4C172.9,59,173,59.5,173.4,59.4z M175.4,57.4c0.8,0.5,1.7,0.9,2.2,1.6
			C176.7,59.3,175.5,58.3,175.4,57.4z M138.7,58.1c0.3,0,0,0.4,0,0.4C138.3,58.4,138.8,58.3,138.7,58.1z M171.6,58.4
			c0,0.1-0.6-0.2-0.5-0.4C171.5,57.9,171.4,58.2,171.6,58.4z M138.8,56.8c0.4,0.3-0.1,0.7,0,1.1C138.6,57.8,138.7,57,138.8,56.8z
			 M112.5,57c0.2,0.2-0.6,0.6-0.8,0.8C111.5,57.6,112.2,57.3,112.5,57z M151.6,44c0.8,0.3,1.8,0.8,1.8,1.4c0.4,0.1,0.4-0.1,0.7-0.1
			c0.1,0.5,0.7,0.7,1.1,1c1.2,0.9,2.5,1.9,4.1,2.7c0.3,0.6,1.2,0.8,1.5,1.4c0.3,0,0.3,0.2,0.7,0.2c0.1,0.5,0.8,0.5,1,1
			c1.6,0.8,2.8,1.9,4.1,2.9c0.9,0.2,1.8,0.9,2.6,1.4c0.6,0.4,1.3,1,1.5,1.6c-1.1-0.5-2-1.1-2.7-2c-1.6-0.5-2.1-1.7-3.7-2.2
			c0-0.2-0.2-0.2-0.1-0.4c-3.4-2.5-7.1-4.7-10.3-7.3c-0.9-0.3-1.4-0.9-2.2-1.3C151.4,44.2,151.6,44.1,151.6,44z M175.1,57.1
			c-0.1,0.3-0.4-0.1-0.5-0.1C174.7,56.7,174.9,57.1,175.1,57.1z M114.1,55.7c0.4,0.3-0.6,0.5-0.7,0.8
			C113.1,56.2,113.8,55.9,114.1,55.7z M110,55.3c0.2,0.1-0.7,1-1.5,1C108.7,55.7,109.7,55.4,110,55.3z M175.4,53.8
			c1.2,0.9,2.9,1.4,4.1,2.4c-1.7-0.1-2.6-1.6-4.3-2c-0.1-0.1-0.1-0.2-0.1-0.4H175.4z M115.6,54.6c-0.2,0.5-0.7,0.6-1.1,0.9
			C114.3,55.3,115.1,54.8,115.6,54.6z M114.5,52.2c-0.7,1-2.5,2.1-3.9,2.8C111.9,54,113.2,53.1,114.5,52.2z M116.5,53.7
			c0.3,0.1-0.1,0.5-0.4,0.5C116.1,53.9,116.5,54,116.5,53.7z M116.9,53.4c0.2,0.1,0,0.2,0,0.3C116.7,53.6,116.9,53.5,116.9,53.4z
			 M135.6,52c-0.4,0.6-0.4,1.4-1.1,1.8c0.3-0.6,0.6-1.2,0.8-1.9C135.5,51.8,135.5,51.9,135.6,52z M105.7,50.9c0.1,0,0.1,0.1,0.1,0.2
			c-0.6,0.6-1.4,1-2,0.9c-0.2,0.3-0.5,0.5-0.8,0.7c-0.4,0.1-0.4-0.2-0.8-0.1c-0.3,0.1-0.1,0.5-0.4,0.6c-0.4,0-0.4-0.3-0.4-0.6
			C102.9,52.2,104.1,51.5,105.7,50.9z M119.5,51.2c0.6,0.3-0.5,0.8-0.8,1c-0.5,0.3-0.8,1-1.4,1C118,52.5,118.8,52,119.5,51.2z
			 M116.1,51.2l-0.3,0.2c-0.3,0.2-0.6,0.5-1.1,0.6C115.2,51.8,115.3,51.3,116.1,51.2z M137.5,48c-0.5,1.3-1.2,2.4-1.8,3.7
			c-0.1-1.3,0.9-2.5,1.4-3.7H137.5z M167.5,47.7c2.3,1,5,1.7,7.1,2.9c0.7,0.1,1.2,0.3,1.4,0.7c-1,0.1-1.5-0.5-2.2-0.8
			c-1.9-0.9-4-1.7-6.3-2.5c0-0.2-0.1-0.3-0.3-0.3C167.3,47.6,167.5,47.6,167.5,47.7z M122,49.6c-0.2,0.5-1.2,1.3-2,1.7
			C120.3,50.4,121.3,50.2,122,49.6z M116.9,50.5c0,0.4-0.5,0.4-0.7,0.6C116.1,51,116.4,50.4,116.9,50.5z M141.7,48.5
			c0.6,0.5,0.6,2.2,0,2.5C141.9,49.9,141.2,49.6,141.7,48.5z M115.3,46.4c-0.2,0.7-1.1,0.8-1.8,1c-1.5,1.1-3.5,1.7-5.3,2.5
			c-0.7,0.3-1.1,1-2,0.9c0.4-1,2.2-0.8,2.7-1.7c2.3-0.7,3.9-2,6-2.9C115.1,46.2,115.1,46.4,115.3,46.4z M100.9,49.6
			c0,0.4-0.5,1.6-1.8,1.1C99.1,49.9,100.3,49.9,100.9,49.6z M117.2,50.2c0.2,0.1,0,0.2,0,0.3C117,50.4,117.2,50.3,117.2,50.2z
			 M118,49.7c0.1,0.3-0.4,0.3-0.4,0.5C117.3,50,117.7,49.6,118,49.7z M146.8,48.6c0.5,0.2,0.5,0.8,0.7,1.3l-0.2-0.1
			C147,49.6,146.6,49.1,146.8,48.6z M117.6,43.3c-0.9,0.8-2.4,1.1-3.8,1.6c-1.1,0.8-2.5,1.2-3.9,1.7c-1.1,0.9-3.2,1-4.2,2
			c-1,0-1.3,0.5-2.2,0.6c-0.4,0.3-1.3,1-1.9,0.5c3.3-1.4,6.7-2.6,10.1-4c0.7-0.3,1.5-0.5,2.3-0.8C115.2,44.3,116.2,43.5,117.6,43.3z
			 M119,49.2L119,49.2c-0.2,0.2-0.3,0.3-0.6,0.3c0.1-0.1,0.1-0.2,0.1-0.3H119z M138.7,48.2c0.1,0,0.1,0.2,0.3,0.2
			C138.9,48.7,138.5,48.4,138.7,48.2z M120.2,48.1c0.2,0,0.1,0.2,0.1,0.3h-0.4C119.9,48.2,120.2,48.3,120.2,48.1z M139.2,47
			c0.3,0.3,0,0.9-0.4,1C138.6,47.7,138.9,47.2,139.2,47z M122.9,46.5c0.2,0.4-1,0.6-1.1,1.1c-0.5,0-0.5,0.3-1,0.3
			C121.5,47.4,122,46.8,122.9,46.5z M183.1,47.6c-0.7-0.1-1.4-0.2-1.8-0.5C181.8,47,182.9,47.2,183.1,47.6z M101.9,45.9
			c0,0.4-0.7,0.2-0.8,0.4c-0.6,0.6-1.5,1-2.7,1.1c-0.1-0.1-0.1-0.3-0.3-0.3C98.9,46.2,100.5,46.1,101.9,45.9z M179.6,46.5
			c0.4,0.1,1,0.3,1.2,0.5c-1.1-0.1-2-0.3-2.9-0.6C178.4,46.2,179.1,46.4,179.6,46.5z M139.6,45.4c0.6,0.3,0,1.1-0.3,1.4
			C138.6,46.6,139.4,45.8,139.6,45.4z M117.8,44.9c0.2,0,0.4,0.1,0.4,0.2c-0.3,0.7-1.9,0.4-2,1.2c-0.4-0.1-0.4,0.1-0.7,0.1
			C115.7,45.6,117,45.5,117.8,44.9z M177.3,46.1c0.2,0,0.3,0.1,0.5,0.1C177.9,46.3,177.1,46.3,177.3,46.1z M107.7,44.1
			c0.2,0,0.1,0.2,0.1,0.3c-1.9,0.6-3.5,1.4-5.7,1.8c0-0.4,0.4-0.4,0.4-0.7C104.4,45.1,106.1,44.6,107.7,44.1z M142.4,27.1
			c-1,2.3-3.1,3.8-5.3,5.2c-0.5,0.1-1,0.3-1.5,0.1c-1.2,1.7-0.3,3.1-0.4,5.3c0.4,0.2,0.4,0.5,0.3,0.9c0.6,0.4,1.1,0.9,1.2,1.7
			c0.3,0.1,0.5,0.3,0.7,0.5c0.4,1,2,1.6,2,2.6c0.5,0,1.7,0.2,2,0.7c-0.3,0.4-0.3,0.9,0.1,1.1c0.4-0.4-0.1-1,0.4-1.2
			c1.1,0.3,2.3,0.2,2.7-0.5h0.4c0.2-0.6,1.4-0.3,1.5-0.9c-0.2-0.3-0.6,0.2-0.7-0.2c0.5-0.2,0.7,0,1.4-0.1c0.3-0.3-0.4-0.5,0-0.8h0.2
			h0.3c0.3,0,0.5,0,0.5-0.2H148c-0.2,0-0.3-0.1-0.3-0.3c0.2,0,0.2-0.2,0.4-0.2c0.2,0.2,0.3,0.2,0.7,0.1c0-0.6-1.1-0.2-1-0.8
			c0.5,0,0.7,0.2,1.4-0.1c0.1-0.2-0.2-0.2-0.1-0.5c0.1-0.2,0.6-0.1,0.8-0.3c-0.4-0.1-0.5-0.4-1-0.5c0.3-0.1,0.6-0.5,1-0.2
			c0-0.4-0.9-0.4-0.8-0.6c0.1-0.3,1.5-0.4,1.6,0.3c0.1-0.1,0.3-0.7,0-0.7c-0.2,0.3-1,0.1-1.1-0.2c-0.1-0.6,0.8,0,0.7-0.4
			c-0.5,0-0.9-0.4-1.4-0.6c-1.2,0.7-2.9,0-3.8-0.4c0.4-0.8,1-1.3,2.6-1.1c0.3,0.5,1.8,0.3,2.2,0c0-0.2-0.6,0-0.8-0.1
			c0,0.2-0.1,0.3-0.3,0.3c-0.9-0.7-2-0.6-3.4-0.3c0,0.4-0.3,0.6-0.7,0.7c-0.2,0.3,0.1,1-0.4,1.2c-0.6-2.1,1-3.4,3.7-3.1
			c0.7,0.1,0.6,0.7,1.5,0.6c-0.4-0.5,0.2-0.6,0.3-0.9c-0.3-0.3-0.6-0.6-1-0.8c0.2,0,0.3,0,0.3-0.2c-1-0.5-2.6-0.5-2.7-1.8
			c-0.2-0.1-0.4-0.2-0.5-0.4c-1.1,0-1.7-0.5-2.3-0.9C143.1,28.2,143.2,27.3,142.4,27.1z M125.2,41.8c-2.1,0.6-3.4,1.8-5.4,2.5
			c-0.3,0.2-0.7,0.8-1.2,0.6c-0.1-0.5,0.4-0.5,0.8-0.6c1-1,2.7-1.5,4.1-2.2c0.2-0.2,0.4-0.4,0.7-0.5c0.2,0,0.3,0.1,0.3,0.2
			c0.2-0.2,0.3-0.4,0.5-0.5C125.4,41.2,125.2,41.6,125.2,41.8z M148.1,43.1c-0.3,0.2,0.2,0.3-0.1,0.5c1,0.1,0.9,0.9,1.5,1.2
			c0-0.4,0.4,0.2,0.4-0.1C149.1,44.1,149.3,43.3,148.1,43.1z M122.5,39.6c-1.7,0.9-3.4,1.2-5.2,1.7c-1.4,0.4-2.7,1.1-4.4,1.3
			c-1.5,0.7-3.2,1.2-5,1.7c0.5-0.5,1.5-0.7,2.3-0.9l1.3-0.4l3.6-1.1c0.9-0.3,1.7-0.8,2.3-0.6c0.2-0.1,0.4-0.2,0.5-0.4
			C119.7,40.6,121,39.6,122.5,39.6z M135.7,44c0,0.1-0.2,0.1-0.1,0.3h0.3C136,44.2,136,44,135.7,44z M136.4,44
			c0,0.2-0.3,0.1-0.3,0.3c0.2,0,0.5,0,0.5-0.1C136.5,44.2,136.5,44,136.4,44z M150.4,43.8h-0.2c-0.2,0-0.4,0.1-0.4,0.3
			C150.2,44.1,150.4,44.1,150.4,43.8z M136.2,43c0.1,0.1,0.1,0.9,0.4,0.5c-0.2,0,0-0.1,0-0.3C136.4,43.2,136.4,43,136.2,43z
			 M101.4,42.9c-0.2,0.5-1.1,0.5-1.9,0.6C99.7,42.9,100.7,42.9,101.4,42.9z M138,42.9c-0.1,0.1-0.3,0.5,0,0.5
			C138.1,43.3,138.3,42.9,138,42.9z M115.3,40c-4.7,1-9.1,2.2-13.6,3.1c-0.2-0.5,0.7-0.4,1.1-0.5c1.4-0.3,3.4-0.6,4.5-1.1
			c2.8-0.4,5.2-1.1,7.7-1.7C115.3,39.7,115.3,39.8,115.3,40z M150.4,42.4c0.8-0.2,0.4,0.4,0.5,0.4c0-0.1,0.2-0.1,0.4-0.1
			C151.4,42.4,150.5,42,150.4,42.4z M102.4,40.2c-0.4,0.2-0.9,0.3-1.5,0.4C100.8,40,101.8,40.2,102.4,40.2z M104.2,39.9
			c0,0.4-0.9,0.1-1.1,0.3C103,39.8,103.9,40.1,104.2,39.9z M156.4,39.9c0.3,0,0.5,0,0.5-0.2C156.7,39.7,156.2,39.5,156.4,39.9z
			 M185.2,39.3c1.1,0.1,2.2-0.3,2.7,0.4c-3.9-0.2-7.7-0.4-11.6-0.7C179.2,38.7,182.3,39.1,185.2,39.3z M154.5,39.5
			c0.2-0.2,0.8,0.1,1.1,0.2C156.2,39.1,153.9,38.9,154.5,39.5z M130.3,38.5h-0.7c0.1,0.4-1.2,0.4-0.7,0.8
			C129.2,38.9,129.9,38.9,130.3,38.5z M132.8,38.9c0.1,0,0.2,0,0.1,0.1h0.3c0-0.1,0.1-0.2,0.1-0.3C133.1,38.7,132.9,38.7,132.8,38.9
			z M155.6,38.2c0.1,0.5-0.8,0.1-0.8,0.5h0.8C155.6,38.6,155.9,38.2,155.6,38.2z M121.7,38.2c-0.2,0.3-0.5,0.4-1.1,0.4
			C120.8,38.3,121.2,38.2,121.7,38.2z M115.2,38c-0.7,0.4-1.9,0.4-2.9,0.6c0-0.3,1.4-0.3,1.8-0.6H115.2z M105.1,37.5
			c-0.2,0.4-1,0.5-1.6,0.6c-1.2,0.2-2.8,0.2-3.8,0.2c0.1-0.8,1.2-0.6,1.9-0.6l0.9-0.1C103.3,37.5,104.2,37.5,105.1,37.5z
			 M151.9,37.8c0,0.2,0.1,0.3,0.3,0.4C152.2,38,152.1,37.8,151.9,37.8z M155.8,38c0.3,0.1,1.9,0.1,2.2-0.2
			C157.3,37.6,156.2,37.5,155.8,38z M130.8,37.1c-0.4,0-0.3,0.4-0.4,0.6c0.4-0.1,0.3,0.2,0.5,0.2l-0.1-0.2
			C130.8,37.5,130.8,37.3,130.8,37.1z M152.3,35.8c-0.1,0.5,0.5,0.5,0.5,0.8c-0.2,0.9,1.4,1.4,2.4,0.8V37c-0.1-0.2-0.6,0-0.7-0.2
			c0.2-0.3-0.3-0.4,0-0.8c-0.5-0.1-0.7,0.2-1.6,0.1C152.7,36,152.7,35.7,152.3,35.8z M124.8,37.4c0,0.1-0.2,0.1-0.3,0.2
			c0.2,0,0.2,0.1,0.4,0.1C124.9,37.6,125,37.4,124.8,37.4z M115.2,36.2c0.2,0,0.1,0.2,0,0.2c-0.1,0.2-0.6,0.2-1,0.2h-0.1
			c-0.4,0-0.9,0.1-1.4,0.1l-1.1,0.1c-0.6,0.1-1.1,0.2-1.2,0.4c-1.4-0.4-3.6,0.6-5.2,0.3c1.2-0.5,2.8-0.5,4.5-0.6
			C111.3,36.8,113.5,36.5,115.2,36.2z M133.5,35.9h-0.4h-0.3c-0.6,0-1.2,0.2-1.5,0.6c0.5,0.2,0.8-0.1,1.2,0.2
			c-0.1,0.2-0.6,0.2-0.8,0.3c0.1,0.3,0.4,0.4,0.8,0.4l0.5-0.8C133.2,36.4,133.3,36.2,133.5,35.9z M156,37.3c0.8,0.1,2.4,0.1,3-0.3
			l-0.5-0.1h-0.4C157.2,36.8,156.2,36.8,156,37.3z M185.6,37.1c-0.6-0.1-1.3,0.3-1.8,0C183.8,36.6,185.7,36.5,185.6,37.1z
			 M100.5,35.2c0.2,0.5-0.4,0.4-1,0.4L99,35.8c-0.9,0.3-2,0.5-2.7,0C96.9,35.1,99.2,35.3,100.5,35.2z M149.4,35.8
			c-0.1,0.4,0.5,0.1,0.8,0.2C150.4,35.6,149.6,35.7,149.4,35.8z M154.5,33.5c-0.6,0.4-1.5,0.6-2.6,0.6c0.1,1,0.9,1.5,2.2,1.6
			c0.3-0.3,0.7-0.4,1-0.7c-0.6-0.2-2.4,0.4-2.2-0.4c0.2,0.1,0.3,0.3,0.8,0.2c-0.1-0.5,0.7-0.4,1-0.6
			C154.4,33.8,155.1,33.5,154.5,33.5z M129.6,32.8c0.6,0,0.5,0.8,0.4,1.2h0.2c0.2,0,0.3,0.1,0.3,0.3s-0.2,0.2-0.5,0.2
			c0.2,1.1,2.4,1.5,3.1,0.5c-0.4-0.1-0.8,0.3-1,0.1c0.1-0.2,0.5-0.3,0.7-0.5c-0.5-0.1-0.9,0-1.4-0.2c-0.3-0.2-0.6-0.2-0.8-0.4l0,0
			l0,0c0.1,0,0.1-0.6-0.1-0.7c1.3,0.2,2.1,0.8,3.4,1c0.5-0.9-0.5-0.9-0.1-1.8h-0.2h-0.1h-0.2c-0.1,0-0.2,0-0.5,0
			c-0.1,0.4-0.9,0.3-1,0.7c-0.7,0-0.7-0.4-1.1-0.6c-0.1,0.3,0,0.3-0.4,0.5c0-0.2-0.2-0.2-0.3-0.3c-0.1-0.3,0.4-0.2,0.3-0.6
			C130,32.1,129.5,32.3,129.6,32.8z M133.8,34.8h-0.3c0,0.1-0.1,0.1-0.1,0.2c0.2,0,0.3,0.1,0.4,0.1L133.8,34.8L133.8,34.8z
			 M161.1,33.7c-1.9,0.3-3.8,0.7-5.3,1.2c1.2,0.1,2.3-0.2,3.4-0.5C159.9,34.3,160.9,34.2,161.1,33.7z M157.7,34
			c-0.4,0.1-1,0-1.1,0.3C156.9,34.4,157.6,34.3,157.7,34z M162.5,32.1c-1,1-3.5,0.9-4.6,1.9c1.3,0.2,2-0.8,3.7-0.7
			c0.3-0.4,1.1-0.5,1.4-0.6c-0.4-0.1,0.4-0.1,0.1-0.4C162.8,32.2,162.8,32,162.5,32.1z M125.1,32.9c0,0.4-0.2,0.4,0,0.7
			c1.1-0.2,2.7,0.2,3.7,0.1c0.2-0.3-0.4-0.6-0.7-0.8c-0.5,0,0,0.5-0.3,0.5c-0.6-0.1-2.2,0.2-2.6-0.4C125.2,33,125.2,32.9,125.1,32.9
			z M154.5,31.3c0,0.2-0.2,0.2-0.5,0.2c-0.3,0.8-1.6,0.8-2.6,1.1c0.2,0.8,1.8,0.1,2.2,0.2c-0.6,0.5-1.7,0.6-2.3,0.3
			c0,0.7,1.8,0.6,2.6,0.3c0.4-0.2,0.5-0.7,0.8-0.7l-0.2-0.1c-0.2-0.1-0.3-0.2-0.4-0.4C154.1,31.9,154.8,31.6,154.5,31.3z M157.9,33
			h-0.2c-0.2,0-0.3,0.1-0.3,0.3C157.7,33.4,157.9,33.3,157.9,33z M161.1,32c-0.9,0-2.1,0.4-2.7,0.9l0.3-0.1l1.1-0.2l0.3-0.1
			C160.7,32.5,161.2,32.3,161.1,32z M161.7,30.6c-1.9,0.3-3.1,1.2-4.6,1.9c1,0.2,2-1,3-0.8c0-0.3,0.2-0.3,0.4-0.4
			C160.9,31.5,161.6,31.1,161.7,30.6z M131.4,29.5c-0.1,0.9,1,1,0.4,1.7c0-0.1,0-0.3-0.1-0.3c-0.2,0.6-1.8,0.1-1.5,0.8h0.3
			c0.6-0.1,1.5-0.2,2.2,0.2c0.1,0.8,0.9,0.6,1.6,0.7c-0.2-0.3,0.2-0.3,0.3-0.4c-0.3-0.5-1.2,0-1.6-0.4c0.4,0,1-0.3,1.8-0.1
			c0.2-0.5,1-0.5,1.1-1c-0.8-0.2-1.5-0.2-2.3-0.1C133.1,29.8,132.2,29.5,131.4,29.5z M151.1,29.7c-0.4,0.6-1.5,0-1.9,0.4
			c0.2,0.2,0.1,0.7,0.3,0.9c0.4,0.6,1.5,0.5,1.9,1h0.6c0.4-0.1,0.8-0.1,1.1-0.3c-0.1-0.4,0.4-0.9,0-1.2c-0.2,0.2-0.4,0.3-0.5,0.5
			c-0.2-0.2-0.1-0.5-0.1-0.8c-0.6,0.1-0.3,0.9-1.1,0.9c-0.1-0.5,0.4-0.5,0.3-1C151.4,29.9,151.3,29.7,151.1,29.7z M141.3,26.6
			c-0.2,0.9-0.5,1.8-1.1,2.4c-0.2,0-0.1-0.3-0.4-0.2c-0.7,1.3-1.8,2.4-4.1,2.5c0.6,1.4,1.8,0.3,2.3-0.1c0.3-0.2,0.7-0.3,1-0.5
			c1.1-1,2.2-2.3,2.7-3.1C141.5,27.3,141.6,26.7,141.3,26.6z M126.6,30.7c0.3,0,0.5,0,0.5-0.2C126.8,30.5,126.6,30.6,126.6,30.7z
			 M129.6,30.3c0-0.3,0.4,0.3,0.4-0.1c-0.1,0-0.2-0.1-0.1-0.2C129.6,29.9,129.2,30.3,129.6,30.3z M135,28.4c-0.3,0-0.3-0.1-0.4-0.2
			c-0.5,0.2-0.6,1.1-0.3,1.6c0.1-0.1,0.2-0.3,0.4-0.3c0,0.4,0.5,0.4,0.5,0.8h1.2c2-0.9,3.2-2.4,3.8-4.3
			C137.9,25.8,136.1,27.1,135,28.4z M143.7,26.4c0,0.5,0.1,0.5,0,0.9c0.9,0.3,2.1,0.4,2.6,1c-0.2,0.1-0.7-0.1-0.7,0.1
			c0.9,0.4,1,1.4,2,1.7c0.3-0.7-1.5-1.1-1.2-1.8c0.8,0.2,1,0.8,1.4,1.2c1-0.1,1.8-0.2,2.4,0c-0.2-0.4,0.2-0.5,0.3-0.7
			c-0.4-0.5-1.1-0.7-1.5-1.1c-0.2,0.3,0.4,0.5,0,0.6c-0.4-0.3-0.8-0.6-0.9-1C146.4,27.1,145.6,25.8,143.7,26.4z M144,27.9
			c-0.3,1.2,1.1,1.2,1.9,1.6C145.8,28.6,144.8,28.3,144,27.9z M131.2,29.1c0,0.1-0.2,0.1-0.3,0.2C131.1,29.5,131.6,29.2,131.2,29.1z
			 M151.2,27.7v0.2c0.1,0,0.2,0.1,0.3,0.1v-0.1C151.4,27.8,151.4,27.7,151.2,27.7z M133.8,27.5c0.3,0,0.4-0.1,0.4-0.3
			C133.8,27.2,133.9,27.4,133.8,27.5z M154.2,27.1h-0.3v0.2h0.3V27.1z M153.2,26.3c-0.1,0.2-0.3,0.3-0.3,0.5
			C153.4,26.9,153.6,26.4,153.2,26.3z M144.9,25.5c0.3,0.5,1.3,0.4,2,0.5c-0.1,0.3,0.7,0.4,0.8,0.2C147.1,25.8,146,25.6,144.9,25.5z
			 M142.8,25.6c0.1,0.2-0.2,0.5,0.1,0.5C142.9,25.9,143.3,25.5,142.8,25.6z M154.1,24.2l-0.3,0.4c-0.3,0.4-0.5,0.8-0.5,1.4
			c1.1,0.1,0.9-0.9,1.4-1.3C154.5,24.4,154.2,24.4,154.1,24.2z M111.1,25.8c0,0.2-0.5-0.1-0.7-0.1C110.1,25.5,111,25.7,111.1,25.8z
			 M137.6,23.9c-0.2,0.2,0.1,0.2-0.1,0.4c0.7,0,0.4,0.8,1.1,0.8C138.3,24.7,138.1,24.2,137.6,23.9z M165.1,20.4v0.5
			c-0.3,0-0.2,0.3-0.5,0.2c-0.5,0.9-1.9,1.7-2.7,2.6c-0.4,0.5-0.5,1.1-1.4,1.3c0.3-1.2,1.8-2.2,2.7-3.2c0.1-0.1-0.1-0.2,0-0.3
			C163.6,21.1,164.3,20.5,165.1,20.4L165.1,20.4z M139.2,24.5c0,0.1-0.1,0.2-0.1,0.3c0.4,0,0.3-0.2,0.5,0
			C139.7,24.6,139.4,24.6,139.2,24.5z M141.1,23.7c0.1,0.4,0,0.9,0.4,0.9C141.5,24.2,141.4,23.9,141.1,23.7z M144.9,22.4
			c-0.3,0.1-0.5,0.8,0.1,0.7l0.1-0.1C145.2,22.7,145.2,22.5,144.9,22.4z M151.4,22.2L151.4,22.2v0.1l0,0V22.2z M156.4,2
			c0.1,0.4-0.3,0.3-0.3,0.6c-0.1,1.9-0.9,3.6-1.2,5.3c0,0.1-0.2,0.3-0.3,0.4c0,0.2,0.2,0.4,0.1,0.5c-0.1,0.2-0.3,0.3-0.4,0.5
			c-0.6,1.6-0.7,3.6-1,5c-0.4,1.7-0.8,3.3-1.2,5.1c-0.2,0.9-0.4,1.9-0.8,2.8v0.1v-0.1c-0.1-0.2-0.4-0.2-0.3-0.5
			c0.4-0.7,0.3-1.4,0.4-2.2c0.1-0.5,0.4-0.9,0.5-1.4c0.1-0.4,0-1.2,0.3-1.9l0.1-0.4c0.1-0.3,0.2-0.6,0.3-0.9
			c0.4-1.6,0.7-3.2,1.1-4.8c0.1-0.4,0.4-0.8,0.1-1.3c0.9-1.8,1-3.9,1.6-5.4c0.1-0.4-0.2-0.4-0.1-0.8C155.7,2.3,155.8,2,156.4,2z
			 M140.6,3c0.6,5.8,1.4,12.5,2.4,17.5c0.2,0.4-0.6,0-0.5,0.3c0.2,0.3,0.7-0.1,0.8,0.1c-0.2,0.2,0.2,0.8-0.1,1.1
			c-0.3,0-0.4-0.2-0.8-0.1c-0.1-0.8-0.8-2.6-0.3-3.4c-0.3-0.3-0.5-0.9-0.1-1.2c-0.1-0.2-0.4-0.3-0.4-0.6c-0.1-3.7-1.2-9.4-1.2-13.8
			C140.5,2.9,140.6,2.9,140.6,3z M144.8,20.8c0.2,0.5-0.5,0.9,0.1,1C144.8,21.4,145.4,21,144.8,20.8z M176.4,8.8
			c0.6,0.8-0.5,2.1-1.8,2.1c0,0.2,0.4,0,0.4,0.2c-0.7,0.6-1.1,1.4-2.2,1.7c-0.2,0.3-0.5,0.5-0.5,0.9c-1.8,1-2.6,2.9-4.5,3.8
			c-0.5,1.2-1.4,2-2.7,2.9c0.1-0.2-0.2-0.2-0.1-0.5c1.1-1,2.5-1.9,3.3-3.2c1-0.5,1.2-1.7,2.4-2c0.1-1.1,1.2-1.4,1.6-2.2
			c0.2-0.1,0.4-0.1,0.7-0.1c0.4-1.6,2.4-2.1,2.7-3.5C176,8.9,176,8.7,176.4,8.8z M177.4,12.9c0.2,0.4-0.4,0.5-0.7,0.7
			c-1.1,0.9-2.5,1.8-3.5,2.9h-0.4c-0.1,0.4-0.5,0.7-1,0.8l0.3-0.5c0.4-0.5,0.8-1.1,1.5-1c0.1-0.7,0.9-0.8,1.5-1.2
			c0.4-0.3,0.6-0.6,1-0.8c0,0,0.2,0.2,0.3,0.1C176.7,13.7,176.7,13,177.4,12.9z M170.8,10.8c-0.2,0.5-0.7,0.9-1.4,1
			c0.2,0.5-0.6,1.1-1.1,1.3c-0.2,0.7-0.9,1.1-1.4,1.8c-0.3,0-0.2-0.8,0.1-0.4c-0.1-0.8,0.3-1.2,1.1-1.3c-0.5-0.3,0.1-0.8,0.8-0.8
			c-0.6-0.5,0.5-0.8,0.7-1.3C170.1,11.5,170,10.5,170.8,10.8z M112.9,14.8c-0.5-0.2-0.7-0.5-1.2-0.6C112,14,112.7,14.5,112.9,14.8z
			 M109.6,12.7c0.8,0.2,1.2,0.8,1.9,1.1l-0.2-0.1l-0.2-0.1l-0.2-0.1C110.2,13.5,109.4,13.1,109.6,12.7z M180.8,10.9
			c-0.1,0.6-0.9,0.7-1.4,0.9c-0.5,0.4-0.8,0.9-1.6,0.9c0-0.5,0.4-0.5,0.8-0.6c0.4-0.6,1.3-0.8,1.6-1.3
			C180.6,10.7,180.7,10.8,180.8,10.9z M107.7,11.6c0.8,0.2,1.5,0.5,1.8,1c-1-0.1-1.7-0.5-2.2-1c-0.4-0.1-0.8-0.2-1-0.5
			C107,10.8,107.5,11.2,107.7,11.6z M152.7,6.8c-0.1,1.5-0.5,3.7-1,5.3c-0.5-0.2,0.2-1.6,0.1-1.9c0-0.6,0.2-1.1,0.3-1.7
			C152.2,8,151.9,7.2,152.7,6.8z M165.1,7.4c0.1,0.7-1,1.2-1.4,1.8c-0.1,0.2,0,0.4-0.1,0.6c-0.2,0.2-0.9,0.3-1,0.6
			c0.3,0.6-0.3,1.2-1,1.3c0.5-1.6,1.8-2.2,2.4-3.7C164.4,7.9,164.6,7.3,165.1,7.4z M133.4,11c-0.9,0.4-0.7-0.8-1.1-1.1
			C132.9,9.6,133.3,10.5,133.4,11z M160.2,9.8l0.7-1.2v0.1c0,0.1,0.1,0.1,0.2,0.2c-0.8,0.5-0.6,1.8-1.6,2.1
			C159.7,10.6,159.9,10.2,160.2,9.8z M134.2,4.1c0.6,2.7,1.1,4,1.9,6.8c-0.9-0.2-0.2-0.9-1-1.2c0.1-1.1-0.5-1.5-0.4-2.3
			c-0.3-0.4-1.1-1.1-0.7-1.8c-0.3-0.3-0.6-0.7-0.7-1.2c0.4,0.1,0.5,0,0.4-0.3C133.7,4.1,134.2,4.1,134.2,4.1z M125.8,3.6
			c0.1,0.1,0.5,0.2,0.5,0.3c0.2,0.3-0.1,0.7,0.4,0.9c0.2,1.4,1.5,2.5,2.2,3.7c0.1,0.2,0,0.4,0.1,0.6c0.3,0.5,0.8,0.9,0.8,1.4
			c-0.7,0-0.5-0.5-0.7-0.7c-1.2-1.8-2.6-3.7-3.8-5.6c-0.3-0.1-0.5-0.3-0.7-0.5c0.1-0.4,0.2-0.7,0.8-0.7
			C126.1,3.1,125.6,3.4,125.8,3.6z M173.1,7.3c0.2,0.1,0.2,0.3,0.4,0.4c0,0.5-0.6,0.6-1.1,0.8c0.1,0.2,0.5,0.1,0.4,0.4
			c-0.6,0.3-1.2,0.7-1.4,1.3c-0.3,0.1-0.5,0.3-0.9,0.3c0.1-0.3,0.5-0.5,0.8-0.7c0-0.1-0.2-0.1-0.4-0.1c0.1-0.2,0.6-0.2,0.8-0.3
			c0.1-0.4-0.3-0.3-0.3-0.6l0.4-0.4C172.2,8,172.6,7.7,173.1,7.3L173.1,7.3z M129.6,2.2l0.3,0.5c0.3,0.7,0.6,1.5,0.7,2.4
			c0.9,1.3,1.4,2.8,1.9,4.3c-0.8-0.3-0.7-1-1-1.4c-0.2-0.3-0.4-0.6-0.7-1c-0.5-1-1.2-2.5-1.9-3.8c-0.1-0.2-0.8,0-0.8-0.3
			C128.4,2.4,129,2.3,129.6,2.2z M161,8.5l-0.1,0.2l0,0c-0.2-0.3,0.1-0.3,0.2-0.5V8.1C161.3,8,161.2,8.2,161,8.5z M161.4,7.9
			c0.3,0.1-0.1,0.4,0,0.6C161,8.4,161.4,8.1,161.4,7.9z M158,6.2c0.2,0.7-0.2,1.8-0.8,2.2C157.4,7.7,157.6,6.8,158,6.2z M162.4,5.5
			c0.4,0.8-0.4,2.1-1.3,2.3C161.5,7,161.8,6.1,162.4,5.5z M136.7,1.7l0.4,1.7c0.3,1.2,0.6,2.4,0.5,3.5c-0.5-0.1-0.8-0.7-0.4-1
			c-0.7-1.2-0.9-2.6-1.4-4.2C136.3,1.5,136.3,1.7,136.7,1.7z M153.8,1.4c0,0.2,0.1,0.3,0.3,0.4c-0.3,0.4-0.1,0.7-0.5,1
			c0.1,0.9-0.4,1.6-0.5,2.4c-0.1,0.5,0.2,1-0.4,1.3l0.1-1c0.1-0.9,0.2-1.8,0.6-2.3c-0.4-0.5-0.3-1.2,0.1-1.9L153.8,1.4L153.8,1.4z
			 M159,3.6c0.1,0,0.2,0.1,0.3,0.2l-0.1,0.3L159,4.6c-0.2,0.5-0.4,1.1-1,1.4C158.4,5.3,158.4,4.2,159,3.6z M148.8,4
			c0,0.4-0.1,0.7-0.3,1C147.7,4.9,148,4,148.8,4z M149,1.2c0,0.4-0.3,0.5-0.4,0.8c0.5-0.5,0.3,1.1,0.3,1.4h-0.5
			c-0.4-0.7-0.1-1.6,0.1-2.2C148.5,1.2,148.8,1.3,149,1.2z M133.9,3.3c-0.4,0.1-0.6-0.7-0.8-0.1c-0.4-0.4-0.5-1.1-0.7-1.7
			C133.8,0.9,134.2,2.5,133.9,3.3z M149.2,0c0.3,0.2,0.1,0.8,0,1c-0.3-0.1-0.6-0.1-0.8,0.1C148,0.7,148.4-0.1,149.2,0z"/>
		<polygon id="Path-2" class="st1" points="79.6,10 73.6,13.9 73.1,23.1 70.7,23.1 62.1,21.1 55.5,21.1 52.3,22.8 49.5,31 
			30.3,25.4 21.4,26.9 17.7,27.4 18.3,31.3 21.1,32 27.1,32.7 31.4,34.5 24.4,35.7 19.3,39.4 20.6,44.8 24.9,44.8 28.1,43.1 
			30.8,41.9 34.5,42 38.6,43.7 43.9,46.9 46.2,47.9 50,49.2 55.2,49.8 62.2,45.3 62.6,41 61.5,39.6 67.9,41 80.2,44.3 88,43.4 
			89.6,37.2 89.6,31 112,39.2 121.7,41.7 135.7,43.4 153.4,43.4 169.3,41 185.1,36.4 196.1,32.7 196.9,41.7 199.3,43.9 203.8,44.5 
			212.5,42 221.8,37.5 223.3,37.9 223.7,46.4 225.4,48.5 229,49 241.1,45.7 242.3,45.1 248.4,42.3 251.9,42.5 259.3,44.3 265,45.3 
			275.1,41.8 282.2,42.6 282.2,40.8 277.3,40.2 273.8,38.4 263.1,39.2 256.9,34.8 251.9,33.3 254.1,32.4 258.8,32.4 261.2,32.7 
			263.7,33 268.2,32 271.7,29.4 278.6,27.7 282.6,24.8 286.6,22.3 286.6,20.4 283.6,21.8 276.9,24.9 269.6,25.4 264.4,26.2 
			257.9,24.9 251.4,24.8 244.4,27.4 236.5,30.2 236,25.8 233.5,21.1 229,19.6 212.8,23.1 212.5,18 210.4,13.5 207.1,11.1 
			197.4,10.4 170.3,19.3 153.2,22.7 137.6,22.8 117.4,19 90,10 		"/>
		<path id="Shape_00000180355562759505390510000003726716976880119688_" class="st0" d="M87.1,9.1c8.9,0.8,17.3,4.8,25.8,7.7
			c10.6,3.6,22.6,6.3,36.1,5.6c13.8-0.7,25.9-5.1,37.4-8.8l1.7-0.5c4.4-1.4,8.4-3.4,12.6-3.5c7.7-0.2,12.9,3.9,12.3,12.8
			c5.5-0.6,14.4-5.2,20.1-2c2.8,1.6,2.9,5.1,3.8,9.1c3.9-0.5,7.4-2.6,11.7-4.1c1.3-0.4,2.7-1.2,3.9-1.4c4.4-0.5,8.2,1.9,12.8,1.6
			c1.4-0.1,2.5-0.9,3.9-1.1c2.9-0.4,5.6,0.6,8.1-0.2c1.8-0.5,2.9-1.9,4.5-2.7c1.1-0.6,2.5-0.8,3.6-1.4c1.2-0.6,2.2-1.4,3.6-1.4
			c1.1-0.6,1-2.1,2.5-2.8c2.3-1.1,7-0.6,6.4,2.9c-0.9-0.4-0.2,0.7-1.1,0.8c-0.3,0-0.9-0.6-1.4-0.6c-1.7,0.2-3.8,1.4-5,0.2
			c-2.1,1.1-3.7,2.8-5.1,4.7c-4.3,0.8-6.2,4.2-10.6,5.2c-0.9,0.2-1.9-0.1-2.8,0.2c-1.6,0.5-2.5,1.9-3.9,2.5
			c-4.8,2.2-9.8-0.7-15.6,0.9c1.2,0.9,2.3,0.5,3.6,0.9c3.9,1.3,5.8,4.5,11.1,4.7c3.5,0.1,5.6-1.3,8.4-0.7c1.4,0.3,2.2,1.5,3.9,2
			c2.4,0.7,5.4,0.1,7.2,2.4c3.6-2.1,4.2,2.9,7.7,3.2c-0.2,0.7-0.4,1.5-0.3,2.5c-1.9,0.3-1.9-0.3-3.6,0.5c-2.2-0.7-2.9-2.8-3.5-5.1
			c-2.3-0.9-4.4-0.2-6.7-0.4c-1.4-0.1-2.9-1-4.4-0.9c-3.4,0.1-6.5,2.9-10.1,3.2c-4.6,0.5-7.5-1.5-12.5-2.4c0.1-1.3,1.6,0.3,2.5,0
			l0.5-1.5c0.6-1.7,1.2-3.5,1.2-5.8c-3-2.1-1.5,4.4-3.4,5.3c0.9-1.7,0.7-4.6,1.8-6.2l-1.2-0.2c-1.5-0.3-2.6-0.4-4.9-0.4
			c1-0.9,3.3-2,5.6-2.2l0.7-0.1h0.5c1.3-0.1,2.7,0,3.2,0.4c0.7-1.4,0.2-4,0.4-5.9c-6.7-4.5-16.1,2.8-23.4,4.2c0,5.4,0.6,10.4,0.3,16
			c0.8-5.9,0.3-11.6,0.2-15.8c1.1,0.9,0.4,3.3,0.5,5.4v1V38c0.1,2.3,0.1,5.3,0.3,7.5V46l0.1-0.7c0.7-4.5-0.3-9.3,0.1-14.2
			c-0.2-0.7,0.4-1.3,0.3-0.3l-0.1,4.5c0.5,3.4-0.1,7.2,0.6,10l0.1,0.4v-0.4c0.4-3.6-0.1-9.6-0.1-14.8c0.4,0.2,0.5,1.2,0.5,2.2v1.1
			c0,3.4-0.1,8.1,0.4,11c0.2,0.8,0.9-0.4,1.7,0c-0.6,1-2.2,1.3-3.6,1.9l-1.6,0.7c-1.4,0.6-2.8,1.1-4.5,1.2h-0.5h-0.5
			c-1.6,0.1-4.4,0.1-5.4-0.4c-2.9-1.5-3.2-6.1-2.6-10.7c-5.2,0.2-12.8,8.5-22.6,6.4c-4.1-0.9-4.7-5.5-4.6-11.3
			c-12.3,3.8-25.8,9.6-41.3,10.7c-11.9,0.8-25.2,0.1-35.9-2.5l-2.4-0.6l-1.6-0.4c-2.7-0.7-5.2-1.4-7.5-2.3L96.8,34
			c-2.4-1-4.6-2.1-6.9-2.6l0.1,1.4v0.9c0.1,3.6-0.1,6.9-1.7,10c-9.2,3.2-17.6-2.9-26.4-3.7c0.3,0.4,1.2,0.3,0.8,1.4
			c0,2.4-0.4,4.3-0.9,6.2C56.6,51.8,49,49.7,44,47.1c-0.8-0.4-1.7-0.9-2.5-1.4L40,44.8l-0.5-0.3c-2.5-1.4-6.1-3.1-9.7-2.1
			c-2.1,0.6-3.3,2.7-5.6,3c-3.9,0.5-5.9-1.7-8.6-3.5c-3.2,1.1-5.1-1.8-6.9-1.8c-2,0-2.1,2.4-4.5,1.6c-0.8-0.4-1.1-3-0.5-3.9
			c2.8-0.5,5.6,0,8.1-0.2c1.1-0.1,2-0.5,3.1-0.5c1.6,0,3.1,0.8,4.7,0.6c3.6-0.4,5.6-4.7,9.8-3.8c-3-1.9-7.4-0.8-10.3-1.8
			c-1.2-0.5-2-2.1-3.3-2.9c-1.3-0.7-2.8-0.8-3.7-1.3L12,27.8c-1.4-1.1-5.2-0.8-6.2-2.7c-1.3-2.7-3.4,0.5-5.4-1.6
			c-0.7-1.1-0.7-1.8,0.7-2.9c3.1-2.4,2.6,0.7,6.4,3.5c1.7,1.2,5.7-1.3,7.9-0.3c1.3,0.6,3.3,2.4,5.2,2.7c2.5,0.4,5.6-1.6,8.4-1.6
			c3.6,0,7,1.6,10.3,2.7c3.4,1.1,6.7,1.6,9.7,2.9c1.4-3.5,1.2-7.6,4.3-9.2c1.1-0.5,3.5-0.8,4.7-0.8c4.6-0.1,10.3,1.3,13.9,2.4
			c0.7-2.3,0.1-7,1.2-9.3C75.2,9.5,81,8.6,87.1,9.1z M54.6,43.3c-1.1,0.2-0.5,2-0.6,3.1c-0.1,1.3-0.9,3,0,3.1
			C54.1,47.3,54.5,45.4,54.6,43.3z M54.6,48.1L54.6,48.1c0,0.6,0,2,0.3,1.1V49v-0.2C54.9,48.2,54.8,47.4,54.6,48.1z M53.3,43
			l-0.2,1.7L53,45.3c-0.2,1.6-0.3,3.2-0.1,4.1C53,48.2,54.3,44.6,53.3,43z M52.4,42.4c-0.5,2-0.6,4.3-0.9,6.5
			c0.1,0.2,0.2,0.3,0.6,0.3C52.2,47.1,53.2,44.5,52.4,42.4z M19.8,27.6c-0.2,0.9-1,2.7-0.3,3.7c0.5-0.7-0.2-2.7,0.9-3.4
			c0.1,1.5-0.2,2.4-0.3,3.7c3.7,0.8,10.5,0.9,13.3,3.6l-0.7-0.1c-3.4-0.2-7.2,0-9.1,1.9c0.1,2,1.1,4.4,0.5,6.2
			c-0.5-1.8,0.1-4.7-1.3-5.6c0,2.6,0.7,4.5,0.7,7c3.3,0.1,4.7-2.8,8.1-3c6.9-0.4,11.8,6.7,18.5,7.3v-0.5c0-1.1,0.1-2.2,0.6-2.8
			c0.2,1.5-0.5,2.2-0.3,3.7c1.4-0.5,1.1-3.3,1.2-5c0.1-1.3,0.9-2.8-0.2-3.4c-0.3,1.4,0.1,3.5-0.9,4.2c0.2-2.1,1.2-5.5-0.2-6.8
			c0,1.6-0.1,3.1-0.6,4.2l0.1-0.8l0.2-1.9c0.2-2.3,0.3-4.3-0.7-6.1c-0.4,3.7-0.2,8-1.3,11c0.9-3.9,0.1-9.6,1.6-12.9
			c-1.5,0.3-2.6-1.3-3.6-0.6v0.5c0,2.3-0.1,6.4-0.4,9.6l-0.1,1.2v0.4c-0.1,1-0.2,2.1-0.8,2.5c0.5-4.8,0.9-9.7,1-14.9
			c-4.3-0.8-8.7-3.5-13.6-4.1C27.8,25.8,24.2,27.4,19.8,27.6z M229.1,43.8v0.5l-0.1,1c-0.1,1.2-0.1,2.5,0.3,3.3l0.1-5.6
			C228.6,42.7,229.2,43.5,229.1,43.8z M228.6,40.4v0.7v0.3c-0.1,1.1-0.3-0.4-0.6-0.4v1.4c-0.6,0.2-1.2-0.3-1.4-0.3
			c0,0-0.3,1.7-0.8,0.3c-0.1,0.4,0.1,1-0.3,1.1c-0.7-1.5-0.5,1.5-1.3,0.1l-0.1-0.1v0.1c0.2,0.7-0.6,1.5-0.1,1.6
			c0.1-0.4,0.6-0.3,0.8-0.6c0.5,0.6,0.2,2.1,0.2,3.1c0.8,0.6,2.2,0.6,3.3,0.9l0.1-5.1c-1.8,0.4,0.5,3.7-1.2,4.5l0.1-4.2
			c-1.9-0.2,0.1,3.7-1.4,3.9c0.2-1,0.1-3.4-0.5-3.7c1.4-1.2,3.8-1.4,5.3-2.5c-0.7-0.1-0.8,0.3-1.3-0.6l-0.1-0.3v0.1
			c0,0.5,0.2,1.3-0.6,1v-0.8v-0.3C228.9,40.2,228.8,39.9,228.6,40.4z M55.7,46.7v0.8v0.3c0,0.5,0.1,0.8,0.3,0.3v-0.8V47
			C56,46.5,55.9,46.2,55.7,46.7z M49.3,44.1c0.8,1.2-0.4,2.7-0.1,4.2C48.2,47.9,49.6,45.4,49.3,44.1z M230,42.9
			c0.1,1.4-0.4,4.8,0.2,4.8C230.1,46.4,230.6,42.9,230,42.9z M230.8,43.2v2.5v0.1V46c0,0.7,0.1,1.9,0.6,1c-0.4-0.2,0.1-0.4-0.3-1.1
			v-2.3C231.3,42.9,230.8,41.7,230.8,43.2z M54.9,43.9c0.6,0.2-0.6,3.7,0.2,3.4C55,46.3,56.1,43.3,54.9,43.9z M224.4,45.7
			c-0.4,0.4-0.2,1.1,0.3,1.4C225,46.7,225.1,45.7,224.4,45.7z M56.9,43.9c0.1,0.8-0.3,3.4,0.2,2.8v-0.2v-0.2
			C57.1,45.3,57.3,43.4,56.9,43.9z M47.8,31.7c-0.5,4.9-0.7,10.1-1.3,14.9c-0.1-3.2,0.3-8.5,0.7-12.7C47.3,33.2,46.8,31.9,47.8,31.7
			z M236.3,36.1l-0.1-0.7v0.9v1.3c-0.1,3.1-0.1,7.3,0.2,8.8v-1.3v-1.5C236.5,41.2,236.6,38.5,236.3,36.1z M232.5,44.4L232.5,44.4
			v0.2c0,0.4,0.1,1.2,0.3,0.6C233,44.2,232.6,43.8,232.5,44.4z M251.4,42.1l0.5,0.1h0.2c0.3,0.1,0.8,0.3,0.7,0.8
			c-4.7-1.2-7.5,1.3-10.9,2.4C243.5,43.6,248,41.4,251.4,42.1z M56,43.9v0.2c0,0.6,0,1.7,0.3,0.9v-0.2v-0.3
			C56.3,43.9,56.3,43.2,56,43.9z M62.1,44.8v-3.7v0.1L62,41.4C61.8,42.8,61.4,46.3,62.1,44.8z M265.4,39.8c0.2,2-1.4,3.7-0.9,5.1
			C264.9,43.5,266.1,41.4,265.4,39.8z M21.9,38c-1,1.2-0.3,4.1-0.1,6.5l0.4-0.2c0.6-0.3,0.3,0,1,0.5L23,42.7l-0.1-0.8
			C22.7,40.4,22.4,39.1,21.9,38z M59.8,39.8L59.8,39.8L59.8,39.8c-0.2,1.2,0.2,3-0.4,3.9c0.6,0.4,1.2,0.8,1.9,1.2
			c0-1.2,1.3-4.8-0.5-5.1c-0.9,0.4,0.5,3.4-0.9,3.4l0.1-0.4l0.1-0.4C60.2,41.5,60.3,40.4,59.8,39.8z M273.5,39
			c-2.1,0.4-4.6,0.4-6.4,1v0.6v0.5c-0.1,1.2-0.2,2.2-0.8,2.9c-0.3-0.9,0.6-2.8,0.6-4.2c-1.2,0.9-1,3.1-1.5,4.8
			c2.7-0.3,4.6-1.5,7-2.2C272.7,41.3,273.4,40.5,273.5,39z M264.5,39.8c0.1,1.8-1.4,3.3-0.6,4.8C263.8,42.8,265.3,41.3,264.5,39.8z
			 M263.7,39.8c-0.1,1.9-0.6,3.3-1.2,4.8c1.1-0.9,1.2-3,1.5-4.8C264.4,39.7,264,39.4,263.7,39.8z M20.2,39.4
			c1.1,1.1,0.1,4.2,1.3,5.1C20.9,43.2,21.4,39.3,20.2,39.4z M240.4,37.7c1,0.6,0.3,4.5,0.5,6.8C240.4,43.2,240.4,40.8,240.4,37.7z
			 M61,43.9c-0.4,0.9-0.2-1.2-0.3-1.7C61.2,41.4,61,43.5,61,43.9z M203.6,37.8c-0.7,0.1-1.1,0.4-2,0.3c-0.4,0.8,0.4,4.1-0.4,5.3
			c-0.3-1.7,0.8-4.7-1-4.8c-1.1,0.9,0.6,3.4-0.6,3.7v-3.1c-1.5,0.2-2.5,0.8-2.5,2.5c1.2,1.3,2.9,2.1,5.3,2.3c0.2-1.7-0.3-4,0.3-5.4
			l0.1-0.2v0.5c-0.1,1.8,0.3,3.1,0.2,4.9c0.1,0.2,0.2,0.3,0.6,0.3L203.6,37.8z M82.8,38.3C82,38.8,82,41.5,82.1,43l0.1,0.9l0.1-0.7
			C82.5,41.7,82.6,40,82.8,38.3z M82,38c-1,0.1-0.5,2-0.6,3.1c-0.1,0.9-0.8,2.3,0,2.8l0.1-0.8C81.6,41.2,81.8,39.2,82,38z
			 M260.1,38.3c-0.7,0.2-0.9,1.5-1.1,2.4l-0.1,0.6c-0.2,1-0.5,2.1-0.2,2.6C259.3,42.3,259.5,40,260.1,38.3z M231.7,42.4L231.7,42.4
			c0,0.6,0,2,0.3,1.1v-0.2V43C232,42.4,231.9,41.8,231.7,42.4z M49.6,42.7c0.7,0.1,0.1,1,0,1.1C48.9,43.7,50,43.3,49.6,42.7z
			 M204.7,37.8c0.8,2-0.3,4.7,0.8,5.9C205.2,42,206.3,37.3,204.7,37.8z M204.2,37.5c-0.8,1.7,0.3,3.7-0.1,5.9
			c0.1,0.2,0.2,0.3,0.6,0.3C204.6,41,204.9,39.1,204.2,37.5z M80.6,40.6l-0.2,0.6l-0.1,0.3c-0.2,1-0.4,2.2,0.2,2.3
			c0.1-1.9,0.5-3.5,0.4-5.6C80.4,37.3,80.7,39.9,80.6,40.6z M57.5,39.4c-0.2,1,0.4,2.9-0.6,3.1c0.3-0.8,0.3-1.9,0.3-3.1l-0.5,0.1
			l-1,0.1c-0.8,0.1-1.4,0.3-2.7,0.9v1.7c1.7,0.8,4.4,0.7,6.1,1.5c0.2-1.2,0.2-2.7,0.5-3.7l0.1-0.2l0,0
			C59.3,39.3,58.6,39.1,57.5,39.4z M259,37L259,37L259,37c-0.3,1.9-1.6,4.4-1.3,6.3l0.1,0.3v-0.1C258.1,41.8,259.8,38.6,259,37z
			 M79.8,39.1c-0.1,1.1-1.1,3.9-0.1,4.2c0-1.7,0.5-2.9,0.3-4.8v-0.3C80,37.2,79.6,38.3,79.8,39.1z M53.3,22.7l-0.2,1.2
			C52.3,29.2,52,34,53.3,39.1c0,0.2,0,0.3-0.3,0.3c-1.3-3.9-0.9-8.4-0.9-13L52,27.2c-0.5,4.3-0.6,9.6,1,12.4c8.8-2.2,17,2.5,25,3.7
			l0.1-1.9c0.1-1.2,0.2-2.4,0.5-3.5c-0.1,1.8,0.2,4-0.4,5.3c1.2-1,0.8-3.8,0.9-5.9c-2.3-0.9-3.8-2.6-4.9-4.6
			C74.1,35,74.3,37,73.6,38c-0.4-2.1,0.5-4.7,0.4-6.5v-0.2v-0.2c-0.2-1.1-0.9-2.8-1.3-2.4c0.1,0.9,0,3-0.1,5V34
			c0,1.5,0.4,3.4-0.6,3.9c0.4-4.5,0.5-9.9,0.5-14.1C67.5,22.4,58.9,20.3,53.3,22.7z M257.6,36c0.1,1.2-0.3,2.5-0.5,3.6l-0.1,0.3
			c-0.3,1.3-1.2,2.8-0.3,3.4c1.1-1.7,0.8-4.9,2.1-6.3l0.2-0.1l0,0C258.7,36.5,258.3,36.1,257.6,36z M80.1,10.7
			c-1,5.9-0.4,13.1-0.5,18.6C79,25,78.9,19.2,79.3,14.7c0.1-1.4,0.9-3.1,0-3.7c-0.8,4.5-1,13.1-0.3,18.6c6.7-0.6,11.7,1.1,17.2,3.3
			c4.1,1.7,8.3,3.2,12.5,4.7c8.4,3,17.4,4.8,27.8,5.5c23.1,1.3,39.4-3.3,55.8-9.3c4.1-1.5,8.4-3.7,12.3-4c1-0.1,2.3-0.1,3.3,0
			c1.2,0.2,2.1,1.2,3,0.9c0.5-4.5,1.5-9.6,0.2-13.8c0.1,3.9,0.4,8.1-0.6,11.4l-0.1,0.4l0.1-0.5c0.3-2.3,0.3-5.2,0.3-7.6V20
			c0.1-2.5,0.5-4.9-0.8-5.9l0.1,1.5v1c0.2,4.5,0.2,9.9-0.9,13.3c0.8-5.4,0.7-12,0.5-16.3c-1-0.8-2.2-1.6-3.6-2l0.2,2.5
			c0.1,0.9,0.2,1.9,0.2,2.9l0.1,2v0.7c0,1.4-0.1,2.7-0.7,3.2c0.1-3.9,0-7.6-0.1-11.3c-9.2-1.6-17.2,2.4-24.9,5.1l-0.5,0.2
			c-12,4.1-25.4,7.5-39.3,7c-11.5-0.4-21-3-30-6l-1.1-0.4l-1.1-0.4C100.1,13.7,91.5,9.8,80.1,10.7z M205.9,37.3v2.3
			c0,1.4,0.1,2.7,0.4,3.5l0.1,0.2v-0.2C206.2,40.7,206.8,38,205.9,37.3z M233.3,42.1c-0.1,0.4,0.2,1.1,0.3,0.6
			C233.7,42.3,233.5,41.6,233.3,42.1z M232.5,42.1c-0.1,0.4,0.2,1.1,0.3,0.6C232.9,42.3,232.6,41.6,232.5,42.1z M243.1,41.4
			c0.7,0,0.6,1.1,0.3,1.4C242.7,42.9,243.2,41.8,243.1,41.4z M58.5,42.8c-1.2-0.3-0.3-1.7-0.3-2l0.1-0.4v-0.2
			C58.6,39.3,58.6,41,58.5,42.8z M268.7,40.1c-0.1,1-0.7,1.3-0.6,2.5C267.3,42.8,267.9,40.1,268.7,40.1z M206.7,37.3
			c0.5,1.3-0.1,5.1,0.5,5.4C207,40.9,207.7,38.2,206.7,37.3z M24.4,37.5c1.2,0.9,0.5,3.6,1,5.1C24.6,41.4,24.9,39.1,24.4,37.5z
			 M77.8,37.4c-0.7,1.2,0.1,3.9-0.6,5.1c-0.3,0-0.2-0.3-0.3-0.6C77.5,40.7,76.6,38,77.8,37.4z M281.5,41.1c0.3,0.5-0.8,0.9,0,1.1
			l0.1-0.3C281.8,41.7,282,41.2,281.5,41.1z M280.7,42.2c-0.2-0.8,0.6-0.6,0.6-1.1C280.3,40.6,280,42.1,280.7,42.2z M256.2,36.3
			c0.5,1.7-0.6,3.8-0.9,5.6v0.3l-0.1-0.2C254.8,40.2,256.1,38.2,256.2,36.3z M83.4,38.3c-0.3,0.8-0.6,2.9,0,3.7
			C83.3,40.9,84.2,39.3,83.4,38.3z M260.1,42c0-0.9,0.5-1.6,0.6-2.5C260.8,37.4,259.4,41.9,260.1,42z M76.7,36.6
			c-0.3,1.3-0.4,3-0.4,5.3C75.7,42.1,75.9,37,76.7,36.6z M274,39.1c0,0.9-1.4,2.7-0.3,2.8C273.5,40.8,274.9,39.9,274,39.1z
			 M212.1,29.5c-0.3,3.6,0,7.8-0.2,12.1h0.8C212,37.6,213.2,31.8,212.1,29.5z M274.5,41l-0.1,0.4l0,0
			C274.5,41.5,275.1,38.6,274.5,41z M234.5,40.2c0,0.7-0.5,0.9,0.3,1.1C234.7,40.9,234.9,40.3,234.5,40.2z M244.3,33
			c1.1,0.7,0.5,2.5,0.5,3.9c0,1,0.5,2.6,0.2,4.2C244.4,40.3,244.7,35.4,244.3,33z M228.6,20.4c-5.7,0.3-10.2,1.8-15.1,2.9v0.8v0.5
			c0,0.9,0.1,1.6,0.2,2c-0.3,0-0.3-0.2-0.6-0.3c-0.3-0.9,0.6-2.8-0.5-2.8c0.1,5.8,0.1,11.8,0.3,17.4c5.9-1.7,12-7,19.8-3.9
			c0.5-3.2,0.6-7.3,0.5-10.8l-0.1-2.1c0-1.4-0.2-2.7-0.7-3.1c-1,0.6-0.4,2.4-0.3,3.4v0.9l0.1,2.1c0.1,2.4,0.2,5.1-0.3,7.6
			c-0.1-4.9-0.1-9.4-0.4-14.4H231c-1-0.1-0.9-0.2-2-0.3c-0.3,5.4,0.6,7.2-0.1,12.1l-0.1,0.5V32C229,28.2,228.8,24.8,228.6,20.4z
			 M242.9,32.7c0.4,1.2,0.5,5.3,0.4,8.2c-0.4-1.2-0.5-4.6-0.5-7.3L242.9,32.7z M261.2,38.9c0.2,0.7-0.9,1.5,0,2
			C261,40.1,262.1,39.3,261.2,38.9z M262.9,40c-0.1,0.4,0.2,1.1,0.3,0.6C263.2,40.2,263,39.5,262.9,40z M73.3,39.6h0.6v1.1h-0.6
			V39.6z M253.4,38.5c0.8,0.5-0.4,1.3,0,2.3C252.4,40.9,253.5,39.1,253.4,38.5z M272.1,39.6c0.8,0,0.5,1.2-0.3,1.1
			C272,40.5,272.1,40.1,272.1,39.6z M213.5,27.8c0.4,3.9,0.2,8.5,0.4,12.7c-0.3,0-0.5-0.1-0.6-0.3C213.5,35.8,213.3,30.7,213.5,27.8
			z M241.6,30.7c0.9,2.4,0.3,6.4,0.4,9.6C241.5,37.1,242,33.4,241.6,30.7z M262.3,39.2c-0.1,0.4-0.1,0.6-0.1,0.8L262.3,39.2z
			 M228.7,38.7c-0.1,0.4,0.2,1.1,0.3,0.6C229,38.9,228.8,38.2,228.7,38.7z M214.8,29.9v1.3c0,1.4-0.1,3.1-0.1,4.2
			c0.1,1.3,0.4,2.4,0.2,3.9l-0.2-0.1c-0.2-0.1-0.3-0.2-0.4-0.5c0.2-3.6-0.1-6.6,0.1-9l0.1-0.7v-0.3v-0.1c0.1-0.2,0.1,0.1,0.1,0.6
			L214.8,29.9z M197.2,38.5c-0.1,0.9,0.7,1.1,0.8,0.3C197.7,38.8,197.4,38.7,197.2,38.5z M81.6,29.9c-0.8,1.1,0.2,4.2-0.6,5.3
			c-0.1-1.6,0.4-3.9-0.2-5.1c-0.9-0.6-1.2,0.6-1.7,0.8c-0.3,0.1-0.6-0.4-1.1-0.3c-1,0.3-2.3,1.9-2.3,2.8c0,0.7,1.2,2,1.9,2.6
			c2.7,1.8,8.6,1.5,10.5,3.2c0.2-0.1,0.5,0,0.6-0.3c-0.7-0.7-0.3-3.7,0-5.4l0.1-0.5v0.3c0.1,1.7-0.4,3.9,0.2,5.1
			c0.1-1.9,0.7-5.3-0.1-6.6l-0.1-0.1v0.1c0.1,0.2-0.2,0.9-0.3,0.8c-0.4-1.2,1.4-1.4-0.3-1.7c-0.2,2.3,0,5.2-0.7,7.6
			c-0.3-2.5,0.8-6.3-0.4-7.9c0.5,2.1,0.3,5.1-0.3,7l-0.1,0.3l0.1-7.3c-1.3,0,0.4,1.3-0.9,1.7c0-0.8,0.3-1.9-0.5-2
			c-0.2,2.3,0.3,5.4-0.4,7.3c-0.7-2.8,0.3-4.6-0.2-7.3c-1.3,0.4-0.7-0.2-1.9-0.3c-0.2,1.9,0.3,4.5-0.4,5.9
			C82.2,33.9,83.7,30.1,81.6,29.9z M211.2,33.4c0.1,1.6-0.4,5.4,0.2,5.6C211.3,37.4,211.8,33.6,211.2,33.4z M215.7,29.2
			c1,0.6,0.5,2.3,0.5,3.8v0.2c0,1.9-0.2,4,0.2,5.3C215.1,35.8,216.4,31.2,215.7,29.2z M233.3,22.7l0.2,2.9c0.2,2.5,0.4,5.4,0.2,7.8
			c-0.1,1.5-1.2,3.6,0.2,4.2c1-1.1,1.3-2.7,1.5-4.8c0.1-1.7-0.4-3.9,0.3-5.1c0.4,4.1-0.7,8.2-1,10.7c1.3-3.1,1.5-6.9,1.3-11
			c-1.4,0.8-0.8-1.9-1.4-2.8c-0.8,0.5,1.2,5.1-0.4,6.5v-0.7C234.5,27.9,234.5,24.6,233.3,22.7z M208.6,37.3c0,0.2,0.1,1.6,0.3,0.9
			C209.2,37.1,208.8,36.7,208.6,37.3z M54.4,23.3c-1.2,4.1-1.2,10.4-0.5,14.9c-0.9-1.9-1-6.3-0.7-9.9l0.1-1.5v-0.5v-0.5
			C53.5,24.8,53.7,23.8,54.4,23.3z M207.8,35.3c-0.1,0.2,0,0.5-0.2,0.5h-0.1c-2.5,0.3-4.1,1.2-5.6,0.8c0.1,1-1.5,0.4-2,0.8
			c-0.1-0.2,0-0.6-0.3-0.6c0,0.4-0.1,1,0.3,1.1c1.3-1,4.3-0.7,6.2-1.2l0.4-0.1C207.1,36.5,208.6,36.2,207.8,35.3z M54.9,23.3
			c0.2,4.1-1,9.5-0.2,14.6C53.4,33.9,54.2,27.7,54.9,23.3z M254,36c0.7,0.3-0.4,1.1,0,2C252.8,38,254,36.5,254,36z M240.5,30.4
			c0.2,1.3,0.3,4.5,0.2,7l-0.2-1.3l-0.1-0.8C240.2,33.5,240.2,31.8,240.5,30.4z M217.7,29.3v2.8c0.3,1.8,0.2,2.7,0.2,5.1
			c-0.3,0-0.5-0.1-0.6-0.3v-0.8v-2.5v-0.9l0,0v-0.6C217.3,30.7,217.2,28.4,217.7,29.3z M57.7,22.8l-0.2,1.5l-0.2,1.6l-0.2,1.5
			c-0.3,3.3-0.5,6.7-0.3,9.7c-0.3,0-0.5-0.1-0.6-0.3v-1.7l0.1-2.6c0.1-2.9,0.2-5.5,0.6-8.3C57.2,23.8,57,22.8,57.7,22.8z M234,35.4
			c0.6,0.1,0.2,1.5,0,1.7C233.2,36.8,234.4,36.2,234,35.4z M59.1,25.3c-0.6,3.8-0.3,7.8-0.4,11.5c-0.3,0-0.5-0.1-0.6-0.3
			c0-2.5,0.1-5.2,0.3-8l0.1-1.9c0.1-1.4,0.4-3.4,0.3-3.4l0,0l0.1-0.2v-0.1C59.1,22.9,59.1,23.2,59.1,25.3z M86.5,33.9
			c0.1,1.3-0.4,1.7,0,2.5C85.6,36.7,85.6,33.6,86.5,33.9z M60.4,27.9l-0.1,8.4c-0.3,0-0.5-0.1-0.6-0.3c0-1.2,0-2.6,0-4v-0.5
			C59.9,30.3,59.4,28.4,60.4,27.9z M75.1,35.7h0.6v0.6h-0.6V35.7z M55.6,35.7c-0.3,0.9-0.3-0.8-0.3-1.1
			C55.7,33.7,55.6,35.3,55.6,35.7z M71.2,34.8c-0.2,0.2-0.3,0.6-0.3,1.1C70.4,36,70.4,34.3,71.2,34.8z M83.8,31
			c1.2,0.6,0.2,3.3,0.5,4.8C83,35.3,84.1,32.5,83.8,31z M230.5,27.2c0.7,2.2,0.5,5.3,0.4,8.2c-0.4-1.2-0.3-5.4-0.4-7.9V27.2z
			 M44,30.5c0.9,0.4-0.1,2.9,0.2,4.5C43.6,35.1,44.1,31.7,44,30.5z M234.6,34.3c-0.3,0.9-0.3-0.8-0.3-1.1
			C234.6,32.2,234.6,33.9,234.6,34.3z M202,33.3L202,33.3c0,0.4,0.1,1.6,0.3,0.8C202.5,33,202.1,32.7,202,33.3z M56,23.3
			c0.6,3.1-0.7,6.7-0.4,10.4C54.9,31.6,55.8,26.2,56,23.3z M79.3,33.5c-0.4,0.9-0.2-1.2-0.3-1.7C79.5,31,79.2,33,79.3,33.5z
			 M70.7,28c1.3,1.2,0,3.2,0.5,5.1C69.9,32,71.2,29.5,70.7,28z M262.5,26.8c0.3,1.6-0.5,3.8-0.2,5.3l0.1,0.3v-0.1
			c-0.1-0.7,0.5-4.3,0.6-5.3c1,1.2-0.7,4.9,0.8,5.6c-0.7-1.6,0.2-3.2,0.1-4.3l-0.1-0.4v-0.2C263.7,27.2,263.5,26.5,262.5,26.8z
			 M261.9,26.8c-1.3,0.8-0.3,3.9-0.6,5.6c0.1,0.2,0.2,0.3,0.6,0.3V26.8z M260.3,26.5c0.4,1.5,0.4,4.5-0.1,5.9h0.8
			C260.7,30.5,261.9,27.1,260.3,26.5z M212.5,19.6c-0.3,4-1,9.1-1.3,12.1C212.2,28.3,212.5,24.1,212.5,19.6z M267.8,26.6
			c0.8,1-0.3,3.8,0.5,4.8C268.8,30.3,268.8,26.2,267.8,26.6z M267.2,26.3l-0.1,1.9v0.6c0,1.3,0,2.6,0.3,2.6
			C267.3,29.8,267.9,27.4,267.2,26.3z M266.4,26.8c0.1,1.3-0.4,4.6,0.2,4.5C266.5,30.1,267,26.7,266.4,26.8z M21.5,28.5
			c-0.1,1.1-0.3,2-0.6,2.8C20.4,30.8,20.6,28.6,21.5,28.5z M259.4,31.3c-0.6,0.2-0.1-3-0.2-4.2C259.7,26.8,259.2,30.1,259.4,31.3z
			 M61.5,30.4h0.6c0,0.2,0,0.4,0,0.6h-0.6V30.4z M268.6,26.3c0.6,0.9,0.1,2.9,0.2,4.2C270,30.2,269.6,25.5,268.6,26.3z M258,30.4
			c-0.6,0.2-0.1-3-0.2-4.2C258.4,26,257.9,29.2,258,30.4z M227.7,30c-0.3,0.9-0.3-0.8-0.3-1.1C227.7,27.9,227.7,29.6,227.7,30z
			 M278.4,25.3c-2.9,1.3-6.1,0.2-8.9,0.7c0.8,0.7-0.3,3.3,0.5,3.9c1.2-0.3,0-3.2,0.9-3.9c-0.1,1.8,0.2,1.7,0.2,3.1
			c2.8-0.3,5-1.1,7.3-1.9V25.3z M22,28.8c0.4,0.1,0.2,0.7,0.3,1.1C21.1,30,22.1,29.3,22,28.8z M256.3,29c0.3,0.1,0.6,0.4,0.5,0.9
			C256.5,29.7,256.3,29.4,256.3,29z M62.1,27.9c0,1.1-0.3,0.8,0,1.7C61.2,30,61.2,27.5,62.1,27.9z M78.5,11
			c-0.9,5.2-1.3,13.8,0,18.6C77.7,24,78.2,16,78.5,11z M18.7,28.2v0.2v0.4c0,0.6,0.1,1.2,0.3,0.6v-0.2V29
			C19,28.3,18.9,27.4,18.7,28.2z M265.3,27.1v0.1c0,0.7-0.2,2.6,0.2,1.8v-0.1v-0.2C265.5,28,265.7,26.4,265.3,27.1z M80.7,11
			c0.4,4.8-0.6,11.8,0,17.7c-0.3-0.1-0.2-0.6-0.6-0.6C80.2,22.3,79.7,17,80.7,11z M256.4,28.1h0.6v0.6h-0.6V28.1z M208.4,13.4
			c1.6,3.5,0.6,10,0.4,14.5v0.4v-0.6C208.4,23.4,209.4,17.6,208.4,13.4z M217.2,23.6c1.2,0.5,0.2,3.1,0.5,4.5
			C217,27.6,217.4,25,217.2,23.6z M264.2,26.8c0,0.5,0.2,0.9,0.5,1.1C264.6,27.5,265,26.5,264.2,26.8z M216,27.5
			c-0.2,0.8-0.3-0.7-0.3-0.8C215.9,26.1,216.3,26.5,216,27.5z M207.3,12.5c1.1,4.3,0.4,10.2,0.1,15.2
			C207.2,23.7,207.9,17,207.3,12.5z M82.1,11.6l-0.2,6.9v1.8v1c0,1.2,0,2.5,0,3.9v2.3l-0.1-0.2C81.1,24.4,81.2,14.6,82.1,11.6z
			 M61.8,26.5c0.3,0.1,0.2,0.5,0.3,0.8c-0.5,0.1-0.5-0.2-0.5-0.6C61.8,26.8,61.8,26.7,61.8,26.5z M60.5,23.1c0.7,1-0.4,2.6-0.1,4.2
			C59.7,27.3,60.2,24,60.5,23.1z M235.2,24.7v0.5v0.4c0.1,0.8,0.2,1.7,0.4,1.4C236,26,234.9,24,235.2,24.7z M278.6,27
			c1.2,0.2,0.8-1.3,0.9-2.2C277.9,24.6,279.2,26.7,278.6,27z M230.8,26.3c-0.2,1.1-0.4-0.3-0.3-0.6v-0.1l-0.1-0.9l-0.1-0.6l-0.1-0.4
			c-0.2-1.3-0.2-2.6,0.2-3C230.8,20.2,230.8,26.3,230.8,26.3z M76.9,23.9V24v0.3c0,0.8-0.1,2.2,0.2,1.6v-0.1v-0.2
			C77.2,24.8,77.3,23.2,76.9,23.9z M71.3,25.8C71.1,26.6,71,25.1,71,25C71.2,24.4,71.6,24.7,71.3,25.8z M230.4,25.6L230.4,25.6
			l0.1,0.4v-0.1v-0.2L230.4,25.6L230.4,25.6z M280.3,23.9c-0.5,0.3-0.7,1.7,0.3,2C280.4,25.3,281,24.1,280.3,23.9z M280.9,24
			c0.8-0.1-0.2,1.5,0.5,1.4v-0.2C281.5,24.4,281.5,23,280.9,24z M227.5,23.5c0,0.7,0.5,0.8,0.3,1.7c-1.2-0.1-0.2-2.4-0.5-3.4v-0.3
			C227.4,20,227.6,22.8,227.5,23.5z M226.1,22.3v0.8C225.3,23.6,225.3,21.9,226.1,22.3z M285.1,22c-0.1,0.4,0.2,1.1,0.3,0.6
			C285.5,22.2,285.2,21.5,285.1,22z M285.7,21.2c0.8-0.2-0.2,1.3,0.5,1.1C286.4,21.8,286.2,20.2,285.7,21.2z M294.9,18.2
			c-1.3,0.6,0.2,0.3,0.3,0.3l0.3,0.1c0.4,0.1,1.2,0.4,1.6,0.2C296.5,18.6,295.4,18,294.9,18.2z M77,17.7c-0.2,0-0.3,0.2,0,0.3
			c0.5-0.5,0.2-1.9,0.3-2.8C76.8,14.5,77.1,17,77,17.7z M75.4,14.3c-0.1,0.4,0.2,1.1,0.3,0.6C75.7,14.5,75.5,13.8,75.4,14.3z"/>
	</g>
</g>
<g id="Layer_2_00000053508767784656852490000015364953233122073760_">
	<path class="st2" d="M116.6,21.8c0.3-0.2,0.7-0.6,1-0.4c0.3,0.1,0.4,0.5,0.3,0.7c0,0.1-0.1,0.1-0.1,0.1c-1.4,1.4-5.2,4.1-7.9,10.1
		c-1,2.3-0.3,3.4,0.3,3.6h0.1c0.1,0,0.1,0.1,0.1,0.2c-0.1,0.2-0.4,0.2-0.6,0.1c-1.7-0.6-1.7-2.7-0.5-5.5c0.8-2,3.5-5.2,3.5-5.4
		c0-0.1,0-0.1,0-0.1h-0.1c-0.5,0.3-1.4,0.7-2.5,1.2c-0.4,0.2-0.5,0.5-0.7,0.9c-0.1,0.3-0.2,0.8-0.4,1.2c-0.4,1.2-1.5,2.9-2.8,2.4
		c-0.3-0.1-0.5-0.3-0.4-0.5c0-0.1,0.1,0,0.2,0.1c0.4,0.1,0.7-0.2,1-0.6c0.5-0.7,0.8-1.5,1-2.4c-1,0.6-1.4,0.9-1.9,1.5
		c-0.1,0.1-0.2,0.3-0.3,0.2c0,0,0-0.1,0-0.2c0.1-0.3,1.1-1.5,2.1-2.2c0.3-0.2,0.5-0.4,0.6-0.6s1.8-5.9,1.4-6c-0.1,0-4.1,4.8-6.8,8
		c-2.2,2.6-4.3,4.2-6.6,3.4c-1-0.4-2.7-1.6-1.7-4.3s3.8-3.5,5.4-3c1,0.4,1.6,1.4,1.2,2.5s-1.2,1.6-2.3,1.2c-0.2-0.1-0.5-0.3-0.4-0.4
		c0-0.1,0.4-0.3,0.5-0.3c0.7-0.2,1.2-0.8,1.3-1.2c0.1-0.4,0.2-1.1-0.6-1.4c-0.8-0.3-3.2,0.7-4.1,3.2c-0.6,1.6-0.2,2.9,1.2,3.4
		c2.3,0.9,5.6-3.4,5.9-3.7c1.5-1.7,6.1-7.5,6.1-7.5c-0.1,0-0.1-0.1-0.2-0.1c0,0,0,0-0.1,0c-0.4,0-4.7-0.9-4.9-0.9
		c-1.7-0.3-2.8,0.3-3.2,1.2c-0.2,0.6-0.1,1.3,0.6,1.6c1.1,0.4,1.7-1.2,2.3-1c0.3,0.1,0.4,0.5,0.3,0.9c-0.2,0.5-1.2,1.2-2.2,0.9
		c-1.3-0.5-1.9-1.5-1.5-2.7c0.5-1.3,2-1.8,3.1-1.5c5.7,1,4.3,0.9,7.6,0.4c0.1,0,0.2,0,0.3,0c0.3,0.1,0.5,0.5,0.5,0.8
		s-0.1,0.5-0.2,0.8c-0.4,1-1,3.7-1.4,5C111.3,25.4,114.8,23.3,116.6,21.8z"/>
	<path class="st2" d="M118.2,34.9c-0.1,0.2-0.3,0.4-0.5,0.6c-0.2,0.3-0.5,0.3-0.8,0.1c-0.2-0.1-0.4-0.5-0.3-0.8
		c0.1-0.7,0.9-1.2,1.1-1.8c0.1-0.2,0-0.3-0.1-0.4c-0.3-0.2-0.3-0.1-1.7-0.3c-0.3,0-0.5,0.1-0.7,0.3c-0.5,0.7-0.9,1.3-1.4,1.9
		c-0.1,0.1-0.2,0.2-0.3,0.2c-0.1-0.1,0-0.4,0.1-0.5c0.4-0.6,0.7-1.1,1.2-1.9c0.1-0.2,0.1-0.3-0.1-0.4c-0.2-0.2-0.6-0.3-0.5-0.8
		c0.1-0.2,0.3-0.2,0.4-0.1s0.2,0.3,0.4,0.5c0.2,0.1,0.3,0.1,0.5-0.2c0.1-0.1,0.1-0.2,0.2-0.2c3-3.8,4.5-5.4,6-5
		c0.7,0.2,1,0.8,0.8,1.7C122.3,28.6,121.7,29.5,118.2,34.9z M118.4,32.1c0.1-0.1,0.1-0.1,0.2-0.2c1-1.6,1.6-2.5,2.7-4.1
		c0.2-0.3,0.3-0.9-0.1-1c-1.1-0.3-4.8,4.5-5,4.7c-0.2,0.2-0.1,0.4,0.2,0.5c0.4,0.1,1.1,0.3,1.6,0.3
		C118.1,32.3,118.2,32.3,118.4,32.1z"/>
	<path class="st2" d="M130.3,28.3c0,0.1-0.1,0.2-0.2,0.3c-0.9,1.1-2,2.4-3,3.5c-0.1,0.1-0.2,0.2-0.3,0.4c-0.5,0.9-2.6,4.5-2.6,4.5
		c-0.1,0.2-0.4,0.6-0.7,0.6c-0.5-0.1-0.8-0.4-0.6-0.9c0.2-0.6,1.5-2.8,2.2-4.1c0.1-1.4,0.1-2.8,0-4.2c0-0.2,0-0.5-0.1-0.7
		c0-0.3,0.1-0.5,0.5-0.4c0.9,0.2,1.2,1.6,1.2,2.4s-0.1,1.9,0.1,1.9c0.4,0.1,2.6-2.7,3.2-3.4c0.1-0.1,0.2-0.1,0.3,0
		C130.3,28.1,130.3,28.2,130.3,28.3z"/>
	<path class="st2" d="M139.7,37.7c1.2,0,1.7-1.1,1.9-1.5c0.4,0.2,0.5,0.6,0.5,0.9c0,0.7-0.6,1.4-1.8,1.4c-1,0-2-0.8-2-0.8
		c-0.1,0-0.2,0.1-0.4,0.2c-0.3,0.2-1.1,0.4-1.5,0.4c-0.5,0-1-0.4-1-1.1c0-0.5,0.5-0.8,1-0.8c0.4,0,1.1,0.2,1.1,0.2
		c0.6-0.4,4.7-4.5,4.8-6.6c0-0.9-0.3-1.5-1-1.5c-0.9,0-1.7,1-1.8,2.1c0,0.7,0.3,1.2-0.4,1.2c-0.5,0-0.7-0.3-0.6-1.2
		c0-1.1,1.2-2.4,2.9-2.4c1.2,0,2.1,1.1,2.1,2.2c-0.1,2.5-4.2,6.6-4.6,6.9C139,37.5,139.4,37.7,139.7,37.7z M137.1,37
		c0-0.1-0.4-0.2-0.7-0.2c-0.2,0-0.4,0.1-0.4,0.3s0.1,0.2,0.2,0.2C136.7,37.4,137.1,37,137.1,37z"/>
	<path class="st2" d="M148.6,28.8c-0.3,0.6-0.5,0.7-0.8,0.7c-0.2,0-0.4-0.2-0.5-0.5c0-0.4,0.4-1.2,1.7-1.2c1.2,0,1.8,0.3,2.4,0.3
		c0.2,0,0.5-0.1,0.7-0.1c0.1,0,0.5-0.2,0.6-0.2c0.2,0,0.3,0.2,0.4,0.4c0,0.1,0,0.1,0,0.2c0,0-3.4,3.6-5,6.9c0.5-0.1,0.6,0,1.1,0.1
		c0,0,0.1,0.1,0.1,0.2c0,0.1-0.1,0.1-0.2,0.1c-0.3,0-0.5,0-0.8,0c-0.9,0-0.9,1.6-1.5,2.7c-0.1,0.2-0.2,0.3-0.4,0.3s-0.3-0.1-0.4-0.5
		c0-0.4,0.5-2,0.5-2c0-0.1-0.1-0.2-0.2-0.2c-0.2-0.1-0.6-0.2-0.6-0.5c0-0.1,0.1-0.2,0.1-0.2c0.2,0,0.4,0.3,0.7,0.3
		c0.4,0,0.4-0.1,0.5-0.3c0.5-1.1,1.6-2.7,2-3.5c1-1.6,2.4-2.9,2.4-3.1c-0.4,0.1-1.1-0.3-1.5-0.3C149.4,28.3,148.8,28.4,148.6,28.8z"
		/>
	<path class="st2" d="M155,38.9c0,0-0.1,0.1-0.2,0.1c-0.1,0-0.3,0.1-0.4-0.1c-0.1-0.1,0-0.2,0.1-0.3s0.2-0.2,0.3-0.3
		c0-0.1,0-0.1,0.1-0.2l0,0c-0.1,0.1-0.2,0.1-0.3,0.1c-0.6,0-0.9-0.4-0.9-0.7c0-0.7,0.3-1,0.8-1.1l0,0l0,0c0.1,0,0.3,0,0.3,0.1
		c0.1,0,0.2,0.1,0.3,0.2C155.7,37.3,155.6,38.4,155,38.9z"/>
	<path class="st2" d="M166.3,34.8c1.2-0.2,1.5-1.4,1.6-1.8c0.4,0.1,0.6,0.5,0.7,0.8c0.1,0.7-0.3,1.5-1.5,1.8
		c-0.9,0.2-2.1-0.4-2.1-0.4c-0.1,0-0.2,0.1-0.4,0.3s-1,0.6-1.4,0.7c-0.5,0.1-1.1-0.2-1.2-0.9c-0.1-0.5,0.3-0.9,0.8-1
		c0.4-0.1,1.1-0.1,1.1-0.1c0.5-0.5,3.7-5.4,3.3-7.5c-0.1-0.8-0.6-1.4-1.3-1.3c-0.8,0.1-1.5,1.3-1.3,2.4c0.1,0.7,0.5,1.1-0.1,1.2
		c-0.5,0.1-0.7-0.2-0.9-1c-0.2-1.1,0.7-2.6,2.3-2.9c1.2-0.2,2.3,0.7,2.5,1.8c0.4,2.5-2.8,7.3-3.1,7.7
		C165.6,34.8,166,34.9,166.3,34.8z M163.7,34.7c0-0.1-0.4-0.1-0.7,0c-0.2,0-0.4,0.2-0.4,0.4s0.1,0.2,0.2,0.2
		C163.3,35.2,163.7,34.7,163.7,34.7z"/>
	<path class="st2" d="M171.1,31.8c-1-4.4,1.4-8.2,3.2-8.6c1.6-0.4,2.4,0.9,2.8,2.4c0.7,2.7-0.4,8-3.2,8.7
		C172.4,34.5,171.5,33.5,171.1,31.8z M173.5,33.8c1.4-0.3,3.5-4.6,2.4-9.1c-0.2-0.6-0.5-1.2-1.2-1.1c-1.3,0.3-3.5,4.5-2.6,8.3
		C172.4,32.7,172.7,34,173.5,33.8z"/>
	<path class="st2" d="M183.8,30.6c1.2-0.4,1.3-1.6,1.3-2c0.4,0,0.7,0.4,0.8,0.7c0.2,0.7-0.1,1.5-1.2,1.9c-0.9,0.3-2.1-0.1-2.1-0.1
		c-0.1,0-0.2,0.1-0.4,0.3c-0.2,0.2-0.9,0.8-1.3,0.9c-0.4,0.1-1.1-0.1-1.3-0.7c-0.2-0.5,0.2-0.9,0.7-1.1c0.4-0.1,1.1-0.2,1.1-0.2
		c0.5-0.6,2.9-5.9,2.3-7.9c-0.3-0.8-0.8-1.3-1.5-1.1c-0.8,0.3-1.3,1.5-1,2.5c0.2,0.6,0.6,1,0,1.2c-0.4,0.1-0.7-0.1-1-0.9
		c-0.3-1,0.3-2.7,1.9-3.2c1.2-0.4,2.4,0.4,2.7,1.4c0.8,2.4-1.7,7.6-2,8.1C183.1,30.7,183.5,30.7,183.8,30.6z M181.2,30.9
		c0-0.1-0.4,0-0.7,0.1c-0.2,0-0.4,0.3-0.3,0.4c0,0.2,0.1,0.2,0.2,0.2C180.9,31.4,181.2,30.9,181.2,30.9z"/>
	<path class="st2" d="M191.5,19.9c-0.4-1.1-1.3-1.3-2-1.1c-1,0.4-1.2,1.7-0.7,2.8c0.2,0.4,0.3,0.4,0.4,0.6c0.1,0.3,0,0.6-0.4,0.7
		c-0.6,0.2-1-0.5-1.3-1.1c-0.4-1,0.3-2.6,1.7-3.2c1.9-0.7,2.9,0.5,3.3,1.5c0.8,2,0,3.7-1.8,5c-0.2,0.2-0.2,0.3-0.2,0.3
		c0.5-0.1,1.3,0.1,1.7,1c0.4,1.1-0.5,2.6-1.6,3c-1.3,0.5-2,0-2.3-0.8c-0.2-0.6,0-1.3,0.6-1.5c0.1,0,0.3,0,0.4,0.2c0,0.1,0,0.1,0,0.2
		c-0.2,0.1-0.6,0.4-0.3,1.2c0.2,0.4,0.6,0.7,1.3,0.5c0.7-0.3,1.5-1.4,1-2.6c-0.3-0.7-1.1-0.7-1.5-0.8c-0.1-0.1-0.2-0.2,0.1-0.4
		C191.2,24.4,192.3,21.8,191.5,19.9z"/>
</g>
</svg>
