<?xml version="1.0" encoding="utf-8"?>
<!-- Generator: Adobe Illustrator 26.0.1, SVG Export Plug-In . SVG Version: 6.00 Build 0)  -->
<svg version="1.1" id="Layer_1" xmlns="http://www.w3.org/2000/svg" xmlns:xlink="http://www.w3.org/1999/xlink" x="0px" y="0px"
	 viewBox="0 0 61 229.4" style="enable-background:new 0 0 61 229.4;" xml:space="preserve">
<style type="text/css">
	.st0{fill:#1A3F1D;}
</style>
<g id="Trees_and_moon_00000125560614630350298380000011246202988160531598_">
	<path class="st0" d="M45.9,72.5c0,0-0.1,0-0.1-0.1C45.8,72.5,45.9,72.5,45.9,72.5L45.9,72.5z"/>
	<path class="st0" d="M53.6,197.3C53.6,197.3,53.6,197.3,53.6,197.3C53.6,197.3,53.6,197.3,53.6,197.3L53.6,197.3z"/>
	<path class="st0" d="M51.8,97.7C51.8,97.7,51.8,97.7,51.8,97.7C51.8,97.8,51.8,97.8,51.8,97.7L51.8,97.7z"/>
	<path class="st0" d="M59.6,173.4c-0.2-0.3-0.1-0.7-0.1-1c0-0.3,0.2-0.7,0.3-1c-0.5-0.5-1.1-0.7-1-1.6c0.1-0.8-0.2-1.7-0.9-2.5
		c-0.2,0.6-0.3,1.1-0.4,1.6c-0.4,1-0.8,1.2-1.8,0.6c-1-0.6-2-1.3-3-2c1.3-1.7,2,0,2.9,0.4c1.1-1.2,0.1-2.9,0.9-4.1
		c0.8,0.2,1.5,0.3,2.4,0.6c-0.2-0.4-0.3-0.5-0.3-0.6c-2.4-1.1-2.4-1.1-3.5-3.3c-0.3-0.7,0-1.6,0.5-1.3c1,0.5,2.2-0.5,3.2,0.3
		c0.1,0.1,0.5-0.1,1.1-0.3c-0.6-0.3-0.8-0.5-1.1-0.5c-1.4-0.1-2.4-1-3.5-1.9c-1.1-1-1.1-0.9-0.3-2.2h2.6c0.4,0.5,0.9,1.1,2.1,1
		c-1.4-1.3-2.9-2.2-3.4-3.9c0.9-0.9,1.5,0.3,2.2,0.2c0.8-0.1,1.6-0.3,2.5-0.4c0-0.9-0.1-1.6-1.1-1.7c-1-0.1-1.5-0.8-2.1-1.7
		c0.6,0,1-0.1,1.4-0.1c-0.1-0.6-0.1-1.2-0.3-1.8c-0.3-1.1-1.4-1.2-2.3-0.2c0.3,0.1,0.6,0.2,1,0.3c-0.4,1.1-1.6,0.4-2.2,1.1
		c-0.1,0.1-0.8-0.2-1.1-0.4c-0.2-0.1-0.3-0.5-0.5-0.8c0.7-0.1,1.2-0.2,1.9-0.4c-0.5-1.1-1-2-1.5-3c1-0.6,1-0.6,2.3,0.5
		c0.8,0.7,1,0.6,1.6-0.7c-1.3-0.4-2.6-0.8-3.9-1.3c-0.6,0.8-1.2,1.5-1.8,2.3c-0.2-0.3-0.4-0.5-0.4-0.6c0.7-2.2,2.9-2.6,4.5-3.6
		c-0.5-0.9-1.2-0.7-1.8-0.5c-1,0.4-1.7,0.1-2.4-0.7c1-1.1,2.6-0.2,3.5-1.4c-0.7-1.5-3-2.3-1.9-4.4c-1.1-0.9-2-1.8-3-2.6
		c-0.2,0.5-0.4,1-0.6,1.7c-0.9-1.3-0.5-2.3-0.1-3.3c0.5-0.1,0.9-0.2,1.6-0.3c-1-0.9-1.8-1.6-1.6-2.8c1-0.3,1.4,0.5,1.9,1.1
		c0.5-1.1-0.9-1.9-0.1-2.9c0.9,0.3,0.7,2.2,2.3,1.5c-0.7-0.7-1.3-1.4-1.9-2.1c0.3-0.5,0.5-0.9,0.8-1.4c0.3-0.5,0.2-1.3,1.2-1.2
		c0.1,0.4,0.1,0.8,0.2,1.2c0.4-0.6,0.5-1.1,0.4-1.7c-0.1-0.8-1.6-1.4-0.3-2.4c0,0,0-0.1-0.1-0.2c-0.3-0.1-0.5-0.2-0.9-0.3
		c0.2-0.4,0.3-0.7,0.5-0.9c-0.5-0.4-0.9-0.8-1.5-1.3c0.9-0.1,1.6-0.2,2.3-0.3c-0.5-0.8-1.6-0.8-1.5-1.8c1-0.8,2.4,0.4,3.6-0.9
		c-0.6,0-0.9-0.1-1.3,0c-1.8,0.5-2.4-0.6-2.9-1.8c-0.4-1.2-0.3-2.5-0.4-3.7c0.9-0.4,2,0.1,2.6-0.8c-1-0.9-2-1.8-3.1-2.7
		c-0.1-0.1-0.2-0.2-0.3-0.2c-0.4-0.1-0.8-0.2-1.2-0.3c-0.4-0.1-0.8,0-1.3-0.1c-0.2-0.8-0.3-1.6-0.5-2.3c0,0,0,0,0,0c0,0,0,0,0,0
		c-0.3,0.2-0.6,0.4-1,0.6c0.3-0.9,0.3-0.9,1-0.6c0,0,0,0,0.1,0c0,0,0,0,0,0c0.8-1,2-0.2,3-0.5c0.1-0.4,0.1-0.8,0.2-1.2
		c-0.6-0.1-1.1-0.4-1.1-1.1c0-0.7,0.5-0.9,1.1-1.1c0.6-0.2,1.3-0.3,1.9-0.5c0.2,0,0.3-0.2,0.5-0.3c-0.2-0.4-0.4-0.8-0.6-1.2
		c0.2-0.1,0.3-0.3,0.4-0.4c0.6-0.2,1.1-0.4,0.9-1.1c-0.2-0.6-0.7-0.5-1.2-0.5c-0.6,0-1.1-0.1-1.6-0.2c-0.2-1.5,1.4-0.9,1.7-1.9
		c-1-0.4-1.5,0-2.1,0.6c-0.6,0.6-1.2,1.2-1.9,1.7c-0.2,0.2-0.6,0.1-1.1,0.1c0.3-1,1.9-1.4,0.9-2.8c-0.6,0.3-1.2,0.7-1.9,1
		c0.3,1.9,0.2,2-1.5,2.9c-0.1-0.1-0.2-0.2-0.2-0.3c-0.1-0.8,0.3-1.7-0.1-2.6c-0.2-0.4,0.3-1.1,0.6-1.6c0.3-0.4,0.8-0.8,1.3,0
		c0,0.1,0.4,0,0.6-0.1c0.5-0.2,1.1-0.4,1.6-0.7c0.5,0.7,0.9,1.4,1.8,0.8c-0.4-1.4-2.3-1.3-2.8-2.8c0.3-0.4,0.6-0.9,1-1.4
		c-0.2-0.2-0.4-0.3-0.5-0.3c-1.7-0.7-1.8-1.3-1-2.9c0.3-0.5,0.6-1,0.8-1.5c-0.5-0.6-0.8-1.2-1.2-1.7c-0.2-0.2-0.5-0.3-0.7-0.5
		c-0.7-0.4-1.4-0.8-2.4-1.3c-0.3,0.2-1,0.4-1.6,0.8c-0.7,0.4-1.2,0.2-1.6-0.5c0.6-0.7,1.1-1.2,1.6-1.8c0.4-0.5,0.9-0.6,1.4-0.4
		c0.3,0.1,0.6,0.1,0.9,0.2c0-0.1,0-0.1,0.1-0.2c-1.1-0.5-2.3-0.9-3.5-1.4c0.9-1.4,0.9-1.4,2-1c0.4,0.2,0.8,0.3,1.2,0.5
		c-0.5-0.6-1.1-1.1-1.6-1.7c0.1-1.2,1.1-1.2,2-1c-0.6-1.4-2-2.2-2-3.7c0.6,0,1,0,1.4,0.1c0.3-1.6-1.9-1.5-1.5-3
		c-1.1-0.3-2.2-0.1-3-0.9c0.6-1.3,1.6-0.2,2.3-0.4c0.8-1.2-0.6-1.6-0.8-2.7c0.9-0.6,1.9-1.1,2.9-1.7c-1.2-0.9-1.2-0.9-3,0.5
		c-0.3-0.2-0.6-0.5-1.1-0.9c0.9-0.2,1.5-0.4,2.3-0.6c-0.7-0.7-1.4-0.6-2-0.5c-0.7,0.1-1.3,0.3-2.1,0.4c0.3-1,0.5-1.7,0.7-2.4
		c-1.5-1.2-1.5-1.2-1-3.1c0.1-0.3,0.2-0.6,0.2-0.9c0-0.3-0.2-0.6-0.4-1c-1.1,0.3-1.4,0.9-1.4,1.9c0,0.7,0.2,1.4,0,2
		c-0.2,0.7-0.6,1.4,0,2.2c-1.4-0.3-2.5-0.6-3.6-0.9c-0.4-1-0.9-1.9-1.3-3c-1.3,0.4-2.3,0.7-3.2,0.9c-0.4-0.6-0.6-1.1-1-1.5
		c-0.4-0.4-1.2-0.4-0.8-1.6c1.7,0.8,3.1-0.4,4.8-0.7c-0.4-1-0.9-1.6-1.8-1.5c-1.1,0.1-1.9-0.7-2.8-1C28,45.7,28,45.3,28,45
		c1.8-0.6,3.3,0.9,5,0.8c-0.1-1.8-0.1-1.8,1.4-1.5c1.2,0.2,2-0.3,3-0.8c-1.4-1.8-3.6-1.3-5.2-2.4c-0.2-0.1-0.6,0.2-0.9,0.2
		c-0.8,0.1-1.6,0-2.4,0.1c-0.7,0.1-1.5,0.2-2.3,0.3c0.4-1.2,0.4-1.4,1.3-1.3c1.4,0.1,2.4-0.7,3.6-1.3c-1-0.7-2-0.6-2.9-0.6
		c-1.4-0.1-2.4-0.8-3-2.2c2.4-0.3,4.6-0.6,6.9-0.9c0.3-0.5,0.7-1.1,1.1-1.7c-1.7-1.2-2.9,0.5-4.3,0.5c-0.4-0.5-0.8-1-1.2-1.4
		c-0.5-0.4-1-0.7-1.6-1.2c1.4-1.3,3.7-0.1,4.4-2.3c-1.1-0.3-2.2-0.5-3.2-0.9c-1-0.4-1.8-1.1-2.8-1.7c-2.1,0.4-2.8,0.1-3.4-1.4
		c1.1-0.2,2.2-0.5,3.3-0.7c0.3,0,0.6,0.1,0.9,0.2c0.5,0.2,1,0.5,1.4,0.8c1.8,1.1,3.5,0.2,3.9-2c-0.1-0.1-0.2-0.2-0.3-0.2
		c-2.2-0.3-2.3-0.4-2.3-2.6c0-0.9-0.4-1.1-1.2-1.3c-1.4-0.3-2.8-0.7-4.2-1.1c-0.5-0.1-1.3-0.2-1.2-0.9c0.2-1,1-0.2,1.5-0.4
		c0.1,0,0.2-0.1,0.4-0.2c0-0.3,0.1-0.7,0.1-1.1c0,0,0,0,0,0c0,0,0,0,0,0c-0.3,0.1-0.5,0.2-0.8,0.2c-0.1,0-0.3-0.1-0.5-0.3
		c0.1-0.8,0.5-1.3,1.4-1.5c0,0.6-0.1,1-0.1,1.5c0,0,0,0,0.1,0c0,0,0,0,0,0c0.7-0.3,1.4-0.5,2.1-0.8c-0.2-1.2-1-2-1.7-2.8l-0.1,0
		l0-0.1c0,0,0,0,0,0l0,0c0.4-1,1.3-1.3,2.3-1.7c0.5-0.2,1-0.6,1.5-1c0.1-0.1,0-0.5-0.1-0.6C27.6,9,27.3,8.9,27.1,9
		c-0.3,0.2-0.6,0.6-1.1,1.2c0.2-1.3-0.3-1.8-1.2-2.1c-1.3-0.4-1.4-0.8-0.6-2c0.3-0.5,0.6-0.9,0.9-1.4c-0.5-0.5-1-0.4-1.4-0.1
		c-0.5,0.4-0.9,0.9-1.3,1.2c-0.3,0.2-0.7,0.3-1.1,0.4c0.6-0.7,1.1-1.3,1.6-1.9c0.1-0.1,0-0.3,0-0.6c-0.5,0.1-0.9,0.2-1.4,0.3
		c-0.5-1.5,1.4-1.2,1.4-2.4c-1.1-0.6-1.9-1.9-3.4-1.6c-0.5,0.8-0.9,1.4-1.3,2c0.6,1,2.1,1.1,2.2,2.6c-1,0.1-1.4-1.5-2.7-0.7
		c0.3,0.3,0.6,0.5,0.8,0.7c0.3,0.2,0.6,0.3,1,0.5c-0.5,0.3-0.9,0.6-1.2,0.8c0.4,0.3,0.8,0.5,1.6,1c-2.2,0.5-3.9-0.4-5.6-1
		c-0.2,2.1,0,2.3,1.6,2.4c1.5,0.1,3,0.2,4.7,0.2c0.1-0.1,0.2-0.5,0.5-1c0.9,0.9,2.6-0.4,3.1,1.4c-0.8,1-1.6,0.3-2.2,0.1
		c-0.8,0.4-1.5,1-2.2,1c-1.5,0.1-3-0.1-4.5-0.2c-1.4,2.3-1.2,3.1,0.9,3.4c-0.1-0.4-0.3-0.9-0.4-1.3c2.6-0.8,2.6-0.8,3.2,0.2
		c-0.3,0.2-0.5,0.3-0.8,0.5c-0.3,0.2-0.5,0.5-0.7,0.8c-1.2,1.3-2.1,1.3-3.5,0.1c-2.4,0.9-2.9,1.3-2.6,2.4c1-0.2,1.9-0.4,2.9-0.6
		c0.1,0.6,0.2,1,0.3,1.4c1,0.1,1-1.3,2.1-0.8c0,0.4,0.1,1,0,1.5c0,0.2-0.5,0.6-0.6,0.6c-1.1-0.7-1.6,0.7-2.4,0.6
		c-0.9-0.2-1.1-1.6-2.2-0.9c0,1.6,0,1.6-1.6,1.7c-0.1,0-0.1,0-0.2,0c-0.6,0-1.2-0.1-1.4,0.6c-0.2,0.7-0.5,1.5,0.4,2.1
		c0.5-0.3,0.9-0.6,1.4-1c0.5,0.3,0.9,0.6,1,0.7c2-0.5,3.7-0.9,5.4-1.2c0.3-0.1,0.7,0.3,1,0.5c-0.2,0.2-0.4,0.6-0.7,0.6
		c-0.8,0.2-1.2,0.9-1.4,1.5c-0.2,1-0.9,1.6-1.3,2.4c-0.3,0-0.5,0-0.6-0.1c-0.6-0.2-1.1-0.5-1.7-0.7c-1.4-0.6-2-0.1-1.8,1.4
		c0,0.1-0.1,0.2-0.1,0.3c-0.4,0.3-0.8,0.5-1.3,0.8c0.4,0.4,0.6,0.7,0.9,1c0.2,0.3,0.4,0.6,0.8,1.2c-0.9-0.2-1.5-0.6-2-0.5
		c-0.5,0.1-1,0.7-1.3,1.1c-0.3,0.5,0.3,1.4,1.3,1.9c0.2-0.5,0.4-1,0.6-1.4c0.7,0,1.4-0.2,2,0c0.9,0.4,1.4,0,1.9-0.5
		c1.1-1,2.3-2,3.4-3c0.9-0.8,1.2-0.7,2,0.6c-1.3,1.7-3.8,2-4.9,4.5c1-0.2,1.7-0.5,2.4-0.4c0.7,0.1,1.3,0.6,2,0.9
		c-0.4,0.7-0.7,1.2-0.9,1.4c-1.8,0.2-3.3,0.4-4.8,0.5c0.1,0.7,0.1,1.1,0.2,1.6c-0.6-0.1-1.1-0.1-1.5-0.2c-0.4,0.6-0.7,1.1-1,1.7
		c0,0.1,0.1,0.3,0.1,0.4c1.1-0.7,2.1-0.7,3.2-0.3c0.2,0.1,0.7-0.2,1-0.4c0.6-0.4,1.2-0.9,1.7-1.3c0.7-0.5,1.3-1.1,2.3-1.2
		c-0.8,1.5-1.5,2.8-2.3,4.3c0,0-0.1,0.1-0.3,0.1c-0.9,0.2-1.9,0.3-2.2,1.5c-0.3,0.8-1,0.6-1.7,0.4c-0.1,0.4-0.1,0.7-0.2,0.9
		C10.6,42.7,9.8,42.7,9,43c-0.3,0.1-0.7,0.6-0.7,0.9c0,0.3,0.4,0.9,0.6,0.9c0.9,0.1,1,1,1.5,1.6c0.5-0.2,1.1-0.3,1.4-0.6
		c0.6-0.7,1.3-0.8,2.1-0.6c0.8,0.2,1.5-0.1,2.1-0.7c0.4-0.4,0.9-0.7,1.2-1.1c0.7-0.9,1.4-1.2,2.5-0.9c0.5-0.7,0.9-1.4,1.4-2
		c0.3,0.4,0.5,0.6,0.8,0.9c0.2,0.2,0.5,0.3,1,0.6c-0.6,0.2-0.8,0.2-1,0.3c-1.2,0.4-2.6,0.5-3.5,1.3c-1.3,1.1-2.5,2.1-4.1,2.5
		c-0.1,0-0.2,0.3-0.3,0.4c0.3,0.3,0.6,0.5,0.9,0.7c-0.2,0.7-1.2,0.8-1.1,1.8c0.4-0.2,0.6-0.4,0.9-0.5c0.3-0.1,0.5-0.3,0.8-0.4
		c0.3,1.6-0.1,2.2-1.5,2.1c-1-0.1-2-0.5-3-0.7c-1.6-0.4-3.2-0.9-4.7,0.1c-1.1,0.8-2.1,0.5-3.4-0.1c0-1-0.1-2-0.1-3c0-2,0.1-4,0-6
		c-0.1-1.9-0.6-3.7-2.7-4.5v20.8c0.8-0.6,1.7-1.1,2.6-1.8c0.1,0.5,0.3,1.1,0.5,1.7c1.4,0.1,2.9,0.3,4.3,0.4C8,56.9,8.4,56.6,8.6,56
		c0.4-1.1,1.3-1.4,2.2-1.3c1.2,0.2,2-0.2,2.5-1c1.4,0.1,2.6,0.2,4.3,0.3c-1.9,0.9-3.4,1.5-4.8,2.4c-2,1.3-4.2,1.3-6.5,1
		c-0.7-0.1-1.4-0.4-2.2-0.6c-1.3,0.3-1.3,1.5-1.4,2.7c-0.3-0.1-0.6-0.2-0.9-0.3l0,0C1.3,59.2,0.7,58.7,0,59v27.4c0.1,0,0.2,0,0.4,0
		c1.7,0.1,2.2,0.4,2.4,1.4c0.4,1.6,0,2.3-1.4,3.1C1.3,91,1.1,91,0.9,91c-0.3-0.3-0.6-0.6-0.9-1v120.7c1.2,0.5,2.2-0.2,3.3-0.3
		c0.1,0,0.3,0,0.4,0c0,0.1,0,0.2,0,0.2c0,0-0.1,0.1-0.1,0.1c0.1,0.9,0.3,1.9,0.3,2.8c-0.1,1-0.8,1.2-1.7,0.7c-0.7-0.4-1.5-0.7-2.3-1
		v16.1h7.7c0.2-1.4-0.3-2.9,0.6-4.2c0.1-0.2,0-0.6-0.1-0.9c-0.4-1-0.7-2.1-0.2-3.2c0.1-0.2,0.1-0.4,0-0.5c-1-3.2,0.1-6.5-0.1-9.7
		c-0.2-2.9,0.7-5.8-0.2-8.7c-0.2-0.6,0-1.4,0.1-2.2c1,0.2,1.1,0.8,1.2,1.5c0.2,1.4,0.6,2.8,0.5,4.1c-0.1,1.7,0.4,3.3,0.2,4.9
		c-0.2,1.4-0.2,2.6,0.5,3.8c0.2,0.4,0.1,1,0,1.6c-0.2,0.8-0.5,1.6-0.8,2.5c0.7,0.6,1.2,1.3,0.6,2.1c-0.9,1.2-0.7,2.5-0.6,3.9h1
		c-0.9,1.6-0.2,3.3-0.3,4.9h4c1.4-0.8,1.5-2,1-3.4c-0.5-1.4-0.8-2.8-1.2-4.2c-0.3-0.9-0.3-0.9,0.1-2.4c1,2.8,1.1,5.6,3,7.9
		c1.7-1.4,3.3-2.7,4.9-3.9c0.1-0.9,0-1.8,0.2-2.6c0.3-1.1,0.1-2-0.1-3c-0.4-1.6-0.7-3.2-1-4.8c-0.1-0.8,0-1.5,0.3-2.3
		c0.4-1,0.1-2.2,0.3-3.4c0.2-2.1-0.5-4.2,0-6.4c0.2-0.9-0.1-1.9-0.3-2.9c-0.1-0.8-0.4-1.6-0.6-2.5c-0.4-1.9,0.5-3.6,0.8-5.4
		c0.5,1.7,1.7,3,1.2,5.1c-0.6,2.7-0.2,5.5,0.7,8.2c0.2,0.5,0.1,1.1,0,1.6c-0.1,0.9-0.2,1.8-0.3,2.7c0.5,0.2,0.8,0.3,1.2,0.4v14.5
		c1.5-0.9,2.8-1.7,4.1-2.5c0.9-0.6,1.8-1,2.8-0.5c0.4-1.5-0.1-3,0.1-4.4c0-0.1,0-0.2,0.1-0.2c0.1-0.3,0.2-0.6,0.4-0.9
		c0,0,0,0.1,0,0.1c0.2-0.4,0.5-0.8,0.7-1.3c0-0.3,0.1-0.6,0.3-0.8c-0.1-0.3-0.3-0.6-0.4-1c-0.1-0.2-0.2-0.4-0.3-0.8
		c0.4,0.3,0.6,0.4,1,0.6c-0.3-1.8-2.2-2.3-2.8-3.7c-0.6-1.5-1.3-2.9-1.9-4.3c-0.6-1.4-1-2.9-1.2-4.7c1,0.2,1.1,0.9,1.3,1.5
		c0.8,2.8,2.3,5.2,3.8,7.6c0.8,1.2,1.6,2.4,2.6,3.7c0.4-0.6,0.7-1,0.9-1.4c0,0,0.1,0,0.1,0c0-0.1,0-0.1,0.1-0.2
		c0.2-0.4,0.5-0.7,0.8-1.1c0.3-0.4,0.7-0.7,1.1-1c0.5-0.4,0.9-0.7,1.5-1c0.4-0.3,0.5-0.6,0.7-0.6c1.8,0,3.6,0,5.4,0
		c0.3,0,0.6,0.1,0.9,0.3c0.1,0.1,0.2,0.1,0.3,0.2c0.3,0.1,0.5,0.2,0.8,0.2c0.3,0,0.6,0,0.8,0c0,0,0.1,0,0.1,0
		c0.1-0.3,0.4-0.5,0.7-0.7c-0.4-1.4-1-2.7-0.8-4.2c0.1-0.7-0.3-1.6-0.6-2.4c-0.5-1.2-0.4-1.4,0.6-2.5c0.7-0.7,0.3-1.6,0-2.5
		c-0.2,0.4-0.3,0.8-0.5,1.3c-0.2-0.1-0.5-0.2-0.5-0.3c0-0.6,0-1.2,0-1.8c0,0,0,0,0,0c0-0.1,0-0.2-0.1-0.3c0,0,0,0,0,0
		c-0.1-0.1-0.1-0.2-0.1-0.4v-1.1c-0.1-0.7-0.1-1.4-0.2-2c0,0,0,0,0,0c0-0.4,0.2-0.9,0.6-1c0.2-0.4,0.4-0.7,0.6-1
		c-0.1,0-0.3-0.1-0.4-0.2c0,0,0,0-0.1,0c0,0,0,0,0-0.1c-0.2,0-0.5,0-0.5-0.1c-0.2-0.7-0.4-1.5-0.4-2.2c0-0.4,0.2-0.8,0.4-1.2
		c0.1,0,0.2,0,0.4,0.1c0,0.3,0.1,0.7,0.1,1.2c1.7-0.8,3.3-1.5,5-2.3c0,0.9-0.5,1.2-0.9,1.4c-0.7,0.4-1.4,0.7-2.2,0.9
		c-1.2,0.3-1.9,1-1.9,2.3c0,0,0,0,0,0c0,0,0,0,0,0c0.7-0.5,1.3-1,2-1.4c0.8-0.4,1.6-0.7,2.5-0.2c0.3-0.3,0.6-0.7,0.9-1
		c0.8-0.8,2-1.3,2.8-2.2c0.4-0.5,0.6-1.2,0.9-1.9c0.2-0.6,0.4-1.2,0.7-1.8c-0.7,0.2-1.4,0.3-2.2,0.3c0.7-0.8,1.2-1.4,1.8-2.2
		c0.4,0.2,0.7,0.3,1.1,0.5c0.4-0.7,1-1.3,1.5-1.8c0.4-0.4,0.8-0.7,1.3-0.9C60.3,174.4,59.9,173.9,59.6,173.4z M56,149.1
		c0.6,0.7,0.4,1.2-0.3,1.7C55.3,150.1,55.4,149.6,56,149.1z M52.6,137.4c-0.1-0.1-0.2-0.2-0.3-0.3c0.3-0.3,0.6-0.6,1-1
		C53.4,137,53,137.2,52.6,137.4z M52.4,134.3c0.1-0.1,0.2-0.1,0.3-0.2c0.1,0.2,0.2,0.3,0.2,0.5c0,0.2-0.2,0.4-0.3,0.6
		c-0.1-0.1-0.3-0.2-0.4-0.3C52.2,134.7,52.3,134.4,52.4,134.3z M50.1,93.9c0.1,0.3,0.1,0.6,0.2,0.9c-0.1,0-0.2,0.1-0.3,0.1
		c-0.1-0.3-0.2-0.5-0.3-0.8C49.8,94,49.9,94,50.1,93.9z M49.3,95.5c0.1,0.9,1.7,1.6,0.3,2.9c-0.6-1.1-1.1-2-1.7-3.1
		C48.5,95,49.2,94.8,49.3,95.5z M48.3,84.8c0.2,0,0.3,0.2,0.5,0.3c-0.1,0.2-0.2,0.4-0.7,1.1c-0.1-0.5-0.3-0.7-0.2-0.9
		C47.9,85.1,48.2,84.9,48.3,84.8z M47.3,79.3c0.8,0,1,0.7,1.2,1.8c-0.8-0.3-1.3-0.4-1.8-0.6C46.6,79.8,46.8,79.3,47.3,79.3z
		 M26.3,20.4c0.7,0,1.1,0.4,0.9,1.3h-2.5C24.8,20.7,25.6,20.4,26.3,20.4z M12.7,27.3c-0.2-0.1-0.4-0.3-0.6-0.4
		c0.1-0.1,0.2-0.2,0.6-0.8c0.1,0.4,0.2,0.6,0.2,0.8C12.9,27,12.8,27.2,12.7,27.3z M17.5,31.9c-0.1,0-0.3-0.3-0.4-0.4
		c0.2-0.1,0.3-0.3,0.5-0.4c0.1,0,0.2,0.2,0.4,0.4C17.9,31.7,17.7,31.9,17.5,31.9z M7.6,53.9c-1.2,0.9-2.3,0.5-3.1-1
		c0.7-0.6,1.3,0.3,2.1,0.1c0-0.2,0-0.5,0-0.7c0-0.2-0.1-0.5-0.1-0.6c1.4-1.4,2.1,0,3.1,0.6C8.8,52.9,8.2,53.4,7.6,53.9z M10.9,50.9
		c-0.1,0-0.2-0.2-0.4-0.4c0.2-0.1,0.4-0.2,0.5-0.2c0.1,0.1,0.2,0.2,0.3,0.4C11.2,50.7,11,50.9,10.9,50.9z M2.2,108.2
		C2.2,108.3,2.2,108.3,2.2,108.2C2.2,108.3,2.2,108.3,2.2,108.2c0,0.3,0,0.6,0.1,0.9C1.7,108.8,1.6,108.8,2.2,108.2
		C2.1,108.3,2.1,108.3,2.2,108.2C2.2,108.2,2.2,108.2,2.2,108.2c0.1-0.2,0.3-0.5,0.4-0.7C2.9,108.1,2.5,108.2,2.2,108.2z M2.6,99.7
		l-0.1-1.1c0.1,0,0.1,0,0.2,0c0,0.4,0,0.7,0.1,1.1C2.8,99.7,2.7,99.7,2.6,99.7z M54.8,148.6c-0.3,1.4-1.2,1.7-2.2,2.3
		C52.6,149.4,53.5,149.1,54.8,148.6z M54.5,162.1c-1-0.2-1.8,0.3-2.8-0.2C53,161.1,53.3,161.1,54.5,162.1z M53,156.4
		c-1.1,1.8-1.1,1.8-2.4,0.5C51.5,156.7,52.2,156.6,53,156.4z M51,150.9c-0.1,0-0.3-0.2-0.3-0.2c0-0.1,0.1-0.3,0.3-0.4
		c0.1,0,0.3,0.1,0.5,0.2C51.2,150.7,51.1,150.9,51,150.9z M51.3,134.8c-0.7,0.2-1.3-0.7-1.8,0c-0.3,0.4-0.8,0.8-1.4,1.4
		c0-1.8,1.4-2,1.8-3.1C50.6,133.6,51.3,133.9,51.3,134.8z M45.3,186.8C45.3,186.8,45.2,186.8,45.3,186.8c-0.1,0.3-0.2,0.7-0.3,1
		c-0.1,0.2-0.5,0.3-0.7,0.3c-0.1,0-0.4-0.2-0.4-0.3c0-0.3,0.1-0.7,0.3-0.8C44.5,186.8,44.8,186.8,45.3,186.8
		C45.2,186.7,45.2,186.7,45.3,186.8C45.2,186.7,45.2,186.7,45.3,186.8c-0.5-0.7-0.7-1.5-1.7-1.7c-0.8-0.2-0.7-0.8,0-1.8
		c0.7,0.8,1.4,1.6,2,2.4C45.9,186.1,45.7,186.5,45.3,186.8C45.3,186.7,45.3,186.7,45.3,186.8z M45,112.2c-0.9,0.5-0.9,0.5-1.6-0.4
		C43.8,111.9,44.3,112,45,112.2z M43.6,93.1c0.2,0.1,0.4,0.2,0.4,0.4c0,0.1-0.1,0.3-0.1,0.4c-0.2-0.1-0.4-0.2-0.5-0.3
		C43.3,93.5,43.5,93.3,43.6,93.1z M44.9,96.8c0-0.1,0.2-0.4,0.4-0.4c0.2,0,0.4,0.2,0.5,0.4c0,0.1-0.2,0.3-0.3,0.6
		C45.2,97.1,44.9,97,44.9,96.8z M44.5,127c0.9,0.2,1.6,0.7,2.6,1.6c-1,0.1-1.7,0.1-2.3,0.1c-0.6,0.1-1.1,0.2-1.7,0.3
		c-0.1-0.1-0.1-0.2-0.2-0.3C43.4,128.1,43.9,127.6,44.5,127z M45.1,172.9c-0.6,2-0.6,2-2.5,2C42.9,174,42.9,174,45.1,172.9z
		 M43,170.5c0.2,0.5,0.4,0.8,0.4,1c-0.1,0.9-0.5,1.4-1.8,2.5C41.6,172.5,42.4,171.7,43,170.5z M43.2,179.7c0.6,0,1.3,0.1,1.9,0.4
		c0.4,0.2,0.1,1.2-0.5,1.7c-0.4,0.4-0.8,0.5-1.3,0c-0.4-0.4-0.8-0.8-1.4-1.3C42,179.9,42.6,179.7,43.2,179.7z M45.5,178.4
		c1.1-2.5,1.1-2.5,2.3-1.5C47.3,177.8,46.2,177.9,45.5,178.4z M47,151.9c-0.1-0.8-0.3-1.4-0.3-2c0-0.3,0.3-0.9,0.5-0.9
		c0.3-0.1,0.8,0.2,1,0.5C48.8,150.3,48.4,151.2,47,151.9z M46.7,147.6c0.2-0.5,0.4-0.9,0.6-1.5c0.8,0.8,1.6,0.8,2.7-0.1
		c-0.2,0.7-0.2,1.2-0.4,1.3C48.8,148,47.9,148,46.7,147.6z M47.7,141.1c0-0.1-0.1-0.2-0.1-0.3c0.4-0.4,0.8-0.8,1.3-1.1
		c0.1-0.1,0.6,0,0.6,0.2c0.1,0.2,0.1,0.7,0,0.7C48.8,140.8,48.3,141,47.7,141.1z M49.1,145.1c-0.1,0.1-0.2,0.1-0.2,0.2
		c-0.1-0.1-0.1-0.2-0.2-0.3c0.1,0,0.2-0.1,0.3-0.1C49.1,144.9,49.1,145,49.1,145.1z M49.8,131.9c-0.3,0.2-0.5,0.5-0.7,0.5
		c-0.2,0-0.4-0.3-0.6-0.4c0.1-0.1,0.3-0.4,0.4-0.4C49.1,131.6,49.4,131.7,49.8,131.9z M52.5,121.1c0,0.7-0.5,1-1.2,1.2
		c-0.1-0.8,0-1.4,0.7-1.5C52.2,120.7,52.5,120.9,52.5,121.1z M52,110.9c-1.4-0.9-2.2,0-3.3,0.2c-0.3-1.6,1-1.3,1.6-1.5
		C51.1,109.2,51.4,109.8,52,110.9z M49.3,105.6c0,0,0.2,0.3,0.2,0.4c0,0.1-0.2,0.3-0.4,0.3c-0.1,0-0.2-0.2-0.5-0.4
		C48.9,105.8,49.1,105.6,49.3,105.6z M48.3,112.2c-0.1,0.9-0.4,1.2-1.2,0.8C47.4,112.8,47.7,112.5,48.3,112.2z M47.8,114.1
		c0.4,0,0.9,0.2,1,0.5c0.3,0.5,0.1,1-0.7,1.5c-0.3-0.4-0.5-0.7-0.7-1.1c-2,0.2-2,0.2-2.3,1.7c-0.4-0.2-0.8-0.5-1.3-0.7
		C44.8,114.4,46.2,114,47.8,114.1z M46.3,83.2c-0.1,0.5-0.1,0.9-0.2,1.3h-2C44.7,83.6,45.3,83.3,46.3,83.2z M44.5,104.7
		c0,0,0.2,0.2,0.1,0.2c-0.1,0.1-0.2,0.2-0.4,0.4c-0.1-0.2-0.1-0.4-0.2-0.5C44.3,104.8,44.4,104.7,44.5,104.7z M44.1,81.4
		c-0.6,0.5-0.9,0.4-1.4-0.1C43.3,80.8,43.7,80.8,44.1,81.4z M43.4,83.4c-0.7,0.2-1.1,0.4-1.6,0.6c0-0.1-0.1-0.3-0.1-0.4
		C42.1,83.2,42.5,82.8,43.4,83.4z M42.3,63.6c0.3,0.1,0.6,0.2,0.8,0.4c-0.2,0.3-0.3,0.6-0.6,0.8c-0.2,0.2-0.5,0.2-0.9,0.3
		c-0.2-0.5-0.3-0.9-0.5-1.4C41.6,63.5,41.9,63.5,42.3,63.6z M40.3,67.4c0-0.1,0.5-0.2,0.6-0.1c0.4,0.4,0.4,0.8,0,1.2
		C40.3,68.2,40.1,67.9,40.3,67.4z M38.3,70.1c-0.5,0.5-0.9,0.8-1.4,1.3c0-0.4-0.1-0.6-0.1-0.7c0.6-0.7,0.4-1.3-0.3-1.8
		c-1.3-1.1-1.3-1.7,0.1-2.7c0.2-0.2,0.5-0.3,0.9-0.5c0.8,1.3-0.2,1.7-1,2.2C37.1,68.6,37.7,69.3,38.3,70.1z M38.3,104.9
		c-0.2,0.1-0.4,0.3-0.5,0.3c-0.1,0-0.3-0.2-0.3-0.3c0-0.1,0.2-0.3,0.3-0.4C37.8,104.5,38,104.7,38.3,104.9z M32,153.6
		c-0.9,0.3-1.5,0.5-2.4,0.8c0.2-0.7,0.4-1.1,0.6-1.7h-1.8c-0.4-0.8,0.5-1.1,0.7-1.6c-1-0.8-1.3,1-2.4,0.5c0.7-1.3,2.4-2.2,2.2-4
		c0.9,1.1,1.8,1.4,2.9,0.5C32.7,149.9,30.8,151.6,32,153.6z M27.8,148.5c-0.9,0.8-2.7,0.4-2.9-0.9c-0.3-1.7-0.3-3.5-0.4-5.4
		c0.9,0.2,1.5,0.3,2.4,0.4c-0.4,0.8-0.6,1.5-0.9,2.2C26.5,146.1,27.2,147.3,27.8,148.5z M24.2,112v-2.7c1.5-0.2,2.3,2,3.9,0.6
		c0,0.6,0.1,0.9,0.1,1.4c1.3-0.3,2.4-0.1,3.4,1.1c-0.2,0.3-0.5,0.7-0.9,1.3c-1.2-1.5-2.6-1.8-4.2-0.8v-1.4
		C25.7,111.7,25,111.8,24.2,112z M21.7,158.6c-0.7-1.4-0.7-4.4,0-5.8C22.1,154.8,22,156.6,21.7,158.6z M21.5,163
		c-0.5-0.7-0.5-1.1,0.1-1.7C22.1,162,22,162.5,21.5,163z M21.8,147.9c0,0.8-0.1,1.3-0.1,1.7C21,149.1,20.9,148.6,21.8,147.9z
		 M21.6,79.5c-0.2-0.9-0.4-1.4-0.5-1.9C22.3,77.8,22.3,77.8,21.6,79.5z M18.9,152.5c-0.8-0.5-0.5-0.9-0.1-1.5
		c0.2,0.4,0.3,0.6,0.3,0.8C19.2,152,19,152.2,18.9,152.5z M19,153.3c-0.1,0.1-0.3,0.1-0.4,0.2c0,0-0.2-0.2-0.1-0.3
		c0.1-0.1,0.2-0.2,0.4-0.3C18.9,153.1,18.9,153.2,19,153.3z M18.2,148.5c-0.1-0.2-0.3-0.4-0.3-0.4c0-0.1,0.2-0.2,0.3-0.3
		c0,0,0.2,0.2,0.2,0.2C18.5,148.1,18.4,148.2,18.2,148.5z M18,145.2c0-0.2-0.1-0.3-0.1-0.5c0.7-0.2,1.4-0.4,2.3-0.7
		c0,0.5,0.2,1.1,0,1.3C19.5,146,18.8,145.3,18,145.2z M15.9,116.3c0.2,0.7-0.3,1.2-0.6,1.8c0,0,0,0,0,0c0,0,0,0,0,0
		c0.2,0,0.4-0.1,0.4,0c0.1,0.1,0.1,0.3,0.2,0.5c-0.1,0-0.3,0-0.4-0.1c-0.1-0.1-0.1-0.3-0.2-0.4c0,0,0,0-0.1,0c0,0,0-0.1,0-0.1
		C14.6,117.1,14.6,117.1,15.9,116.3z M14,116.2c0.3-0.9,0.8-1.2,1.6-1.4C15.3,115.7,14.8,116,14,116.2z M14,145.8
		c-0.1,0.1-0.3,0.2-0.4,0.3l-0.2-0.3c0.1-0.1,0.3-0.2,0.4-0.2C13.9,145.5,14,145.7,14,145.8z M15.3,110.6c-0.1-0.3-0.3-0.5-0.2-0.6
		c0.1-0.1,0.2-0.3,0.4-0.3c0.1,0,0.2,0.2,0.4,0.3C15.7,110.2,15.5,110.4,15.3,110.6z M14.9,70.4c-0.1-0.1-0.1-0.3-0.2-0.4
		c0.1,0,0.3-0.2,0.4-0.1c0.1,0.1,0.1,0.3,0.3,0.5C15.1,70.4,14.9,70.5,14.9,70.4z M15,111.4c-0.1,0.2-0.2,0.3-0.4,0.5
		c-0.2-0.2-0.5-0.4-0.7-0.7c0,0,0.1-0.3,0.2-0.3C14.4,111.1,14.7,111.3,15,111.4z M14,82.8c-0.3-0.1-0.5-0.2-0.8-0.3
		c0-0.1,0-0.2,0.1-0.3c0.3,0,0.5,0.1,0.8,0.1C14.1,82.5,14.1,82.7,14,82.8z M13.8,142.7l0.1,0.4c-0.3,0-0.6,0-0.9,0.1
		c0-0.1,0-0.2,0-0.3L13.8,142.7z M13.3,148.7c0,0.2,0.5,0.4,0.8,0.7c0.4,0.4,1,0.8,1,1.3c0.1,0.7-0.8,0.8-1.3,1
		c-0.5,0.1-0.9,0.2-1.5,0.3c-0.3-0.8-0.8-1.2-1.6-1.4c-0.5-0.1-0.9-0.8-1.7-1.5c1.2-0.5,2-0.9,2.9-1.1
		C12.4,147.7,13.2,147.5,13.3,148.7z M17.8,68.4c0.4-0.5,0.5-1.5,2-1.3c-0.7,1-1.3,1.8-1.9,2.7c-0.6-0.1-1.2-0.1-1.8-0.2
		C16.1,68.4,17.3,69,17.8,68.4z M16.9,65.8c0.1-0.1,0.3-0.2,0.4-0.3c0,0.1,0.1,0.2,0.2,0.3c-0.1,0.1-0.3,0.2-0.4,0.2
		C17,66,16.9,65.8,16.9,65.8z M19.2,62c0.1,0.3,0.1,0.7,0.2,1.2C18.5,62.9,18.5,62.6,19.2,62z M18.9,54.7c0.8,0.6,0.9,1.2,0.4,2
		C18.9,56.1,18.5,55.6,18.9,54.7z M19.9,123.4c-0.9,0.1-1.2-0.1-1.3-0.9C19.3,122.4,19.7,122.5,19.9,123.4z M19.8,74.1
		c0.6,0.5,0.6,0.5,0.1,1.4C19.8,74.9,19.8,74.6,19.8,74.1z M18.2,98.1c0.3,0.3,0.6,0.6,0.6,0.7c-0.1,0.3-0.4,0.5-0.6,0.6
		C18,99.4,17.5,99,17.5,99C17.7,98.7,17.9,98.4,18.2,98.1z M17.9,95.6c0-0.1,0.3-0.3,0.4-0.2c0.1,0,0.3,0.3,0.2,0.4
		c0,0.1-0.2,0.2-0.4,0.4C18,95.9,17.8,95.7,17.9,95.6z M19.1,79.3c-0.7,0-0.9-0.4-0.7-0.9c0-0.1,0.3-0.2,0.4-0.2
		C19.5,78.4,19.4,78.8,19.1,79.3z M18.5,116.6c-0.2,0-0.6-0.3-0.6-0.5c0-0.8,0.5-1,1.4-1C19.3,115.9,19.3,116.5,18.5,116.6z
		 M19.2,73c-0.1,0.2-0.7,0.2-1.4,0.3c0.5-0.7,0.7-1.1,1.2-1.8C19.1,72.3,19.3,72.7,19.2,73z M17.9,92.4c-0.1,0.2-0.1,0.3-0.2,0.4
		c-0.1-0.1-0.3-0.1-0.4-0.2c0,0,0.1-0.3,0.1-0.3C17.6,92.3,17.7,92.4,17.9,92.4z M17.3,85.1c-0.1-0.1-0.2-0.2-0.3-0.4
		c0.1-0.1,0.2-0.1,0.3-0.2c0.1,0.1,0.2,0.3,0.2,0.4C17.5,85,17.3,85,17.3,85.1z M17,110.5c0.4,0.3,0.7,0.6,1.5,1.1
		c-1,0.2-1.6,0.3-2.3,0.5C16,111.3,16.4,111,17,110.5z M16.8,115.4c0.2-0.2,0.4-0.3,0.6-0.5c0.1,0.1,0.2,0.3,0.2,0.4
		c0,0.1-0.2,0.3-0.3,0.4C17.2,115.7,17,115.6,16.8,115.4z M16.9,133c-0.1,0.1-0.2,0.2-0.3,0.3c-0.1-0.1-0.2-0.1-0.2-0.2
		c0.1-0.1,0.1-0.2,0.2-0.2C16.7,132.9,16.8,132.9,16.9,133z M18.7,139.5v3.2c-1.7,0.4-1.7-1.5-2.9-1.7
		C16.8,139.9,16.8,139.9,18.7,139.5z M18.4,133c1.2,0,1.2,0,1,1.1C19.1,133.7,18.8,133.4,18.4,133z M19.1,125.2
		c0-0.2-0.1-0.3-0.1-0.5c0-0.2,0.1-0.3,0.2-0.7c0.2,0.6,0.4,0.8,0.3,0.9C19.5,125,19.2,125.1,19.1,125.2z M16.2,71.6
		c0.1,0.2,0.2,0.3,0.2,0.5c-0.2,0.1-0.3,0.2-0.5,0.3c-0.1-0.1-0.2-0.3-0.1-0.4C15.8,71.7,16,71.7,16.2,71.6z M16.1,153.4
		c0.1,0.1,0.2,0.2,0.3,0.3c-0.2,0.3-0.5,0.5-0.7,0.8c-0.1-0.1-0.2-0.2-0.3-0.3L16.1,153.4z M15.9,152.5c-0.2-1.6,1.3-1.6,2-2.6
		C17.7,152,17.6,152.1,15.9,152.5z M19.7,68.7l0.1-0.5c0.6,0.1,1.2,0.2,1.7,0.3L21.4,69C20.7,69.4,20.2,69.1,19.7,68.7z M25.5,57.8
		c0.4-0.5,0.7-0.9,1.1-1.3c0.6,0.3,1.1,0.6,1.7,0.9C27.4,58,26.6,58.1,25.5,57.8z M28,86.5c-0.2,0.1-0.3,0.4-0.5,0.4
		c-0.2,0-0.4-0.2-0.7-0.4c0.3-0.2,0.5-0.4,0.7-0.4C27.7,86.1,27.9,86.3,28,86.5z M24,82.5c-0.5,0.2-0.8,1.4-1.7,0.5
		c0.3-0.4,0.6-0.9,0.9-1.4c0.9,0.7,2.4,0.1,3,1.5C25.2,83.1,25.2,83.1,24,82.5z M25.8,89.7c-0.3,0.3-0.5,0.7-0.9,1.1
		c-0.2-0.2-0.4-0.4-0.4-0.5C24.5,89.6,25,89.5,25.8,89.7z M25.7,77.3c-0.1,0.3-0.4,0.5-0.7,0.6c-0.1,0-0.6-0.4-0.5-0.5
		c0.1-0.3,0.3-0.6,0.6-1.2C25.5,76.8,25.8,77.1,25.7,77.3z M22.6,74.8c1.5-0.9,1.9-0.8,2.6,1.2C24,76,23.2,75.6,22.6,74.8z
		 M22.7,68.8c-0.1-0.2,0.3-0.9,0.6-0.9c0.8-0.1,0.9,0.5,0.8,1.2C23.6,69.3,23,69.6,22.7,68.8z M22.6,60.7c0.6,0.2,1.3,0.3,2,0.5
		C23.6,62.3,23.4,62.3,22.6,60.7z M21.6,56.7c0.2-0.9,0.9-1,1.6-0.9c0.8,0.1,0.9,0.7,0.8,1.4C22.6,57.3,22.6,57.3,21.6,56.7z
		 M21.9,71.5c0.1-0.1,0.2-0.1,0.3-0.2c0.2,0.3,0.3,0.5,0.5,0.8c-0.1,0.1-0.2,0.1-0.3,0.2C22.2,72,22,71.7,21.9,71.5z M22.7,122.7
		c0.1,0.5,0.2,1,0.3,1.5C21.8,123.8,21.8,123.3,22.7,122.7z M22.9,97.6c0.1-0.3,0.5-0.6,0.8-0.6c0.3,0,0.6,0.3,0.8,0.5
		c0.5,0.7,0.7,1.5,1.3,2.2c0.6,0.7,1.4,1.2,2.4,0.5c0.3,0.7,0.6,1.3,0.9,2.1c0.9-0.6,1.8-0.8,2.8-0.4c-0.1,1.3-0.3,2.5-1.7,3.1
		c-0.4,0.2-1,0.4-1.2-0.2c-0.1-0.2,0.3-0.7,0.5-1c0.1-0.1,0.2-0.3,0.4-0.6c-0.9-0.2-1.7-0.3-2.6-0.5c-1.7-0.4-1.7-0.4-2-2.1
		c0-0.2-0.1-0.3-0.2-0.6c-0.7,0.1-1.3,0.2-1.9,0.3C22.4,99.3,22.5,98.5,22.9,97.6z M29.2,78.1l0.6-0.8c0.1,0.1,0.2,0.2,0.3,0.2
		c-0.2,0.3-0.4,0.6-0.6,0.8C29.4,78.3,29.3,78.2,29.2,78.1z M35.3,74.5c-0.1,0.1-0.1,0.2-0.1,0.3c-0.2-0.1-0.3-0.2-0.5-0.3
		c0.1-0.1,0.1-0.2,0.2-0.2C35,74.3,35.2,74.4,35.3,74.5z M35.3,73.3c0.2-0.1,0.3-0.1,0.5-0.1c0,0,0.1,0.2,0.2,0.3
		c-0.2,0.1-0.3,0.2-0.4,0.2C35.4,73.6,35.4,73.4,35.3,73.3z M36.1,105.1c-0.9,0.6-1.4,0.2-1.9-0.3c-0.5-0.6-1-1.1-0.4-2
		C34.6,103.6,35.3,104.3,36.1,105.1z M35.4,115.5c-1,0.2-1.6-0.4-1.7-1.2c-0.1-1.2,1-1.1,2-1.6C35.1,114.5,35.1,114.5,35.4,115.5z
		 M35.8,151.5c0.1,0.3,0.1,0.7,0.1,1c-0.2,0-0.4,0-0.6,0c0-0.4-0.1-0.7-0.1-1.1C35.4,151.5,35.7,151.5,35.8,151.5z M36.4,157.3
		c0,1-0.8,1.2-1.4,1.4C34.9,157.7,35.5,157.5,36.4,157.3z M32.2,90.8c0.2-1,0.2-1,1.3-0.9C33.2,90.2,32.8,90.4,32.2,90.8z M34.8,112
		c-0.3,0.6-0.8,0.8-1.5,1c-0.5,0.2-0.9,0.6-1.7,1c0.9-1.5,1-2.8-0.1-3.9C32.4,110.2,33.9,111,34.8,112z M33.3,123.9
		c-0.2-0.3-0.4-0.6-0.7-1C33.5,122.7,33.7,123,33.3,123.9z M24.7,106.5c0.1,0.3,0.4,0.6,0.4,0.9c-0.1,0.8-0.7,0.7-1.6,0.1
		C24,107.1,24.4,106.8,24.7,106.5z M25.8,116.5c-0.5,0.7-1.2,0.6-1.8,0.5c-0.3-0.1-0.3-0.2-0.4-1.5
		C24.5,115.8,25.1,116.1,25.8,116.5z M30.3,138.1c0.3,0.5,0.5,0.8,0.8,1.3C30.3,139,30.3,139,30.3,138.1z M31.7,136.3
		c-0.1-1.5,0.6-1.7,3-0.8C33.8,136.4,32.7,136.1,31.7,136.3z M34.4,152.7c-0.8-0.6-0.6-1.2-0.4-2.2C34.9,151.4,34.8,152,34.4,152.7z
		 M32.8,158.7c0.1-0.4,0.2-1.1,0.9-0.9c0.7,0.2,0.4,0.8,0.2,1.2c0,0.1,0,0.2,0,0.6c0.5,0,0.9-0.1,1.3-0.1c1.2-0.2,2.6,0.8,2.8,2
		c0,0.2-0.1,0.4-0.3,1c-0.5-0.9-0.9-1.4-1.2-1.9c-1.2,0.1-1.8,0.7-2,1.8c-0.1,0.5-0.2,1.1-0.4,1.6c-0.1,0.3-0.5,0.6-0.8,0.9
		C32.7,163.4,32.4,159.8,32.8,158.7z M33.4,57.5c0.7,0.5,1.4,1.1,2.4,1.9v-1.7c1.8,0.6,2,1.3,1.4,4.1c-0.7-0.1-1.4-0.1-2.1-0.2
		c-0.2,0-0.5-0.1-0.5-0.2c-0.3-1.5-1.3-1.2-2.4-1.2c-0.6,0-1.2-0.3-1.3-0.9C31.9,58.6,32.6,58.1,33.4,57.5z M35,64.6v-1.8
		c0.9,0.4,1.5,0.7,2.3,1.1c-0.2,0.5-0.3,0.9-0.6,1.2c-0.9,1-1.8,2-2.8,2.9c-0.3,0.3-0.9,0.4-1.3,0.4c-0.3,0-0.6-0.4-1.2-0.8
		c0.9-0.2,1.4-0.3,1.9-0.5c0.2-0.1,0.5-0.6,0.5-0.8c0-0.3-0.4-0.6-0.7-0.7c-0.8-0.1-1.5,0-2.6,0C31.3,64.3,31.3,64.3,35,64.6z
		 M31.2,70.8c0.1,0.1,0.2,0.3,0.4,0.4c-0.4,0.4-0.7,0.7-1.3,1.3C30.1,71.2,30.7,71.1,31.2,70.8z M30.4,60c-0.3,0.5-0.7,0.7-1.3-0.1
		c0.6-0.2,0.9-0.3,1.3-0.4C30.4,59.8,30.5,59.9,30.4,60z M29.8,55.1c-1.2,0.4-1.9,0.5-2.8-0.4C28.2,53.9,28.8,54.6,29.8,55.1z
		 M27.2,51.6c-0.4,0.1-0.8,0.1-1.1,0.1c0-0.2,0-0.3,0-0.5c0.4,0,0.9-0.1,1.4-0.1C27.4,51.3,27.3,51.6,27.2,51.6z M26.3,45.3
		c0.5,0.8,0.5,1.4-0.1,2.4C25.7,46.7,25.6,46.1,26.3,45.3z M25.8,52.8c0.1,0.7,0.1,0.7-0.9,0.8C25.2,53.3,25.4,53.1,25.8,52.8z
		 M25.4,41.7c-0.6,0.6-1,0.1-1.7-0.2c0.6-1,1.1-1,1.7-0.5C25.6,41.2,25.5,41.6,25.4,41.7z M25.3,33.9c-0.6-0.1-1-0.2-1.6-0.4
		C24.9,32.5,24.9,32.5,25.3,33.9z M24.6,36.7c-0.1,0.2-0.1,0.4-0.3,0.6c-0.2,0.2-0.4,0.3-0.8,0.6C23.2,36.9,23.8,36.7,24.6,36.7z
		 M21,14.1c0.6,0.4,1,0.9,0.7,1.7C20.4,15.3,20.3,15.1,21,14.1z M22.3,20.5c0.2,0.7,0.3,1.2,0.4,1.7c-1,0.2-1.7,0.1-2.4-0.7
		C21,21.2,21.6,20.9,22.3,20.5z M20.1,26c0.2,0.6,0.4,1.2,0.6,1.8c-0.8,0.4-1.2,0.2-1.4-0.4C19.2,26.9,19.3,26.4,20.1,26z M21,32.2
		c-0.4,0.9-1.2,0.6-1.9,1C19.7,32.1,19.7,32.1,21,32.2z M19.4,41.1c0,0-0.3,0-0.3,0c0-0.3,0-0.6,0-0.9c0.2,0,0.3,0,0.5,0
		C19.5,40.6,19.5,40.9,19.4,41.1z M19.6,37.3c0.8,0.1,0.8,0.1,1.2,1C19.8,38.1,19.8,38.1,19.6,37.3z M21.9,36.9
		c-0.4-0.1-1,0-1.3-0.9c1.8-0.3,1.1-2.1,2.1-3.4c0.1,0.7,0.1,1.1,0.2,1.5c0.1,0.3,0.2,0.7,0.3,1C22.8,35.7,22.4,36.2,21.9,36.9z
		 M24.1,45.5c-0.8,0.8-1.7,0.9-2.7,0.6C22.2,44.7,22.7,44.6,24.1,45.5z M20.8,58c0,0.2-0.1,0.4-0.3,0.7c-0.2-0.4-0.5-0.5-0.4-0.7
		c0-0.2,0.3-0.3,0.4-0.4C20.6,57.8,20.8,57.9,20.8,58z M16.6,46.2c0.5-0.5,1.2-0.8,1.8-1.1c0.2-0.1,0.7,0.1,0.8,0.2
		c0.2,0.5,0.2,1.3,1.1,1.1v1.1c-1.3,0.2-1.9-0.6-2.5-1.2c-0.2,0.5-0.5,0.9-0.8,1.4C16.2,47.2,16.1,46.7,16.6,46.2z M15.9,52.6
		l-0.2-0.3l1.8-1.7c0,0,0,0,0-0.1h-0.9c0.5-0.5,0.5-0.5,0.9,0h0.1c0,0,0,0-0.1,0.1c0,0,0,0,0,0c0.3-0.1,0.9-0.4,1-0.3
		c0.7,0.7,1.4,0.2,2.1-0.1c0.4,1-0.1,1.4-0.8,1.5c-0.7,0.1-1.4-0.2-2.1,0C17,51.8,16.5,52.3,15.9,52.6z M18.5,58.4
		c0,0.1,0,0.3-0.1,0.3c-0.5,0.3-0.9,0.2-1.2-0.4C17.8,57.9,18.2,57.8,18.5,58.4z M15.4,55.7c0.4,0.3,0.7,0.4,0.8,0.7
		c0.1,0.1,0.1,0.4,0.1,0.7C15.5,57,15.2,56.7,15.4,55.7z M14.3,60.2c-0.4,0.3-0.7,0.6-1.4,1.1C12.8,59.8,13.5,60,14.3,60.2z
		 M12.8,63.9c0.8-0.7,3.6-1,4.5-0.5c0.1,0.1,0.3,0.3,0.3,0.4c0,0.1-0.1,0.2-0.1,0.5c-0.5-0.2-1-0.3-1.5-0.5
		c-0.8,0.7-1.6,1.3-2.6,2.1c-0.2-0.1-0.5-0.4-0.8-0.7C12.3,64.8,12.4,64.3,12.8,63.9z M11.8,62.6c0.1,0.8,0.1,1.5-0.6,1.8
		C10,65.1,9,65,8.1,64C9.7,64.5,10.5,63.2,11.8,62.6z M11.5,141.6c-0.2,0.3-0.4,0.6-0.7,1.1c-0.4-0.9-0.2-1.2,0.3-1.4
		C11.3,141.4,11.4,141.5,11.5,141.6z M7.7,79.5c0,0-0.2,0.1-0.3,0.1c-0.1-0.1-0.1-0.3-0.2-0.4l0.4-0.2C7.6,79.2,7.7,79.4,7.7,79.5z
		 M6.5,59.5c0.1,0,0.2,0.2,0.4,0.3c-0.2,0.1-0.3,0.3-0.4,0.3c-0.2-0.1-0.3-0.2-0.4-0.4C6.3,59.6,6.4,59.5,6.5,59.5z M7.2,65.2
		c0.2,1.1,0.3,1.9-1,1.8C6,66.2,6.1,65.6,7.2,65.2z M4.3,146.3c0.5,1.5,0.2,2.9-0.7,3.7C3,148.1,3,147.8,4.3,146.3z M3.4,128.9
		c-0.2-0.9-0.3-1.5,0.3-2.1C4.5,127.6,3.9,128.1,3.4,128.9z M4.1,85.7c0.1-0.1,0.3-0.1,0.4-0.1c0,0,0.1,0.2,0.2,0.3
		c-0.2,0-0.3,0.1-0.5,0.1C4.1,85.9,4.1,85.8,4.1,85.7z M3.5,173c1.2,0.6,1.2,0.6,0.4,1.9C3.7,174.1,3.6,173.6,3.5,173z M4.4,178.1
		c-0.1,0.1-0.1,0.2-0.2,0.3c-0.1-0.1-0.2-0.2-0.2-0.3c0,0,0.1-0.1,0.2-0.2C4.3,177.9,4.3,178,4.4,178.1z M4.1,182.6
		c-0.1-0.4-0.2-0.6-0.2-0.9c0-0.2,0.2-0.4,0.4-0.9C4.8,181.6,4.9,182.1,4.1,182.6z M3.9,156.5c-0.4-1.3-0.7-2.6,0.2-4
		c0.3,1.3,0.5,2.6,0.8,4.2C4.5,156.6,4,156.7,3.9,156.5z M3.2,61.3h2C4.5,62,4,61.9,3.2,61.3z M6.1,73.1c0.8,0.3,0.8,0.3,0.9,2.3
		c-0.5,0.2-1,0.5-1.5,0.7C5.7,75.1,5.9,74.1,6.1,73.1z M6.9,125.2c0.1,0,0.3,0.3,0.5,0.6c-0.3,0.2-0.5,0.4-0.8,0.4
		c-0.1,0-0.4-0.4-0.3-0.5C6.4,125.4,6.7,125.3,6.9,125.2z M6.7,128.6c0.3,0.2,0.6,0.4,0.9,0.7c-0.1,0.2-0.3,0.3-0.5,0.6
		c-0.3-0.3-0.6-0.5-0.7-0.8C6.3,129.1,6.6,128.8,6.7,128.6z M7.5,139.7c-0.1,0.2-0.3,0.4-0.5,0.5c-0.1,0-0.3-0.1-0.5-0.3
		c0.3-0.2,0.4-0.4,0.6-0.5C7.2,139.4,7.4,139.6,7.5,139.7z M6.7,136.1c0.1,0.1,0.2,0.2,0.1,0.3c0,0.1-0.2,0.2-0.3,0.4
		c-0.1-0.1-0.2-0.3-0.2-0.3C6.5,136.3,6.6,136.2,6.7,136.1z M6.6,142.8c0.2,0,0.3,0,0.5-0.1c0.1,0.3,0.2,0.6,0.3,0.9
		c0.5,1.2,1.1,1.3,2,0.3c0.2-0.3,0.4-0.6,0.8-1.1c0.5,0.4,0.9,0.8,1.3,1.1c-0.7,0.6-1.1,1-1.6,1.5c1-0.1,1.8-0.1,2.1,1.2
		c-1.6,0.5-3.2,1.1-4.9,1.7C6.3,146.3,6.2,144.6,6.6,142.8z M18.8,185.1c-0.2,0-0.3,0.5-0.4,0.8c-0.2,0.6-0.3,1.2-0.6,1.9
		c-0.8-0.1-1.5-0.1-2.2-0.2c-0.3-4.4-0.2-4.9,1.1-6.7c0.2,1.4,0.3,2.6,0.5,4c0.5-0.4,0.8-0.7,1.2-1c-0.2-1.6-1.5-2.8-1-4.6
		c1-0.2,1.6,0,1.7,1c0.2,1.1,0.4,2.1,0.5,3.2C19.6,184.2,19.8,185,18.8,185.1z M17.6,173.8c0.7,0.8,0.3,1.4,0.2,2.1
		C17.3,175,17.3,175,17.6,173.8z M19.7,173.8c0.7,1.4,0.4,2.8,0.1,4.2C19.1,176.6,19.2,175.2,19.7,173.8z M19.7,189
		c-0.1-0.1-0.1-0.2-0.2-0.4c0.1-0.1,0.3-0.2,0.4-0.2c0,0,0.2,0.2,0.2,0.3C20,188.8,19.9,188.9,19.7,189z M20.8,183.3
		c-1-1-1-1.4,0.1-2.7C21.3,181.6,21.2,182.4,20.8,183.3z M20.8,172.8c0.5,1,0.5,1.7,0,2.6C20.3,174.5,20.3,173.8,20.8,172.8z
		 M22.5,176.2c-0.9-0.7-0.5-1.5-0.4-2.3c0.1,0,0.3,0,0.4,0V176.2z M19.6,164.5c-1.3,3.1-0.4,6.1-0.7,9.2c-0.6-0.2-0.8-0.2-1.1-0.3
		c-0.2-0.1-0.4-0.2-0.6-0.4c-0.1,0.2-0.3,0.4-0.3,0.5c0.1,1.1,0,2.3,0.3,3.4c0.3,1.1-0.1,1.7-0.9,2.5c-0.4-1-0.5-2-1.7-2.3
		c-0.2-0.1-0.3-0.6-0.5-0.9c-0.2-0.4-0.5-0.8-0.9-1.5c-0.3,1.2-0.2,2.1,0.1,2.9c0.3,0.9,0.6,1.7,0.9,2.6c0.3,0.7,0.8,1.4,0.4,2.3
		c-0.5,1.2-1,2.4-1.6,3.6c-0.1,0.1-0.8,0.1-1.1-0.1c-0.3-0.3-0.4-0.8-0.6-1.2c-1.9,0.5-2.2,0.4-4,2.1c-0.2-0.4-0.6-0.7-0.6-1
		c0.1-2.2-0.6-4.4,0.4-6.7c-0.1-0.5-0.5-1.2-0.3-1.7c0.2-0.5,1-0.8,1.7-1.3c-0.7-0.1-1.3-0.1-1.9-0.2c0-0.5,0.1-0.9,0.1-1.4
		c1.4,0,2.3-0.6,2.6-2c0.1-0.5,0.5-0.9,0.8-1.4c-0.1-1.6-0.8-2.9-1.9-3.9c-0.2-0.2-0.3-0.7-0.2-0.9c0.1-0.2,0.6-0.3,0.9-0.3
		c0.4,0,0.8,0.2,1.2,0.3c0.5-0.4,0.9-0.7,1.3-1.1c-0.8-1.4-2.5-1.3-3.8-2.3c1-0.5,1.9-0.9,2.7-1.2c-0.5-0.9,0.5-1.2,1.2-1.9H7.6
		c0.4-0.7,0.7-1.2,0.9-1.5c-0.2-1.1-1.7-1.3-1.8-2.6c1-0.2,1.9-0.3,3.2-0.5c0.2,0.3,0.5,0.7,0.9,1.1c0.4,0.4,0.9,0.8,1.6,0.5
		c0.2-0.1,0.5-0.1,0.7-0.1c1.2,0,1.6,0.3,1.6,1.6c0,2.4-0.1,4.7-0.2,7.1c0,0.5-0.1,1-0.2,1.8c0.8-1,1-1.7,0.7-3.3
		c-0.3-1.7-0.1-3.4,0.5-5c0.5-1.4,0.7-1.4,2.2-1.1c0.3,0.1,0.6-0.3,1.2-0.6c-0.1,0.9-0.2,1.7-0.4,2.7c0.6-0.3,1.1-0.5,1.6-0.8
		c0.4,1.2,0,2.2-0.4,3.3c0.5,1.2,1.3,2.1,2.8,2.3c1,0.2,1.1,0.9,1,2C22.2,166,21,165.2,19.6,164.5z M23.5,183.6
		c-0.1-0.2-0.3-0.4-0.4-0.6c0-0.2,0.1-0.4,0.2-0.6l0.3,0c0.1,0.3,0.1,0.7,0.2,1C23.7,183.5,23.6,183.5,23.5,183.6z M24.1,118.9
		c0.4,2,2.1,1.9,3.1,2.7c1,0.8,2.4,1,3.7,1.4c-0.1,0.6-0.3,1.1-1.3,1c-0.8-0.1-1.6,0-2.3,0c-0.6,0.3-0.3,1.6-1.6,1.2
		c-0.2-0.8-0.6-1.4-1.2-2.1C23.8,122.2,23.2,120.8,24.1,118.9z M28.7,133.8c-0.2,0.1-0.4,0.3-0.4,0.3c-0.2-0.1-0.3-0.3-0.4-0.4
		c0.1-0.1,0.3-0.2,0.4-0.2C28.4,133.5,28.5,133.7,28.7,133.8z M24.7,126.3c0.3,0.3,0.6,0.6,1,1c-1,0.3-1.4,0.1-1.5-0.4
		C24.2,126.7,24.5,126.5,24.7,126.3z M24.5,130.5c0.5-0.4,0.8,0.1,1.1,0.6c0.4,0.7,0.9,1.3,1.4,1.9c-0.2,0.3-0.3,0.6-0.5,1
		c1,0.9,2.7,0.8,3.1,2.4c-1.1,0.4-1.8-0.5-2.7-0.6c-0.1,0.1-0.3,0.2-0.4,0.3c-0.5,0.6-1,0.7-1.6,0.2c-0.7-0.5-0.2-1.1,0.1-1.6
		c0.2-0.3,0.4-0.6,0.6-0.9c0.2-0.5,0.2-0.9-0.3-1.3c-0.3-0.2-0.7-0.4-0.7-0.7C24.3,131.4,24.2,130.7,24.5,130.5z M24.9,137.5
		c1-0.3,1.5,0.1,2,1.5c-0.8,0.4-1.5,0.2-2.2-0.2c-0.2-0.1-0.4-0.5-0.4-0.7C24.4,137.8,24.7,137.5,24.9,137.5z M24.5,198.6v-1.3
		C25.3,197.7,25.2,198.1,24.5,198.6z M25.1,200.4c0,0-0.2-0.1-0.2-0.2c0-0.1,0.1-0.3,0.1-0.4c0.2,0.1,0.2,0.1,0.3,0.2
		C25.3,200.2,25.2,200.3,25.1,200.4z M28.4,192.2c-0.5-2.4-1.5-4.4-1.5-6.8c0-3.9-0.2-7.9-0.3-11.8c0-1,0-2.1,0-3.1
		c0.1-1.4,0.4-1.5,1.7-1.1c0.1,0,0.2,0.1,0.3,0.1c-0.5-0.4-0.9-0.8-1.4-1c-0.9-0.4-1.3-1-1.2-2c0.4-2.7-0.1-5.4-0.4-8.1
		c-0.1-1.1-0.1-2.3-0.2-3.7c0.6,0.3,1,0.5,1.3,0.7c0.5-0.2,1-0.5,1.3-0.4c1,0.3,2.1-0.8,3.2,0.1c-0.4,0.5-0.7,0.8-1.1,1.2
		c0.1,1,0.1,2,1.8,1.9c-0.9,1.1-1,2.3-2.1,2.8c-0.5,0.2-0.4,1,0.1,1.1c1.5,0.1,1.8,1.1,1.9,2.4c0,0.3,0.2,0.6,0.3,0.8
		c0.9,0.1,1.8,0.2,2.7,0.4c0,0,0,0,0,0c0,0,0,0,0.1,0c-0.2-1.4,0-1.5,1.7-1.6c-0.2,0.9-0.9,1.4-1.7,1.6c0,0,0,0,0,0.1
		c0,0-0.1,0-0.1,0c-0.2,0.5-0.5,1-0.8,1.8c0.6-0.2,1-0.4,1.4-0.5c0.5-0.1,1-0.3,1.4-0.2c0.3,0.1,0.6,0.5,0.7,0.8
		c0,0.1-0.4,0.5-0.6,0.7c-0.3,0.1-0.7,0.1-1.1,0.1c0.2,0.7,0.3,1.2,0.5,2c-1,0.4-1.9,0.8-3,1.2c0.4,0.2,0.8,0.3,1.3,0.5
		c-0.5,1.8-1.3,3.1-3.6,2.9c0.1,0.5,0.2,0.9,0.3,1.2c-0.1,0.1-0.2,0.2-0.3,0.2c-2.1,0.7-2.4,1.4-1.8,3.6c0.4,1.2,0.7,2.5,0.7,3.7
		c0,0.7-0.2,1.5-0.1,2.3c0.1,1.4-0.1,2.8-0.2,4.2C29.9,190.9,29.5,191.7,28.4,192.2z M34,182.4c0.6,0.8,0.2,1.5-0.2,1.9
		c-1.1,1.1-1.2,2.9-2.7,3.9C30.6,185,31.2,183.8,34,182.4z M32.2,182.5c0.1-0.1,0.1-0.2,0.2-0.3c0.1,0,0.2,0.1,0.3,0.1
		c-0.1,0.1-0.1,0.2-0.2,0.3C32.4,182.6,32.3,182.5,32.2,182.5z M33.2,180.9c-1-0.2-1.6,0.8-1.9,2c-1.2-1.9-1.1-2.5,0.2-3.5
		c0.4-0.3,0.8-0.7,1.2-1.1c-0.8-0.6-0.9-1.3-0.6-2.2c0.3-0.8,0.9-1,1.7-0.9c0.5,0.6,0.9,1.2,1.2,1.6c-0.1,0.8-0.1,1.4-0.2,2
		C34.4,179.3,33.9,179.9,33.2,180.9z M30.5,177.9c0-0.6,0.2-1.1,0.8-1c0.1,0,0.3,0.3,0.3,0.4C31.6,177.9,31.2,178.1,30.5,177.9z
		 M30.1,193.9c-0.1,0.2-0.2,0.3-0.5,0.6c-0.1-0.3-0.2-0.5-0.2-0.6c0.1-0.2,0.3-0.3,0.5-0.4C30,193.6,30.1,193.8,30.1,193.9z
		 M37.7,200.4c-0.2,1.9-0.5,2.3-2.5,2.3c-1.7,0-3.4,0.1-4.4-1.5c-0.7-1.1-1.2-2.2-1.6-3.4c-0.2-0.6,0-1.6,0.4-2
		c0.7-0.9,0.8-1.8,1-2.8c0.2-1.1,0.5-2.2,0.8-3.3c0.2-0.9,1-1.2,1.8-1.4c0.6-0.2,1.2-0.3,2.1-0.5c0.4,0.2,1,0.4,1.7,0.7
		c-0.5,1.3-2.2,0.4-2.6,1.8c0,1.1,1.9,0.9,1.9,2.4c0,0.9,1.1,1.7,1.8,2.7c-0.6,0.4-1,0.7-1.6,1.2C37.7,197.6,37.8,199,37.7,200.4z
		 M38,158.4c-0.1-0.1-0.3-0.2-0.4-0.3c0,0,0.1-0.2,0.2-0.2c0.1,0.1,0.3,0.2,0.4,0.3C38.1,158.2,38.1,158.3,38,158.4z M38.3,120.9
		c-0.1,0-0.2-0.1-0.3-0.1c0.1-0.1,0.1-0.2,0.2-0.3c0.1,0.1,0.1,0.2,0.2,0.2C38.4,120.8,38.3,120.9,38.3,120.9z M36.9,115.9
		c0.5,0.1,1,0.1,1.7,0.2C37.8,117,37.3,116.9,36.9,115.9z M38.5,91.4c2.1-0.6,2.8-0.4,3.3,0.9C40.6,92.2,39.5,92.4,38.5,91.4z
		 M41.2,105.3c0,0.1-0.1,0.3-0.3,0.5c-0.2-0.2-0.3-0.4-0.3-0.5c0-0.1,0.2-0.2,0.4-0.3C41,105.1,41.2,105.3,41.2,105.3z M40.7,176.5
		c-0.2-0.3-0.3-0.5-0.3-0.6c0.1-0.2,0.3-0.4,0.6-0.6c0,0,0.4,0.3,0.3,0.3C41.2,175.8,41.1,176,40.7,176.5z M41.7,183.8
		c0.9,0.6,0.8,1-0.2,1.6C41.6,184.7,41.6,184.3,41.7,183.8z M43.1,198.7c0.4-1.9-0.6-3.4-1-5c-0.3-1.2-0.4-1.3,0.8-2
		c0.3-0.2,0.5-0.3,0.8-0.5c0.2-0.1,0.4-0.3,0.6-0.5c0.6,0.2,1.1,0.4,1.8,0.6c0,1.1,0.4,2.3-0.7,3.1c0.1,1.1,0.3,2.3-0.6,3.2
		c0.3,0.4,0.6,0.7,1.1,1.3C44.8,198.8,44,198.8,43.1,198.7z M46.6,203.2c0,0-0.3,0.3-0.4,0.2c-0.7-0.2-0.9-0.7-0.9-1.4
		c0-0.2,0.1-0.4,0.3-0.8c0.4,0.3,0.6,0.3,0.6,0.5C46.3,202.2,46.4,202.7,46.6,203.2z M48.2,182.4c0.3-0.9,0.7-1,1.3-0.9l0.1,0.4
		C49.2,182.1,48.8,182.2,48.2,182.4z M46.6,181.7c-0.6-2.6-0.5-2.9,1-3.5c-0.1,0.5-0.2,1-0.4,1.5c0.2,0,0.5,0.1,0.7,0
		c0.9-0.3,1.8-0.9,3.3-0.4C49.6,180.1,48.2,180.9,46.6,181.7z M51.1,177.9c-0.1-0.1-0.3-0.3-0.4-0.4c0.3-0.3,0.7-0.6,1.2-1.2
		C52,177.5,51.6,177.7,51.1,177.9z M52.2,164.1c0.3-1.5,0.3-1.5,2.9-0.9C54.2,164.3,53.2,163.9,52.2,164.1z M55,175.9
		c-0.6,0.3-1.1,0.1-1.6-0.4c0.3-0.9,1-0.7,1.8-0.7C55.2,175.2,55.2,175.8,55,175.9z M55.5,170.3c0.6,0.2,1,0.3,1.4,0.4
		c0.1,0.7-0.2,1-0.8,1C55.4,171.6,55.3,171.2,55.5,170.3z M56.4,174.4c-0.1-1.6,1.3-1.4,1.5-2.3l0.3,0.3c-0.1,0.2-0.1,0.4-0.2,0.5
		C57.6,173.4,57.1,173.8,56.4,174.4z M58.2,176c-0.2-0.4-0.4-0.8-0.7-1.3c0.5,0,1.1-0.1,1.1,0c0.1,0.4,0.1,0.8,0.1,1.2
		C58.6,176,58.4,176,58.2,176z"/>
	<path class="st0" d="M18.2,16.8c0,0-0.1-0.1-0.1-0.1c0.1-0.1,0.2-0.1,0.2-0.2c0,0,0.1,0.1,0.1,0.1C18.3,16.7,18.2,16.7,18.2,16.8z"
		/>
	<polygon class="st0" points="2.7,106.2 2.7,106.1 2.8,106.1 	"/>
	<polygon class="st0" points="46.6,121.2 46.7,121.2 46.7,121.3 	"/>
	<path class="st0" d="M50.1,174.8c0.1,0,0.2-0.1,0.3-0.1c0,0,0.1,0.1,0.1,0.1c-0.1,0-0.2,0.1-0.3,0.1
		C50.2,175,50.2,174.9,50.1,174.8z"/>
	<path class="st0" d="M19.8,154.9c-0.1,0-0.1,0-0.2,0c0,0,0-0.1,0-0.1c0,0,0.1,0,0.1-0.1C19.7,154.8,19.8,154.8,19.8,154.9z"/>
	<path class="st0" d="M16.7,150.3l-0.2,0c0-0.1,0-0.1,0-0.1c0,0,0.1,0,0.1,0C16.6,150.2,16.7,150.2,16.7,150.3z"/>
	<path class="st0" d="M18.3,82.4c0,0,0-0.1,0-0.1c0,0,0.1,0,0.1,0c0,0,0,0.1,0.1,0.1C18.4,82.4,18.4,82.4,18.3,82.4z"/>
	<path class="st0" d="M17.4,109.7c0,0,0,0.1-0.1,0.1c-0.1-0.1-0.1-0.1-0.2-0.2c0,0,0.1-0.1,0.1-0.1
		C17.4,109.6,17.4,109.6,17.4,109.7z"/>
	<path class="st0" d="M19.6,89.5c0-0.1-0.1-0.1-0.1-0.2c0,0,0.1-0.1,0.1-0.1c0,0,0.1,0.1,0.1,0.1C19.6,89.4,19.6,89.5,19.6,89.5z"/>
	<path class="st0" d="M27.1,90.9c0,0,0,0.1,0,0.1c0,0-0.1,0-0.1,0c0,0,0-0.1,0-0.1C27,90.9,27.1,90.9,27.1,90.9z"/>
	<path class="st0" d="M34.3,93.2c0,0,0-0.1,0-0.1c0,0,0.1,0,0.1,0c0,0,0,0.1,0,0.1C34.4,93.2,34.3,93.2,34.3,93.2z"/>
	<path class="st0" d="M32.3,121.7c0,0-0.1-0.1-0.1-0.1c0.1-0.1,0.1-0.1,0.2-0.2c0.1,0.1,0.1,0.1,0.2,0.2
		C32.5,121.7,32.4,121.7,32.3,121.7z"/>
	<polygon class="st0" points="20.8,13.6 21,13.6 20.8,13.7 	"/>
	<path class="st0" d="M20.8,16.7c0,0,0,0.1,0,0.1c0-0.1-0.1-0.1-0.1-0.2C20.7,16.7,20.8,16.7,20.8,16.7z"/>
	<polygon class="st0" points="3.4,172 3.5,172 3.4,172.2 	"/>
	<path class="st0" d="M6.8,109.6c0,0-0.1,0.1-0.1,0.1c-0.1,0-0.2-0.1-0.3-0.1c0,0,0.1-0.1,0.1-0.1C6.6,109.5,6.7,109.5,6.8,109.6z"
		/>
	<path class="st0" d="M15,178c0-0.1,0-0.1,0-0.1c0,0,0.1,0,0.1,0c0,0,0,0.1,0.1,0.1C15.2,177.9,15.1,178,15,178z"/>
	<path class="st0" d="M34.6,181.2c-0.1,0-0.1,0-0.2,0c0,0,0-0.1,0-0.1c0,0,0.1,0,0.1-0.1C34.6,181,34.6,181.1,34.6,181.2z"/>
	<polygon class="st0" points="16.8,24.2 16.8,24.2 16.9,24.2 	"/>
	<polygon class="st0" points="10.4,59.4 10.4,59.5 10.3,59.4 	"/>
	<path class="st0" d="M28.8,169.6c-0.1,0-0.1,0-0.2-0.1C28.7,169.5,28.7,169.6,28.8,169.6L28.8,169.6z"/>
	<path class="st0" d="M45.2,186.8C45.2,186.8,45.3,186.8,45.2,186.8C45.3,186.7,45.3,186.7,45.2,186.8
		C45.2,186.7,45.2,186.7,45.2,186.8C45.2,186.7,45.2,186.7,45.2,186.8z"/>
	<path class="st0" d="M35.1,165.5C35.1,165.6,35,165.6,35.1,165.5C35,165.6,35,165.6,35.1,165.5C35,165.6,35.1,165.6,35.1,165.5
		C35.1,165.6,35.1,165.6,35.1,165.5z"/>
	<path class="st0" d="M10.6,161.9C10.5,161.9,10.5,161.9,10.6,161.9C10.5,161.9,10.5,161.9,10.6,161.9L10.6,161.9z"/>
	<path class="st0" d="M56.6,205.3C56.6,205.3,56.6,205.3,56.6,205.3c-0.1,0.1-0.1,0.1-0.1,0.1c0,0,0,0,0,0
		C56.6,205.3,56.6,205.3,56.6,205.3z"/>
	<path class="st0" d="M24,12.4L24,12.4C24.1,12.3,24.1,12.3,24,12.4L24,12.4z"/>
	<path class="st0" d="M23.7,16C23.7,16,23.7,16,23.7,16C23.7,16,23.7,16,23.7,16C23.7,16,23.7,16,23.7,16
		C23.7,15.9,23.7,15.9,23.7,16z"/>
	<path class="st0" d="M48.5,99.5C48.5,99.5,48.5,99.5,48.5,99.5C48.5,99.5,48.6,99.5,48.5,99.5C48.6,99.5,48.6,99.5,48.5,99.5
		C48.5,99.5,48.5,99.5,48.5,99.5z"/>
	<path class="st0" d="M17.5,50.6C17.5,50.6,17.5,50.6,17.5,50.6C17.5,50.6,17.6,50.6,17.5,50.6C17.5,50.6,17.5,50.6,17.5,50.6z"/>
	<path class="st0" d="M15.3,118.2C15.3,118.2,15.3,118.1,15.3,118.2C15.3,118.1,15.3,118.1,15.3,118.2
		C15.3,118.1,15.3,118.1,15.3,118.2C15.3,118.2,15.3,118.2,15.3,118.2z"/>
	<path class="st0" d="M45.2,194.4C45.2,194.4,45.3,194.4,45.2,194.4C45.3,194.4,45.3,194.4,45.2,194.4L45.2,194.4z"/>
	<path class="st0" d="M2.1,108.3C2.2,108.3,2.2,108.3,2.1,108.3C2.2,108.3,2.2,108.3,2.1,108.3C2.2,108.2,2.2,108.2,2.1,108.3
		C2.1,108.3,2.1,108.3,2.1,108.3z"/>
</g>
</svg>
