<?xml version="1.0" encoding="utf-8"?>
<!-- Generator: Adobe Illustrator 26.0.1, SVG Export Plug-In . SVG Version: 6.00 Build 0)  -->
<svg version="1.1" id="Layer_1" xmlns="http://www.w3.org/2000/svg" xmlns:xlink="http://www.w3.org/1999/xlink" x="0px" y="0px"
	 viewBox="0 0 62.4 183.5" style="enable-background:new 0 0 62.4 183.5;" xml:space="preserve">
<style type="text/css">
	.st0{fill:#1A3F1D;}
</style>
<g id="Trees_and_moon_00000125560614630350298380000011246202988160531598_">
	<path class="st0" d="M12.1,134.8C12.1,134.9,12.1,134.9,12.1,134.8C12.1,134.9,12.2,134.9,12.1,134.8c0.2-0.1,0.3-0.3,0.4-0.4
		c0,0,0,0,0,0c0,0,0,0,0,0C12.4,134.5,12.3,134.7,12.1,134.8z"/>
	<path class="st0" d="M50.3,4.5c-0.1,0.6-0.1,1.3-0.2,1.9C50.5,5.8,50.7,5.2,50.3,4.5z"/>
	<path class="st0" d="M58.9,128.6C58.9,128.6,58.9,128.6,58.9,128.6C58.8,128.6,58.8,128.6,58.9,128.6L58.9,128.6z"/>
	<path class="st0" d="M50.8,75C50.8,75,50.8,75,50.8,75C50.9,75,50.9,75,50.8,75L50.8,75z"/>
	<path class="st0" d="M50.5,29.2c0,0,0.1,0.1,0.1,0.1c0,0,0.1-0.1,0.1-0.1C50.7,29.2,50.7,29.1,50.5,29.2
		C50.6,29.1,50.6,29.2,50.5,29.2z"/>
	<path class="st0" d="M50.5,19.2c-0.9,0.7-0.9,1.1,0.2,2.4C51,20.2,51,20.2,50.5,19.2z"/>
	<path class="st0" d="M64.2,2.4c-0.1-0.1-0.1-0.2-0.2-0.3c-1.5,0-1.5,1.6-2.5,2.4c0-0.6,0-1.1-0.1-1.5c-0.3-1-0.9-1.2-1.8-0.6
		c-0.2,0.2-0.4,0.5-0.7,0.6c-0.4,0.2-0.8,0.2-0.9-0.4c0.6-0.5,1.2-1,1.7-1.4c-0.4-1.1-1.1-1.2-1.9-1c-0.9,0.2-1.5,0.9-1.7,1.7
		c-0.1,0.3,0,0.7,0,1.1c-0.1,1.5-0.4,1.9-2,2c-0.8,0.1-1.1,0.4-0.8,1.2c0.2,0.6,0.6,1.2,0.9,1.7c0.4,0.7,1,1.4,1.4,2.1
		c0.1,0.2-0.1,0.6-0.2,0.8c-0.2,0.1-0.6,0-0.8-0.1c-0.3-0.3-0.6-0.8-0.9-1.1c-0.2-0.2-0.6-0.2-0.8-0.1c-0.2,0.1-0.4,0.6-0.4,0.7
		c0.3,0.5,0.6,1,1.1,1.3c1.6,1.1,1.7,1.8,0.6,3.4c-0.6,0.1-1.2-0.8-1.9-0.1c0.5,2.2,3.1,3.1,3.4,5.4c-1,0.5-2-0.8-2.9,0.5
		c0.4,0.7,0.9,1.5,1.3,2.3c0.2,0.4,0.5,0.9,0.5,1.3c0,0.5-0.3,0.8-0.9,0.5c-0.2-0.4-0.3-0.9-0.5-1.3c-0.2-0.3-0.6-0.6-0.8-0.5
		c-1.6,0.4-2.9-0.1-4.1-1c-0.1-0.1-0.3-0.2-0.5-0.2c-0.7-0.2-1.3,0.4-1,1c0.5,1.3,1.4,2,2.6,2.6c1,0.6,1.6-0.1,2.5-0.9l0.1,2.2
		c-1.2,0.1-2.3,0.4-3.5,0.4c-1.1,0-2.2-0.4-3.4-0.6c-0.3,0.9,0,1.8,0.6,2.5c0.8,1,1.7-0.2,2.7,0c0,0.7,0,1.4-0.1,2.1
		c-0.7,0.1-1.3,0.4-1.8,0.3c-0.5-0.1-1.2-0.5-1.4-0.9c-0.5-1.4-0.8-2.9-1.3-4.3c-0.1-0.2-0.2-0.4-0.4-0.8c-1.2,0.9-2.2,0.5-3.3-0.3
		c-0.3-0.2-1.1-0.2-1.5,0c-0.6,0.4-0.5,1.1,0,1.6c0.6,0.6,1.2,1.2,1.9,1.7c1.3,1,2.4,2,2.5,3.8c0,0.7,0.4,1,1,1.1
		c0.7,0,1.3-0.1,2-0.1c0.4,0,0.9-0.1,1.2,0c0.7,0.2,1.4,0.6,2.1,1c0.2,0.1,0.3,0.4,0.5,0.6c-1.4,0-2.6-0.2-3.9,0
		c-1.2,0.1-2.3,0.5-3.3-0.3c-0.2-0.1-0.7,0-0.8,0.2c-0.1,0.2,0,0.6,0.1,0.8c0.7,1,1.7,1.6,3,1.4c1.3-0.1,2.5-0.4,3.8-0.6
		c1.3-0.2,2.5-0.4,3.8-0.3c2.1,0.2,2.3,0.5,2.4,2.8c-1.7,0.7-2-1.6-3.6-1.5c0.2,1,0.5,1.8,0.7,2.7c-1.2-1.1-2.2-2.3-4.1-2
		c-0.1,1.2,0.4,1.9,0.9,2.7c0.7,1,1.7-0.3,2.6,0.2c-1.5,1.5-2.9,1.1-4.3,0.1c-0.7,0.5-0.7,1.1-0.3,1.5c0.4,0.5,0.9,1,1.4,1.4
		c0.5,0.4,1.2,0.5,1.3,1.5l-3.4,0.1c-0.1,1.2-0.1,2.3,1,3.1c0.4,0.3,0.7,0.7,0.3,1.2c-1.3-0.3-1.3-0.3-2.5-1.3c-0.5-0.4-1-0.8-1.5-1
		c-0.4-0.1-1,0.3-1.5,0.4c-0.7-1.5-2.2-1.4-3.5-1.8c0.1-1,0.1-1.9,0.2-3c-1.6-0.3-2.9-1.1-3.7-2.7c-0.5-1-1.3-0.7-1.7,0.4
		c-0.1,0.4-0.3,1-0.5,1.1c-1.3,0.4-2.1,1.9-3.7,1.5c-0.3-0.1-0.6,0.1-0.9,0.2c-0.1,0.5-0.2,0.9-0.3,1.3c-0.6,1.4-1.9,2.5-2.9,2.2
		c-1.7-0.6-2.7,0.3-4.1,1.2c0.4,0.6,0.8,1.1,1.2,1.6c-0.3,0.4-0.6,0.8-0.9,1.2c0.8,0.5,1.4,0.3,1.9,0c0.6-0.4,1.2-0.8,1.8-1.1
		c1-0.6,1.6-0.5,2.5,0.4c-0.9,0.6-2.1-0.3-2.9,0.7c0.9,1.3,2.5,0.6,3.5,1.6c-1.3,1-3.2-0.5-4.4,1.3c0.7,0.1,1.1,0.2,1.6,0.2
		c0.4,0,0.7-0.2,1-0.3c1.1-0.2,1.6,0.3,1.4,1.4c-0.1,0.8-0.6,1-1.2,1.1c-0.8,0.1-1.6,0-2.4,0.2c-0.9,0.1-1.9,0.3-2.4,1.3
		c1.5,0.9,3,0.1,4.6,0.1c0.2,1,0.4,2,0.7,3.2c-2.2-0.2-4.2,0-5.4,2.1c1.2,1.2,2.5-0.2,3.9,0c0.1,1,0.3,2,0.5,3.3
		c0.5-0.4,0.8-0.7,1.2-1.1c0.3,0.4,0.6,0.7,1.2,1.2c-1,0.4-1.9,0.8-2.7,1.2c-0.5,0.2-1.2,0.6-1.2,0.9c-0.1,1.4-1.6,1.6-2.1,2.6
		c-0.1,0.2-0.6,0.2-0.8,0.2c-0.7-0.1-1.4-0.1-2-0.8c-0.6-0.7-1.6-0.6-2.4-0.4C16.3,70,16,70.5,16,70.8c0,0.3,0.4,0.8,0.7,0.8
		c0.9,0.2,1.9,0.4,2.9,0.4c0.9,0.1,1.5,0.3,1.5,1.2c0.5,0,0.8-0.1,1.3-0.1c-0.2,0.7-0.4,1.3-0.5,1.8c-1.2-0.2-2.2-0.3-3.5-0.5
		c0.3,0.8,0.4,1.4,0.6,1.8c-0.9,0.4-1.6,0.7-2.4,1.1c-0.7,0.3-1.7-0.4-2.3,0.6c0.7,2.2,3,1.7,4.5,2.8c-0.7,1-2.1,1.1-2.4,2.3
		c0.2,0.1,0.4,0.3,0.5,0.3c0.2,0,0.5,0.1,0.7,0c1.9-0.9,3.6,0.1,5.4,0.6c0.8,0.2,0.9,0.9,0.6,1.6c-0.5,1.2-1.4,2-2.4,2.6
		c-0.6,0.4-1.2,0.7-1.7,1.1c0.1,0.2,0.1,0.3,0.2,0.5c0.4,0,0.9,0,1.3-0.1c0.5-0.1,1-0.3,1.6-0.5c0.2,0.4,0.4,0.8,0.7,1.3
		c-2.3,0.9-3.3,2.5-2.9,4.8c0.6,0.6,1.3,0.5,2,0.3c0.6-0.2,1.3,0.1,1.5,0.7c0.1,0.3-0.2,0.9-0.5,1.2c-0.7,0.8-1.6,1.6-2.4,2.4
		c0.8,0.5,1.5,0.2,2.2-0.2c0.5-0.3,1-0.3,1.2,0.3c0.2,0.6-0.1,0.9-0.7,1c-0.6,0.1-1.2,0.2-1.8,0.3c-0.5,0.1-0.8,0.4-0.6,0.9
		c0.2,0.5,0.6,0.7,1.2,0.4c0.2-0.1,0.3-0.4,0.5-0.5c0.3-0.1,0.6-0.1,1.1-0.2c-0.6,1.7-1.7,2.5-3.2,2.9c-1,0.2-1.9,0.7-2.8,1.1
		c-0.3,0.1-0.5,0.6-0.8,1c1,0.3,1.8,0.6,2.6,0.8c0.3-0.4,0.6-0.7,1-1.2c0.3,1.5,2.1,1.9,2.1,3.5c-0.4,0.1-0.7,0.2-1.3,0.4
		c1.5,0.9,2.8,1.6,4.1,2.4c0.8-1,1.6-1.7,3.1-1.4c-0.4,0.6-0.7,1-1,1.4c0.3,0.3,0.6,0.6,0.8,0.9c0.2,0.4,0.7,1,0.5,1.2
		c-0.3,0.4-0.8,0.6-1.3,0.7c-0.7,0.2-1.4,0.2-2.1,0.4c0.2,0.9,1.5,0.8,1.1,1.6c-0.2,0.4-1,0.5-1.5,0.7c-0.1,0-0.1,0.2-0.3,0.4
		c0.6,1.2,2.2,1,3,1.9c-1,1.3-1.9-0.1-2.8,0c-0.3,1.6-0.3,1.6-1.6,3.2c0.5,0.5,1,0.9,1.5,1.4c0.3-0.2,0.6-0.4,1-0.7
		c0.9,0.8,1.9,1.7,2.9,2.6c0.3-0.5,0.5-0.9,0.6-1.2c1.3,0.1,1.8,0.8,1.7,2c-0.1,1.6-0.2,3.3-0.4,4.9c-0.1,0.6-0.5,0.5-0.9,0.3
		c0,0,0,0,0,0c-0.1,0.2-0.2,0.3-0.3,0.5c0,0,0,0-0.1,0c-0.1,0.2-0.3,0.5-0.5,0.8c2.9,1.8,2.6,4.5,2.2,7.3c-0.7,0.3-1.2,0.4-1.5-0.5
		c-0.3-0.9-1-1.3-1.9-1.4c-1.2-0.1-2.4-0.2-3.6-0.3c-0.3,0-0.7-0.1-1.2-0.1c1.1-1.2,3,0,3.8-1.6c-1.1-0.3-2.2-0.7-3.3-0.7
		c-1,0-2.1,0.4-3.2,0.6c0-0.8,0.6-0.9,1-1c1.2-0.2,2.2-0.8,3.3-1.6c1.3-1.1,3-2,5-1.6c0,0,0,0,0,0c0.1-0.2,0.2-0.3,0.3-0.5
		c0,0,0,0,0,0c-0.2-0.3-0.4-1-0.5-1c-1.2,0.2-2.7-0.7-3.7,0.7c-0.2,0.3-0.7,0.3-1.2,0.4c0.1-0.6,0.2-0.9,0.3-1.3
		c-0.9,0.1-1.7,0.2-2.4,0.3c-0.6,0.4-0.4,1.7-1.6,1.3c0.2-0.7,0.4-1.3,0.5-2c0.4-0.2,0.9-0.4,1.2-0.5c0-0.9,0.1-1.7,0.1-2.6
		c-0.7-0.4-1.4-0.8-2.2-1.2c-0.7,0.5-1.4,1-2.1,1.5c-1.1,0.8-1.3,0.9-2.3,0.4c2.7-1.6,2.8-1.7,2.2-2.8c-0.4,0.4-0.9,0.7-1.5,1.2
		c0.2-0.8,0.3-1.3,0.4-1.9c-0.3,0-0.5-0.1-0.6,0c-1.4,1.5-3.8,1.2-5.2,2.7c-0.2,0.3-0.9,0.1-1.4,0.2c-0.6,0.1-1.3,0.1-1.7,0.5
		c-1,0.9-2.8,1.1-2.9,3c-1.4,0.7-0.5,1.4-0.1,2.1c-0.4,0.3-0.8,0.6-1.3,1c1.8,0.8,1.8,0.8,4.3-0.1c-0.6-0.2-0.9-0.3-1.3-0.4l0.2-0.3
		c0.5,0,1,0.1,1.5,0.1c0,0.6,0,1-0.1,1.2c0.6,0.9,1.8,0.2,2.4,1.4c-1.2-0.1-2.1-0.2-3.1-0.3c-0.9-0.1-1.9-0.2-2.6,0.8
		c0.8,0.6,1.6,0.6,2.5,0.3c1.7-0.5,3.3-0.3,4.9,0.6c-1.7,0.8-5.7,1.1-7.2,0.6c-0.5-0.2-1-0.4-1.4,0.1c0.6,1.1,1.9,0.9,3.1,1.2
		c-0.5,0.3-0.7,0.5-0.9,0.6c-0.1,0-0.3,0-0.4,0.1c0,0,0,0,0,0.1c0,0.1,0.1,0.1,0.1,0.2c0,0,0,0.1,0,0.1c0,0,0.1,0.1,0.1,0.1
		c0.1,0.1,0.1,0.1,0.2,0.2c0,0,0,0,0,0c0.4,0.1,1,0,1.5,0.1c0,0,0,0,0,0c0.1,0,0.3,0,0.4,0.1c0.1,0,0.1,0,0.2,0.1c0,0,0,0,0,0
		c0,0,0,0,0.1,0c0,0,0.1,0,0.1,0.1c0.1,0,0.2,0.1,0.3,0.1c0.1,0,0.2,0.1,0.3,0.2c0.2,0.1,0.3,0.2,0.5,0.4c0.2,0.2,0.3,0.4,0.4,0.6
		c0,0.1,0.1,0.3,0,0.4c0.1,0.6-1,0.8-0.4,1.6c0.2,0.3-0.3,1.2-0.6,1.9c1.3,0.6,2.6,0.4,3.8,0.4c0.4,0,0.9-0.1,1,0.1
		c0.9,1.3,2.2,1,3.4,1.2c0.5,0.1,0.9,0.5,1.4,0.7c0.7,0.3,1.4,0.7,2.1,1c0.5,0.2,1.4-0.1,1.4,0.8c0,0.4-0.6,0.7-1.1,1.2
		c0.6,0.3,1.2,0.6,1.9,1c-1.5,0.6-2.8,0.6-5,0c-1-0.3-1.9-0.3-2.6,0.6c0.2,0.8,0.7,1.1,1.5,0.8c0.6-0.2,1.3-0.3,2-0.5
		c-0.1,0.4-0.1,0.6-0.2,1c1.9,0.4,3.7,0.7,5.8,1.1c0,0.2,0.1,0.7,0.2,1.3c-1.7-0.2-3.1-0.3-4.6-0.4c0,0.1,0,0.2-0.1,0.3
		c0.6,0.2,1.3,0.5,2,0.7c0,0-0.1,0-0.1,0.1c0.1,0.1,0.2,0.2,0.3,0.3c0.1,0.2,0.2,0.4,0.2,0.7c0,0.2,0.1,0.4,0.1,0.6c0,0,0,0,0,0.1
		c0.6,0.6,1.2,1.1,1.9,1.7c-0.2,0.1-0.5,0.4-0.8,0.4c-1.1,0-2.3,0-3.4-0.1c-0.7,0-1.3,0-2,0.9c0.2,0.1,0.5,0.2,0.8,0.3
		c0.3,0.1,0.7,0.2,0.9,0.4c0.3,0.2,0.5,0.4,0.7,0.6c0,0-0.1-0.1-0.1-0.1c0,0,0.1,0,0.1,0.1c0,0,0,0,0.1,0c0.2,0.1,0.3,0.1,0.5,0.1
		c0,0,0,0,0,0c0,0,0.1,0,0.1,0c0.1,0,0.2,0,0.3,0c0.2,0,0.4,0,0.6,0c0.1,0,0.1,0,0.2,0c0.7-0.1,1.3-0.2,2-0.2c0.9,0,1.8,0.1,2.7,0.3
		c0.4,0.1,1,0.6,1.1,1c0.2,0.6-0.5,0.8-1,0.8c-0.5,0.1-1.1,0.1-1.7,0.2c0.3,0.9,0.6,1.8,0.9,2.7c-0.7,0.1-1.5,0.2-2.2,0.3l0,0.3
		c0.9,0.2,1.9,0.3,3.1,0.5c0.1,0,0.2,0,0.3,0c0.1,0,0.1,0,0.2,0.1c0,0,0,0,0.1,0c0,0,0,0,0,0c1.7,0.5,3.2,1.6,4.9,2.1
		c1.4,0.4,3,0.5,4.2,1.4c0.5-0.2,1.1-0.2,1.7,0c0.2,0,0.4,0,0.6,0c0.8-1.2,0.4-3.1,2.2-3.5l-0.1-2.6c1.4,0.8,2.6,1.5,3.9,2.3
		c-1.6,1.1-3,2.1-4.6,3.1c0.1,0.2,0.2,0.4,0.2,0.6c0.1,0.2,0.2,0.4,0.2,0.7c-0.1,0-0.1,0.1-0.2,0.1c0.3,0.2,0.6,0.5,0.9,0.8
		c0.7-1,1.3-2,1.5-3.3l0.5,0.2c-0.1,0.4-0.1,0.9-0.2,1.3c-0.4,1.6-0.4,1.6,1.2,2.3c0,0.4-0.1,0.8-0.1,1.2c0.2,0,0.3,0,0.5,0.1
		c0.6-0.4,1.2-0.8,1.7-1.1c0.7,0.4,0.5,0.9,0.3,1.3c0.2,0,0.4,0.1,0.7,0.2c0.2-0.6,0.4-1.3,0.5-2c0.2-2.6,0.6-5.2-0.2-7.8
		c-0.2-0.7-0.3-1.5,0.4-2.2c0.4-0.4,0.4-1.3,0.6-2.1c0.6,0.2,0.5,0.7,0.5,1.1c0,0.8-0.2,1.7,0.4,2.4c0.2,0.3,0.1,0.9,0.1,1.4
		c-0.2,1.3-0.5,2.6-0.7,3.9c-0.2,0.9-0.5,1.9,0.1,2.8c0.2,0.3,0.1,0.8,0,1.2c-0.2,0.8-0.2,1.5,0,2.2c0.3,0.4,0.7,0.7,1,1.1
		c1.1,1.1,2.2,0.9,3.7,0.8c1.5-0.1,2.9,0.3,4.3,0.8c1,0.3,2.1,0.6,3.1,0.8c0-0.2,0.1-0.4,0.2-0.7c0.1-0.2,0.2-0.4,0.1-0.5
		c-0.8-2.2,0.7-4.4,0.2-6.6c-0.1-0.4,0.3-0.8,0.6-1.4c0.9,1.2,0.5,2.2,0.3,3.2c-0.3,1.5-0.4,3,0,4.5c0.1,0.5-0.1,1.1-0.1,1.6
		c0,0.1,0,0.3,0,0.4c0.7,0.2,1.4,0.5,2.1,0.9c-0.1-3.7-0.2-7.5-0.2-11.2c-0.6-15.1-0.9-30.2-0.3-45.4c-0.2-0.6-0.3-1.4-0.2-2.2
		c0-1.1,0-2.2-0.1-3.4c0.2,0.1,0.4,0.1,0.6,0.2c0-0.8,0.1-1.5,0.1-2.3c-0.9-0.6-1.1-1.5-0.8-2.8c0.2-1.1,0.1-2.3,0-3.4
		c0-1-0.3-2-0.3-3.1c0-0.4,0.2-0.9,0.4-1.3c0.7,0.2,1.1,0.4,1.4,0.5c0-0.7,0.1-1.5,0.1-2.2c-1.7-1-1.6-2,0.1-4.4l0,0.5
		c0.3-10,0-19.9-0.5-29.9c-1-0.7-2-1.3-3-2c1-0.3,2-0.4,2.9-0.2c0-0.6-0.1-1.2-0.1-1.8c-0.5-6.6-0.9-13.2-1.3-19.8
		c-0.1,0.1-0.1,0.2-0.2,0.3c-0.5-1-0.5-1.6,0.1-2.2c-0.3-5.9-0.5-11.9-0.6-17.8c-0.1,0-0.2-0.1-0.3-0.1c0.1,0,0.2-0.1,0.2-0.1
		c-0.1-5.3-0.1-10.6,0.1-15.8c-0.2,0.4-0.4,0.8-0.5,1.1c-0.3,0.7-0.4,1.4-0.8,2c-0.5,0.9-0.8,0.9-2,0c0.6-0.5,1.3-0.9,1.6-1.2
		c-0.3-1.8-1.9-1.5-2.5-2.5c0.6-0.7,1.4-1.1,2.3-1.2c0.6-0.1,1.2-0.1,1.8-0.2c0-0.5,0-1,0.1-1.4c0,0-0.1,0-0.1,0
		c-1.2,0.5-2.5,0.4-3.9,0c0.2-0.5,0.3-1,0.5-1.4c0.6-1.6,0.6-1.8-1.1-2.5c-0.1,0-0.1-0.2-0.2-0.4c1.1-0.6,1.9-0.2,2.6,0.6
		c0,0.9-1.3,1.7-0.3,2.7C62.6,9,62.8,9,63.9,8.1c0-0.8,0.1-1.6,0.1-2.4c-0.2-0.1-0.3-0.2-0.5-0.3c0.2-0.4,0.4-0.7,0.6-1.1
		C64.1,3.6,64.2,3,64.2,2.4z M22.5,83c-0.1,0-0.2-0.1-0.3-0.1c0-0.1,0.1-0.2,0.1-0.3c0.1,0,0.2,0.1,0.3,0.1
		C22.6,82.7,22.5,82.9,22.5,83z M26.2,72.9c0.1,0.1,0.2,0.1,0.2,0.2c0,0.1-0.1,0.3-0.2,0.4c-0.1-0.1-0.2-0.2-0.3-0.2
		C26,73.1,26.1,73,26.2,72.9z M26.9,83.5c-0.6-0.1-1.2-0.3-1.8-0.4C25.6,82.3,25.6,82.3,26.9,83.5z M23,77.9c0-0.2,0-0.3,0-0.5
		l0.9,0c0,0.1,0,0.2,0,0.3L23,77.9z M24,90.2c-0.3-0.1-0.6-0.8-0.7-1.2c0-0.6,0.1-1.3,1.2-1.5c-0.3,1.3,0.5,1.7,1.6,1.9
		C25.5,90.4,24.7,90.5,24,90.2z M27.5,108.4c-0.1-0.1-0.3-0.1-0.9-0.4c0.4-0.1,0.5-0.2,0.7-0.2c0.1,0,0.3,0.1,0.3,0.1
		C27.6,108.1,27.5,108.2,27.5,108.4z M25.6,123.9c0-0.2,0-0.3,0-0.5c0.3,0,0.7-0.1,1-0.1l0.1,0.4C26.3,123.7,25.9,123.8,25.6,123.9z
		 M13.4,133.3c0.1,0.1,0.2,0.1,0.3,0.2c-0.1,0.1-0.2,0.3-0.3,0.4c-0.1-0.1-0.2-0.2-0.3-0.3C13.2,133.6,13.3,133.4,13.4,133.3z
		 M13.4,142.2c0.1,0,0.3,0.3,0.2,0.4c-0.2,0.7-0.7,0.7-1.4,0.3C12.5,142.3,12.8,141.9,13.4,142.2z M11.2,145.3
		c1.4-0.8,3.3-0.9,4.9-0.3C14.6,145.5,13.1,145.4,11.2,145.3z M17.1,144.9c-0.5-0.8-0.8-1.3-1.1-1.9c0.7-0.1,1.2,0,1.4,0.7
		C17.4,144,17.2,144.3,17.1,144.9z M19.3,147.2c0.4,0.1,0.7,0.3,1.1,0.4l-0.1,0.4l-1.1-0.4C19.2,147.4,19.2,147.3,19.3,147.2z
		 M20.5,149.5c-0.3-0.1-0.6-0.1-0.9-0.2c0-0.1,0-0.2,0.1-0.3c0.3,0.1,0.6,0.2,0.9,0.3C20.5,149.3,20.5,149.4,20.5,149.5z
		 M21.5,143.9c-0.2-0.2-0.3-0.4-0.5-0.7c0,0,0.2-0.2,0.4-0.4c0.2,0.3,0.3,0.5,0.4,0.8C21.9,143.7,21.6,143.8,21.5,143.9z
		 M24.3,142.2l2.5-0.1C25.9,143,25.9,143,24.3,142.2z M29.1,168.7c-0.1-0.1-0.3-0.2-0.4-0.3c0-0.1,0.1-0.3,0.3-0.5
		c0.2,0.2,0.3,0.3,0.3,0.4C29.3,168.5,29.2,168.6,29.1,168.7z M29.6,157.2c0.2-0.2,0.4-0.4,0.6-0.5c0.1,0,0.3,0.3,0.6,0.5
		c-0.4,0.2-0.7,0.3-0.9,0.3C29.8,157.6,29.7,157.4,29.6,157.2z M31.3,158.5c-0.1,0.2-0.3,0.2-0.5,0.4c-0.1-0.1-0.2-0.2-0.1-0.3
		c0.1-0.2,0.2-0.4,0.4-0.6C31.2,158.2,31.3,158.4,31.3,158.5z M31.5,155.3c0,0.2-0.1,0.5-0.2,0.7c-1.8-0.1-2-0.3-1.6-1.8
		c0.1-0.4,0.1-0.7-0.1-1.3c-0.3,0.4-0.6,0.8-1,1.3c-0.6-0.3-1.2-0.6-1.9-0.9c0.2-1.4,1.8-0.9,2.2-2.1c-1-0.5-2-0.9-2.9-1.5
		c-1.2-0.6-1.3-1-0.7-2.3c0-0.1,0.1-0.1,0.1-0.2c0.2-2,1.4-2.5,3.3-2.4c0.6,0,1.3-0.6,2.2-1c0.2,0.4,0.5,0.9,0.5,1.5
		C31.5,148.7,31.5,152,31.5,155.3z M57.1,4.5C57.3,4.7,57.6,5,58,5.3C57.1,5.6,56.9,5.3,57.1,4.5z M56.1,16.9c0.9-0.1,1,0.5,1.3,1.1
		c-0.2,0.2-0.2,0.2-0.2,0.2c-0.7,0.1-1.2-0.1-1.4-0.8C55.7,17.3,55.9,16.9,56.1,16.9z M54.8,25.8c0.8,0.7,0.3,1.4,0.4,2.4
		C54.3,27.3,54.3,26.6,54.8,25.8z M56.3,45c-1.4-0.4-1.3-1.5-1.7-2.3C55.9,42.8,55.9,43.9,56.3,45z M58.5,66.6
		c-0.9,0.7-1.5,1.4-2.8,1.1C56.5,66.8,57.2,66.4,58.5,66.6z M56.8,59.6c0.4-0.3,0.9-0.5,1.6-1c-0.2,1.2-0.8,1.3-1.3,1.4
		C56.9,59.9,56.9,59.8,56.8,59.6z M55.6,71.6c0.4-1.3,0.5-1.3,2-0.4C57,72,56.3,71.6,55.6,71.6z M58,84.7c-0.2,0.2-0.3,0.3-0.4,0.3
		c-0.5-0.1-0.9-0.1-1.3-0.2C56.9,84.3,57.4,84.2,58,84.7z M56.9,108.3c0.9-0.1,1.7-0.2,2.9-0.4c-1.5,2.7-4.1,2.9-5.6,0.5
		C55.2,108.3,56,108.3,56.9,108.3z M59,91.9c-0.5-0.1-0.9,0-1.1-0.2c-0.5-0.5-0.8-1.1-1.2-1.7C58.4,90.2,58.4,90.2,59,91.9z
		 M55.6,76.6c-0.2,0.9-0.8,0.9-1.8,0.8C54.6,76.5,54.6,76.5,55.6,76.6z M53.8,95.4c0.5-0.1,1,0.2,1.6,0.3c0,0.2,0,0.3,0,0.5
		c-0.7,0.2-1.4,0.4-2.5,0.6C53.3,96.1,53.5,95.5,53.8,95.4z M53.5,94.1c0.2-0.6,0.3-1.2,0.5-1.8c0.7,0.3,0.9,0.8,0.8,1.4
		C54.6,94.2,54.1,94.3,53.5,94.1z M51.9,44.1c0.9,0.7,0.9,1.5,1.1,2.5C51.9,46,51.9,45.2,51.9,44.1z M52.6,66.9
		c-1.1-0.5-2-0.9-3-1.3c-0.7,2.5,1.5,2.8,2.7,3.9c-0.3,0.2-0.4,0.4-0.6,0.4c-1.5,0-3,0-4.5-0.1c-0.4,0-0.8-0.2-1.1,0
		c-1.2,0.9-2,0.1-2.9-0.5c-0.5-0.4-0.8-0.8-1.3-1.3c1.1-0.6,2.1-1.2,3.1-1.8c0.2,0.4,0.4,0.7,0.5,1c0.4-0.1,0.9-0.3,1.3-0.4
		c0.6-0.1,1-0.1,1.4-0.8c0.4-0.7,1.5-1,2.4-1.5C51.4,65.2,52.4,65.5,52.6,66.9z M51.6,128.3c0.3-0.1,0.7,0.3,1,0.4
		c-0.2,0.3-0.3,0.7-0.5,0.8c-0.5,0.2-1,0.2-1.6,0.3C50.6,128.9,51,128.5,51.6,128.3z M52.1,125.5c0,1.2,0,1.2-0.8,2
		C51.1,126.7,51.4,126.2,52.1,125.5z M49.8,119.8c-0.1,0.4-1,0.4-1.4,0.7c-1.5,1.1-3.6,1.2-5.1,0.1c-0.2-0.2-0.5-0.4-0.6-0.6
		c-0.6-1.1-0.6-1.2-1.8-0.7c0.1-1.1,0.2-2.2,0.4-3.3c0.1-0.6,0.7-1.1,1.2-1.9c0.9,0.5,1.7,1,2.5,1.4c0.1-0.1,0.2-0.2,0.2-0.4
		c0.6-1.6,1.3-1.7,2.6-0.5c0.3,0.3,0.7,0.6,1.2,0.9c0,0.2-0.1,0.4-0.1,0.7c0,0.7,0.4,0.9,0.9,0.7c1.5-0.5,1.5-0.5,2.2,0.9
		C51.1,118.2,50.2,118.6,49.8,119.8z M51.8,121.4c0,0.3-0.3,0.5-0.6,1c-0.2-0.4-0.5-0.7-0.5-0.8c0.1-0.3,0.4-0.5,0.6-0.7
		C51.5,121,51.9,121.2,51.8,121.4z M37.8,94.3c1.5-0.4,1.5-0.4,1.6,1C38.8,94.9,38.4,94.7,37.8,94.3z M37.9,112.3
		c-0.8-0.6-0.5-1.1-0.1-1.8C38.7,111.1,38.3,111.6,37.9,112.3z M43,87.6c0.4,1.7,0.1,2.1-1.8,2.4C41.9,89.2,42.4,88.5,43,87.6z
		 M42.4,78.1c0-0.1,0.1-0.2,0.1-0.3c0.3,0.1,0.7,0.2,1,0.4c0,0.1-0.1,0.3-0.1,0.4C43,78.4,42.7,78.2,42.4,78.1z M42.8,105.6
		c-1.4,0.2-2.2-0.3-2.8-1.4C41.3,104,42,104.6,42.8,105.6z M40.6,66.9c0.5-1.1,1.2-1.2,2.3-0.9C42.2,66.7,41.5,66.8,40.6,66.9z
		 M39.2,71.5c-0.2,0.1-0.4,0.1-0.6,0.2c-0.1-0.2-0.2-0.3-0.2-0.4c0.3-0.4,0.6-0.9,1.4-0.3C39.6,71.2,39.4,71.4,39.2,71.5z
		 M38.9,78.8c-1.2,0.6-1.3,0.5-1.5-0.8C37.9,78.2,38.4,78.5,38.9,78.8z M39.8,111.5c0.4-0.2,0.7-0.3,1.3-0.5l0.1,2.4
		C40.5,112.6,40.2,112.2,39.8,111.5z M40.5,115.3c-0.1,0.2-0.1,0.4-0.2,0.4c-0.5,0.2-0.9,0.3-1.3-0.7
		C39.7,115.2,40.1,115.2,40.5,115.3z M47.9,111c-1-0.3-2.1-0.6-1.9-2c-3.1-0.7-3.1-0.7-2.9-2.3c0.1-0.1,0.2-0.2,0.3-0.2
		c0.6,0,1.2,0,1.8-0.1c1.2,1.8,2.9,2.7,5,3.2c0.7,0.2,1.4,0.4,2,0.8c0.2,0.1,0.4,0.8,0.3,1.1c-0.2,0.3-0.9,0.5-1,0.4
		C50.3,110.9,49,111.3,47.9,111z M49.1,77.9C49.1,77.9,49.1,77.9,49.1,77.9L49.1,77.9c0.1,0,0.1,0,0.2,0c0,0,0,0,0,0
		c0.6-0.1,1.2-0.1,1.8,0.6c-0.8,0.1-1.3-0.1-1.8-0.6c0,0,0,0-0.1,0C49.2,78,49.1,78,49.1,77.9C49,77.9,49,77.9,49.1,77.9
		C49.1,77.9,49.1,77.9,49.1,77.9z M49.2,80.9c-0.7,1.1-1.3,0.3-1.8,0.1c-0.7-0.2-1.3-0.4-1.9,0.2l0,1.3c-0.8-0.2-1-0.6-0.9-1.1
		c0.2-0.7,0.5-1.5,1-2.1c0.5-0.7,1.2-0.6,1.8-0.1C48,79.6,48.6,80.3,49.2,80.9z M47.1,97.6c-0.9,0.2-1.5,0.4-2.4,0.6
		c-0.1-0.7-0.1-1.4-0.2-2.2C45.4,96.5,46.1,97,47.1,97.6z M47.2,100.9c-0.8-0.3-1-0.8-0.9-1.7C47.1,99.6,47.4,100.1,47.2,100.9z
		 M48.5,101.1c0-0.9,0.3-1.3,1.1-1.4C49.7,100.5,49.4,100.9,48.5,101.1z M50.3,101.1c0.1-0.2,0.1-0.5,0.3-0.6c0.1-0.1,0.4-0.1,1-0.1
		c-0.6,0.5-0.8,0.7-1.1,0.9C50.4,101.2,50.3,101.2,50.3,101.1z M51.1,94.8c-0.4,0.6-0.8,0.9-1.5,0.5c-0.6-0.3-1-1.2-2-0.6
		c0.2,0.6,0.4,1.2,0.6,2c-1.1,0.1-1.7-0.4-1.9-1.1c-0.2-0.7,0.3-1.1,0.9-1.6c0.6-0.5,1-1.3,1.5-2c0.7,0.4,1.5,0.9,2.2,1.3
		C51.7,93.7,51.5,94.2,51.1,94.8z M50.6,54.2c-1.4-0.3-2.1-0.7-2.6-2.1C49.2,52.5,49.9,53,50.6,54.2z M44.4,51.2
		c0.2,0.2,0.4,0.4,0.5,0.5c0,0.1-0.1,0.3-0.1,0.5c-0.2-0.1-0.4-0.3-0.6-0.4C44.1,51.7,44.3,51.5,44.4,51.2z M46.2,53.5
		c1.6,1.1,3.8,2.2,4.1,5c-1.5-0.2-2.8-0.4-4.2-0.6c-0.1,0.4-0.2,0.7-0.3,1c-0.1,0.5-0.5,0.8-1,0.5c-0.9-0.5-1.9-0.9-2.5-1.7
		c-0.7-0.8-1.1-1.9-1.8-3.1C42.5,54.3,44.1,53.9,46.2,53.5z M40,53.1c-0.8-0.8-1.7-1.6-2.4-2.3c0.8-0.2,2.2,0.2,2.6,0.9
		C40.6,52.3,40.7,52.8,40,53.1z M40,50.1C40,50.1,40,50.1,40,50.1l0.2,0.1L40,50.1C40,50.1,40,50.1,40,50.1c-1.1,0-1.8-0.5-2.6-1.7
		C38.8,48.7,39.5,49.2,40,50.1z M40,56.1c-0.1,0.1-0.2,0.2-0.3,0.2c-0.7-0.1-1.5-0.3-2.5-0.5C39,54.3,39.3,54.4,40,56.1z M36.9,57.4
		c0.9-0.1,1.8-0.1,2.7-0.3c1.3-0.3,1.4-0.2,2.2,1c0.6,0.9,1.2,1.8,1.9,2.7c0.2,0.3,0.5,0.5,0.8,0.8c0.9,0.6,1.6,0.4,1.7-0.8
		c0.1-1,0.7-0.9,1.5-1c-0.2,0.6-0.3,1-0.5,1.6c1.4,0.7,2.8,1.2,4.5,0.6c-0.5,1.5-1.7,1.7-2.9,1.6c-1.2-0.1-2.4-0.4-3.5-0.7
		c-0.3-0.1-0.6-0.1-0.9-0.1c-0.9,0.1-1.9,0.2-2.5,0.3c-1.1-0.9-2-1.5-2.8-2.1c-0.2-0.1-0.5-0.3-0.5-0.5c-0.1-0.9-0.7-1-1.4-1.2
		c-0.7-0.2-1.3-0.7-1.4-1.7C36.1,57.6,36.5,57.5,36.9,57.4z M36.7,112.3c-0.8-0.5-1.5-0.8-2.3-1.3c0.1-0.5,0.1-0.9,0.3-1.2
		c0.2-0.3,0.4-0.6,0.7-0.9c0.3,0.3,0.7,0.5,0.8,0.9C36.4,110.6,36.5,111.3,36.7,112.3z M33.8,119.4c1.6-1,1.9-0.9,2.3,0.8
		c0.3,1.2,0.3,1.2-0.2,2C34.8,121.6,34.3,120.5,33.8,119.4z M35.4,123.6c-0.3,0.1-0.6,0.2-0.9,0.4c0-0.1-0.1-0.2-0.1-0.3l0.9-0.3
		C35.4,123.4,35.4,123.5,35.4,123.6z M33.5,86.6l2-0.1c-0.1,0.5-0.2,0.9-0.3,1.7c-0.7-0.5-1.2-0.9-1.8-1.3
		C33.4,86.8,33.5,86.7,33.5,86.6z M34.4,104.7c-1.6,0.2-1.6,0.2-2.2-1.5C33,103.8,33.6,104.2,34.4,104.7z M33.9,126.4
		c0.3-0.2,0.6-0.4,0.9-0.6c0.9-0.5,1.6-0.4,2,0.4c0.5,0.8,0.3,1.4-0.6,1.9c-0.2,0.1-0.4,0.3-0.7,0.4c1.1,2.3,1.3,4.5,1.1,6.7
		c-0.1,1,0,2.1,0.1,3.1c0.2,1.1,0.3,2-0.6,2.9c-0.3,0.3-0.4,0.7-0.5,1.1c-1.2-0.1-1.5-0.3-1.5-1.2c0-0.8,0.1-1.7,0.1-2.5
		c0-1,0.1-1.8,1.3-1.9c-0.2-1.4-0.2-1.4-2.3-3c0.4-0.3,0.8-0.7,1.2-1c-0.1-0.1-0.1-0.3-0.2-0.4c-0.5-0.9-1-1.8-1.4-2.7
		C32.4,128.1,32.8,127.2,33.9,126.4z M34.7,143.4c0.5,0,0.9-0.1,1,0.1c0.6,0.9,1.2,1.8,1,3c0,0,0,0,0,0c0,0,0.1,0,0.1,0.1l-0.1,0
		c0,0,0,0,0-0.1C35.9,145.7,35.3,144.7,34.7,143.4z M27.5,74.2c0.1-0.1,0.2-0.2,0.2-0.3c0.4,0.3,0.8,0.5,1.5,0.9
		C28.2,75.2,27.9,74.7,27.5,74.2z M30.1,91.6c-0.9,0.7-0.9,0.7-1.8-0.2C28.9,91.4,29.4,91.5,30.1,91.6z M28.6,103.2
		c0.2-1.2,0.9-1.5,1.5-2C30.5,102.4,29.5,102.6,28.6,103.2z M30.5,113.8c0,0-0.2,0-0.3-0.1c0.1-0.2,0.2-0.5,0.3-0.7
		c0.1,0,0.2,0.1,0.3,0.1C30.7,113.3,30.6,113.6,30.5,113.8z M29.5,89c0-0.2,0-0.3,0-0.5c0.3,0,0.5-0.1,0.8-0.1c0,0,0.1,0.3,0.1,0.4
		C30.1,89,29.8,89,29.5,89z M30.3,85.4c1,0.3,1.3,0.6,1,1.2c-0.1,0.1-0.3,0.1-0.4,0.2C30.7,86.5,30.5,86.1,30.3,85.4z M34.6,160.5
		c0.1-0.1,0.2-0.3,0.3-0.3c0.1,0,0.3,0.1,0.4,0.2c-0.1,0.1-0.2,0.3-0.3,0.4C34.8,160.6,34.7,160.6,34.6,160.5z M35.5,171.4
		c-0.1,0-0.1-0.2-0.2-0.3c0.1,0,0.2-0.1,0.3-0.1c0.1,0,0.1,0.2,0.2,0.3C35.7,171.3,35.6,171.4,35.5,171.4z M36.9,168.9l-0.9-0.3
		c0.1-0.1,0.2-0.4,0.2-0.4c0.3,0.1,0.6,0.2,0.9,0.3L36.9,168.9z M37.4,156.8c0,0.4-0.3,0.9-0.6,1c-0.3,0.1-0.8-0.2-1.1-0.4
		c-0.7-0.5-1-1.2-0.7-2.1c0.2-0.6,0.2-0.9-0.6-1.1c-0.4,1.2-0.1,2.3,0,3.5c-1.1,0.3-1.4,0.2-1.3-0.7c0.2-1.4,0.5-2.7,0.8-4.1
		c0.1-0.6,0.3-1.3,0.4-2c-1.6-1.2-1.5-1.2-0.9-2.9c0.3-0.8,0.6-1.7,0.9-2.6c2.2,1.3,2.9,2.5,3.2,6.3c0.3-0.2,0.5-0.3,0.8-0.5
		c1,1.6,0.8,2.4-0.8,3.6C37.4,155.4,37.5,156.1,37.4,156.8z M38.1,157.4c-0.5-1.4-0.5-1.4,0.2-2.5c0.5,0.2,1,0.5,1.5,0.7
		C39.8,157.2,39.8,157.2,38.1,157.4z M40.4,161.4c-0.1,0-0.1-0.2-0.2-0.2c0.1,0,0.2-0.1,0.3-0.2c0.1,0.1,0.1,0.2,0.2,0.4
		C40.6,161.3,40.5,161.4,40.4,161.4z M40.3,150.9c-1.2-0.7-1.2-2.4-2.4-3.2l0.3-0.4c0.8,0.5,1.6,1,2.3,1.4
		C40.4,149.6,40.4,150.2,40.3,150.9z M37.9,145.7l-0.1-2.1c0.8,1,1.5,1.8,2.1,2.6l-0.1,0.2C39.2,146.2,38.6,146,37.9,145.7z
		 M39.6,144.6c-0.3-0.1-0.6-0.6-0.6-0.9c0-0.3,0.5-0.7,0.8-0.7c0.9-0.1,1.7-0.1,2.6-0.1C42,144.8,41.3,145.3,39.6,144.6z
		 M37.9,141.3l-0.1-3.2c1.1,0.8,2.3,0.8,2.7,2c0.1,0.2,0.8,0.2,1.2,0.3C41.7,142,41.5,142,37.9,141.3z M44,145.2c-0.4,0-0.7,0-1.1,0
		l0-0.5c0.4,0.1,0.7,0.1,1.1,0.2C44,144.9,44,145.1,44,145.2z M44,140.3c0-0.1,0.2-0.4,0.3-0.4c0.6-0.1,0.8,0.3,0.8,0.9
		C44.5,140.9,44.1,141,44,140.3z M46.3,149c-0.5-0.6-0.8-1-1.1-1.4c-0.1-0.2,0.1-0.6,0.3-0.8c0.1-0.1,0.5-0.1,0.6,0.1
		C46.6,147.4,47.1,148,46.3,149z M48.7,141.2l-0.1-0.3c0.3-0.1,0.5-0.2,0.8-0.3c0,0,0.1,0.2,0.2,0.3C49.3,140.9,49,141.1,48.7,141.2
		z M49.3,133.7c-0.7,0.7-1.5,1.4-2.2,2.1c-0.1-0.1-0.3-0.2-0.4-0.3c0.3-1,0.8-1.9,1.8-2.5c0.2-0.1,0.6,0,0.8,0.1
		C49.4,133.2,49.4,133.6,49.3,133.7z M49.1,126.6c0.5,1.2,0,2.1-1,2.8c-0.4,0.3-0.8,0.6-1.1,0.9c-0.7,0.7-1.4,1-2.4,0.7
		c-0.8-0.2-1.7-0.2-2.3,0.6c0.4,1.3,1.9,0.3,2.5,1.4c-1,0.8-2.1-0.2-3.3,0c0,0.4,0,0.8,0.1,1.1c0.6,1.5,0.6,1.5-0.8,2.6
		c0.3,0.5,0.7,1,1.1,1.6c-0.8,0.8-1.3,0.2-1.9-0.3c-0.6-0.6-1.2-1.3-2.4-0.6c0.1-2.3,0.2-4.3,0.3-6.4c0.6,0.1,1,0.2,1.3,0.2
		c0-0.1,0.1-0.2,0.1-0.2c-0.3-0.5-0.7-1.1-1-1.6c0.5-0.7,1.1-0.2,1.6-0.2c0.6,0,1.2,0.1,1.8,0.1c0.3,0,0.5-0.4,0.8-0.6
		c-0.3-0.3-0.5-0.7-0.8-0.8c-0.4-0.1-0.8,0-1.3,0c-2,0.2-2.4-0.2-2.4-2.1c0-0.8,0-1.7-0.1-2.9c1.8,1.4,3.3,0.1,4.6,0.2
		c0.6,0.8,1,1.5,1.6,2.1c0.2,0.2,0.7-0.1,1.4-0.2c-0.8-0.7-1.4-1.2-1.9-1.7c1.6-1,1.7-1,3.2,1.1c1.4-1.9,3.4-0.8,5.2-1.1
		c0.1,0.1,0.1,0.2,0.2,0.3c-0.7,0.5-1.5,0.9-2.2,1.4C49.2,125.4,48.8,125.8,49.1,126.6z M49.9,139.6c0.7,0.1,1.2,0.1,1.9,0.2
		C50.8,140.3,50.8,140.3,49.9,139.6z M50.9,136.2c0.1-0.1,0.2-0.3,0.3-0.5c0.2,0.1,0.3,0.2,0.4,0.3c-0.1,0.1-0.2,0.2-0.4,0.2
		C51.1,136.4,51,136.3,50.9,136.2z M52.3,133.6c-0.3,0.4-0.6,0.7-0.9,1.1c-0.1,0.1-0.2,0.1-0.5,0.2c-1.1-1.6,0.6-2.4,0.9-3.5
		C53.1,132.3,53.2,132.5,52.3,133.6z M52.3,114.5c-0.7,0.7-1,0.7-2.1-0.1c0.7-0.6,1.3-1.1,1.8-1.6C52.9,113.3,52.9,113.9,52.3,114.5
		z M51.7,91.8c-0.3-1-0.3-1,0.7-2C53,90.8,53,90.9,51.7,91.8z M53.6,100.2c-0.4-0.3-1-0.5-0.8-1.4c2.4,0.7,2.9,1.9,1.8,4.4
		c-0.5-0.5-0.9-0.9-1.5-1.5c0.7-0.2,1.1-0.3,1.9-0.5C54.4,100.8,54,100.5,53.6,100.2z M54.3,104.7c0.7,0.1,1.3,0.2,2.1,0.3
		c-1,1.8-1.2,1.9-2.8,1.5C53.9,105.9,54.1,105.4,54.3,104.7z M54,113.8c1.2-1,2.2-1.9,3.3-2.8c0.8,0.9,1.5,1.6,2.1,2.3
		c0.5,0.6,0.5,1.3-0.2,1.5c-1.6,0.3-3.2,0.6-4.8-0.3C54.3,114.5,54.2,114.3,54,113.8z M57.3,144.3c-0.3-0.2-0.6-0.5-0.8-0.7
		c0.1-0.1,0.1-0.2,0.2-0.3c0.3,0.2,0.6,0.4,0.9,0.6C57.5,144.1,57.4,144.2,57.3,144.3z M56.7,126.7c0-0.2-0.1-0.2-0.1-0.3
		c0.2-0.6,0.6-0.9,1.2-0.8c0.1,0,0.3,0.4,0.3,0.5C57.8,126.9,57.3,126.8,56.7,126.7z M59.8,136.1c-0.6-0.2-1.2-0.5-1.8-0.7
		c0.3-1.1,0.9-1.2,1.5-0.9C60.2,134.8,60.3,135.3,59.8,136.1z M60,133.4c-0.1-0.1-0.3-0.2-0.4-0.3c0.1-0.1,0.1-0.2,0.2-0.3
		c0.1,0.1,0.3,0.1,0.3,0.3C60.1,133.2,60,133.3,60,133.4z M59.5,126.2c0-0.2,0.1-0.5,0.1-0.7l0.3,0c0,0.2,0.1,0.5,0.1,0.7
		C59.8,126.2,59.7,126.2,59.5,126.2z M59.8,128.9c-0.1-0.1-0.1-0.2-0.1-0.3c0-0.1,0.1-0.1,0.2-0.2c0.1,0.1,0.1,0.3,0.2,0.5
		C59.9,128.8,59.8,128.9,59.8,128.9z M60.3,124.9c-1.5-0.2-2.6-0.3-3.9-0.4c0.2-0.4,0.2-0.7,0.3-0.9c0.7,0.1,1.3,0.3,1.9,0.4
		c0.2,0,0.4-0.5,0.6-0.9c-2.7-0.8-1.9-2.7-1.6-4.6c0.4-0.2,0.9-0.4,1.6-0.7c-0.5-0.3-0.8-0.5-1.2-0.7c1.5-0.8,1.9-0.6,2,1
		C60.1,120.2,60.2,122.4,60.3,124.9z M56.9,94.1c1.7-0.8,1.7-0.8,2.6,0.5C58.5,94.5,57.9,94.3,56.9,94.1z M56,33.2
		c0.8-0.2,1.4-0.2,1.9,0.6C57,34.1,56.4,34.2,56,33.2z M55.3,5.9c1.9,0.8,2.9,2,2.9,3.9C56.6,10,56.2,9.5,55.3,5.9z M60,67.2
		L59.7,67c0.2-0.3,0.3-0.6,0.5-0.9c0.1,0.1,0.2,0.1,0.4,0.2C60.4,66.6,60.2,66.9,60,67.2z M62.2,117.3c0.9,2.4,1.1,4.9,1.3,7.5
		C62.1,122.5,61.8,120,62.2,117.3z M64.9,89.4c0.4-0.3,0.7-0.5,1-0.8C66.2,89.6,66.2,89.6,64.9,89.4z M66,81.3
		c-1.3-0.3-1.3-0.3-2-1.6C65.2,80,66.1,80,66,81.3z M66,86.6c-0.5,0.7-0.8,1.2-1.4,2c-0.5-0.8-0.8-1.3-1.3-2.1
		C64.3,86.5,65,86.6,66,86.6z M63.6,94.2c0.6,0.2,1.1,0.5,0.7,1.2c-0.1,0.1-0.5,0.3-0.6,0.2C63.2,95.3,63.2,94.8,63.6,94.2z
		 M61.6,40.3c0.6,0.9,0.9,1.5,0.7,2.7C61.5,42.1,61.1,41.4,61.6,40.3z M62.2,104.7c1,1.9,1,2.3-0.5,3.1
		C61.9,106.7,62.1,105.8,62.2,104.7z M62.4,108.8c0.7,0.6,0.5,1.4,0.5,2.2c-0.1,1.2-0.4,2.4,0.6,3.9c-1.4-0.6-1.5-1.5-1.7-2.3
		C61.5,110.7,61.7,109.7,62.4,108.8z"/>
	<path class="st0" d="M9.4,101.1c0,0-0.1-0.1-0.1-0.1c0-0.1,0.1-0.2,0.1-0.3c0,0,0.1,0.1,0.1,0.1C9.5,100.9,9.4,101,9.4,101.1z"/>
	<path class="st0" d="M27.8,90.7c0.1,0,0.2,0,0.3,0.1C28,90.9,28,91,27.9,91c0,0-0.1,0-0.1,0C27.7,90.9,27.8,90.8,27.8,90.7z"/>
	<path class="st0" d="M15.3,142.8c0,0-0.1,0.1-0.1,0.1c0-0.1,0-0.2,0-0.3C15.3,142.7,15.3,142.8,15.3,142.8z"/>
	<path class="st0" d="M23.9,152.6c0-0.1,0-0.1,0-0.2c0.1,0,0.1,0,0.2,0c0,0,0,0.1,0,0.1C24,152.6,23.9,152.6,23.9,152.6z"/>
	<path class="st0" d="M24,151.8c0-0.1-0.1-0.2-0.1-0.3c0,0,0.1-0.1,0.1-0.1c0,0.1,0.1,0.2,0.1,0.3C24.1,151.7,24,151.8,24,151.8z"/>
	<path class="st0" d="M27.3,146.2c0.1,0,0.1,0,0.1,0c0,0,0,0.1,0,0.1c0,0-0.1,0-0.1,0.1C27.3,146.3,27.3,146.3,27.3,146.2z"/>
	<path class="st0" d="M31.8,153.1c0,0-0.1,0-0.1-0.1C31.8,153,31.8,153,31.8,153.1c0.1,0,0.1,0,0.1,0.1
		C31.9,153.1,31.9,153.1,31.8,153.1z"/>
	<path class="st0" d="M35.7,136.9c0-0.1,0-0.2-0.1-0.2c0.1,0,0.2,0,0.3,0c0,0,0.1,0.1,0.1,0.1C35.9,136.9,35.8,136.9,35.7,136.9z"/>
	<polygon class="st0" points="33.2,79.7 33.2,79.7 33.2,79.7 	"/>
	<path class="st0" d="M33.2,79.6C33.2,79.6,33.2,79.7,33.2,79.6C33.2,79.7,33.2,79.7,33.2,79.6C33.2,79.7,33.2,79.6,33.2,79.6z"/>
	<path class="st0" d="M33.4,79.7C33.4,79.7,33.4,79.7,33.4,79.7c-0.1,0-0.1,0-0.2-0.1C33.3,79.7,33.3,79.7,33.4,79.7
		C33.3,79.7,33.4,79.7,33.4,79.7z"/>
	<path class="st0" d="M33.2,79.6C33.2,79.6,33.2,79.6,33.2,79.6L33.2,79.6z"/>
	<path class="st0" d="M33.2,79.7L33.2,79.7C33.1,79.7,33.1,79.7,33.2,79.7z"/>
	<path class="st0" d="M31.7,153c0,0,0.1,0,0.1,0.1c0,0,0.1,0,0.1,0.1c0,0,0-0.1-0.1-0.1C31.8,153,31.8,153,31.7,153z"/>
	<path class="st0" d="M19.2,148C19.1,148,19.1,148,19.2,148c-0.1-0.1-0.1-0.1-0.1-0.1c0,0,0,0,0,0.1C19.1,148,19.1,148,19.2,148z"/>
	<path class="st0" d="M25,51.7c0,0-0.1,0-0.1-0.1c0,0,0,0-0.1,0c0,0,0,0,0,0C24.9,51.7,25,51.7,25,51.7z"/>
</g>
</svg>
